<ttFont>
    <TTGlyph name=".notdef" xMin="57" yMin="0" xMax="457" yMax="533">
      <contour>
        <pt x="57" y="0" on="1"/>
        <pt x="57" y="533" on="1"/>
        <pt x="457" y="533" on="1"/>
        <pt x="457" y="0" on="1"/>
      </contour>
      <contour>
        <pt x="107" y="50" on="1"/>
        <pt x="407" y="50" on="1"/>
        <pt x="407" y="483" on="1"/>
        <pt x="107" y="483" on="1"/>
      </contour>
    </TTGlyph>
    <TTGlyph name="A" xMin="-15" yMin="0" xMax="583" yMax="585">
      <contour>
        <pt x="329" y="0" on="1"/>
        <pt x="329" y="21" on="1"/>
        <pt x="375" y="21" on="0"/>
        <pt x="387" y="33" on="1"/>
        <pt x="331" y="186" on="1"/>
        <pt x="139" y="186" on="1"/>
        <pt x="87" y="39" on="1"/>
        <pt x="97" y="21" on="0"/>
        <pt x="149" y="21" on="1"/>
        <pt x="149" y="0" on="1"/>
        <pt x="-15" y="0" on="1"/>
        <pt x="-15" y="21" on="1"/>
        <pt x="40" y="21" on="0"/>
        <pt x="48" y="42" on="1"/>
        <pt x="242" y="585" on="1"/>
        <pt x="323" y="585" on="1"/>
        <pt x="519" y="42" on="1"/>
        <pt x="526" y="21" on="0"/>
        <pt x="583" y="21" on="1"/>
        <pt x="583" y="0" on="1"/>
      </contour>
      <contour>
        <pt x="234" y="452" on="1"/>
        <pt x="151" y="219" on="1"/>
        <pt x="319" y="219" on="1"/>
      </contour>
    </TTGlyph>
    <TTGlyph name="AE" xMin="-29" yMin="0" xMax="733" yMax="585">
      <contour>
        <pt x="-29" y="0" on="1"/>
        <pt x="-29" y="21" on="1"/>
        <pt x="25" y="21" on="0"/>
        <pt x="34" y="42" on="1"/>
        <pt x="34" y="41" on="1"/>
        <pt x="321" y="553" on="1"/>
        <pt x="309" y="564" on="0"/>
        <pt x="264" y="564" on="1"/>
        <pt x="264" y="585" on="1"/>
        <pt x="688" y="585" on="1"/>
        <pt x="688" y="488" on="1"/>
        <pt x="667" y="488" on="1"/>
        <pt x="667" y="542" on="0"/>
        <pt x="647" y="551" on="1"/>
        <pt x="475" y="551" on="1"/>
        <pt x="475" y="321" on="1"/>
        <pt x="580" y="321" on="1"/>
        <pt x="600" y="330" on="0"/>
        <pt x="600" y="384" on="1"/>
        <pt x="621" y="384" on="1"/>
        <pt x="621" y="224" on="1"/>
        <pt x="600" y="224" on="1"/>
        <pt x="600" y="278" on="0"/>
        <pt x="580" y="287" on="1"/>
        <pt x="475" y="287" on="1"/>
        <pt x="475" y="34" on="1"/>
        <pt x="668" y="34" on="1"/>
        <pt x="693" y="45" on="0"/>
        <pt x="713" y="97" on="1"/>
        <pt x="733" y="97" on="1"/>
        <pt x="709" y="0" on="1"/>
        <pt x="285" y="0" on="1"/>
        <pt x="285" y="21" on="1"/>
        <pt x="339" y="21" on="0"/>
        <pt x="348" y="41" on="1"/>
        <pt x="348" y="186" on="1"/>
        <pt x="155" y="186" on="1"/>
        <pt x="73" y="39" on="1"/>
        <pt x="83" y="21" on="0"/>
        <pt x="135" y="21" on="1"/>
        <pt x="135" y="0" on="1"/>
        <pt x="59" y="0" on="1"/>
        <pt x="64" y="17" on="0"/>
        <pt x="69" y="32" on="1"/>
        <pt x="51" y="0" on="1"/>
      </contour>
      <contour>
        <pt x="174" y="219" on="1"/>
        <pt x="348" y="219" on="1"/>
        <pt x="348" y="530" on="1"/>
      </contour>
    </TTGlyph>
    <TTGlyph name="Aacute" xMin="-15" yMin="0" xMax="583" yMax="782">
      <component glyphName="acutecomb" x="538" y="120" flags="0x1004"/>
      <component glyphName="A" x="0" y="0" flags="0x1204"/>
    </TTGlyph>
    <TTGlyph name="Abreve" xMin="-15" yMin="0" xMax="583" yMax="754">
      <contour>
        <pt x="284" y="630" on="1"/>
        <pt x="223" y="630" on="0"/>
        <pt x="158" y="711" on="0"/>
        <pt x="158" y="754" on="1"/>
        <pt x="186" y="754" on="1"/>
        <pt x="207" y="710" on="0"/>
        <pt x="361" y="710" on="0"/>
        <pt x="382" y="754" on="1"/>
        <pt x="410" y="754" on="1"/>
        <pt x="410" y="710" on="0"/>
        <pt x="346" y="630" on="0"/>
      </contour>
      <contour>
        <pt x="329" y="0" on="1"/>
        <pt x="329" y="21" on="1"/>
        <pt x="375" y="21" on="0"/>
        <pt x="387" y="33" on="1"/>
        <pt x="331" y="186" on="1"/>
        <pt x="139" y="186" on="1"/>
        <pt x="87" y="39" on="1"/>
        <pt x="97" y="21" on="0"/>
        <pt x="149" y="21" on="1"/>
        <pt x="149" y="0" on="1"/>
        <pt x="-15" y="0" on="1"/>
        <pt x="-15" y="21" on="1"/>
        <pt x="40" y="21" on="0"/>
        <pt x="48" y="42" on="1"/>
        <pt x="242" y="585" on="1"/>
        <pt x="323" y="585" on="1"/>
        <pt x="519" y="42" on="1"/>
        <pt x="526" y="21" on="0"/>
        <pt x="583" y="21" on="1"/>
        <pt x="583" y="0" on="1"/>
      </contour>
      <contour>
        <pt x="234" y="452" on="1"/>
        <pt x="151" y="219" on="1"/>
        <pt x="319" y="219" on="1"/>
      </contour>
    </TTGlyph>
    <TTGlyph name="Acircumflex" xMin="-15" yMin="0" xMax="583" yMax="782">
      <component glyphName="uni0302" x="538" y="120" flags="0x1004"/>
      <component glyphName="A" x="0" y="0" flags="0x1204"/>
    </TTGlyph>
    <TTGlyph name="Adieresis" xMin="-15" yMin="0" xMax="583" yMax="738">
      <component glyphName="uni0308" x="538" y="120" flags="0x1004"/>
      <component glyphName="A" x="0" y="0" flags="0x1204"/>
    </TTGlyph>
    <TTGlyph name="Agrave" xMin="-15" yMin="0" xMax="583" yMax="782">
      <component glyphName="gravecomb" x="538" y="120" flags="0x1004"/>
      <component glyphName="A" x="0" y="0" flags="0x1204"/>
    </TTGlyph>
    <TTGlyph name="Amacron" xMin="-15" yMin="0" xMax="583" yMax="688">
      <contour>
        <pt x="146" y="688" on="1"/>
        <pt x="410" y="688" on="1"/>
        <pt x="410" y="634" on="1"/>
        <pt x="146" y="634" on="1"/>
      </contour>
      <contour>
        <pt x="329" y="0" on="1"/>
        <pt x="329" y="21" on="1"/>
        <pt x="375" y="21" on="0"/>
        <pt x="387" y="33" on="1"/>
        <pt x="331" y="186" on="1"/>
        <pt x="139" y="186" on="1"/>
        <pt x="87" y="39" on="1"/>
        <pt x="97" y="21" on="0"/>
        <pt x="149" y="21" on="1"/>
        <pt x="149" y="0" on="1"/>
        <pt x="-15" y="0" on="1"/>
        <pt x="-15" y="21" on="1"/>
        <pt x="40" y="21" on="0"/>
        <pt x="48" y="42" on="1"/>
        <pt x="242" y="585" on="1"/>
        <pt x="323" y="585" on="1"/>
        <pt x="519" y="42" on="1"/>
        <pt x="526" y="21" on="0"/>
        <pt x="583" y="21" on="1"/>
        <pt x="583" y="0" on="1"/>
      </contour>
      <contour>
        <pt x="234" y="452" on="1"/>
        <pt x="151" y="219" on="1"/>
        <pt x="319" y="219" on="1"/>
      </contour>
    </TTGlyph>
    <TTGlyph name="Aogonek" xMin="-15" yMin="-200" xMax="613" yMax="585">
      <contour>
        <pt x="234" y="452" on="1"/>
        <pt x="151" y="219" on="1"/>
        <pt x="319" y="219" on="1"/>
      </contour>
      <contour>
        <pt x="329" y="0" on="1"/>
        <pt x="329" y="21" on="1"/>
        <pt x="375" y="21" on="0"/>
        <pt x="387" y="33" on="1"/>
        <pt x="331" y="186" on="1"/>
        <pt x="139" y="186" on="1"/>
        <pt x="87" y="39" on="1"/>
        <pt x="97" y="21" on="0"/>
        <pt x="149" y="21" on="1"/>
        <pt x="149" y="0" on="1"/>
        <pt x="-15" y="0" on="1"/>
        <pt x="-15" y="21" on="1"/>
        <pt x="40" y="21" on="0"/>
        <pt x="48" y="42" on="1"/>
        <pt x="242" y="585" on="1"/>
        <pt x="323" y="585" on="1"/>
        <pt x="519" y="42" on="1"/>
        <pt x="526" y="21" on="0"/>
        <pt x="583" y="21" on="1"/>
        <pt x="583" y="0" on="1"/>
        <pt x="514" y="0" on="1"/>
        <pt x="488" y="-31" on="0"/>
        <pt x="488" y="-68" on="1"/>
        <pt x="488" y="-114" on="0"/>
        <pt x="534" y="-166" on="0"/>
        <pt x="571" y="-166" on="1"/>
        <pt x="579" y="-166" on="0"/>
        <pt x="594" y="-158" on="0"/>
        <pt x="598" y="-154" on="1"/>
        <pt x="602" y="-150" on="1"/>
        <pt x="613" y="-168" on="1"/>
        <pt x="611" y="-172" on="0"/>
        <pt x="601" y="-182" on="0"/>
        <pt x="560" y="-200" on="0"/>
        <pt x="534" y="-200" on="1"/>
        <pt x="484" y="-200" on="0"/>
        <pt x="429" y="-148" on="0"/>
        <pt x="429" y="-103" on="1"/>
        <pt x="429" y="-45" on="0"/>
        <pt x="477" y="0" on="1"/>
      </contour>
    </TTGlyph>
    <TTGlyph name="Aring" xMin="-15" yMin="0" xMax="583" yMax="763">
      <component glyphName="uni030A" x="538" y="120" flags="0x1004"/>
      <component glyphName="A" x="0" y="0" flags="0x1204"/>
    </TTGlyph>
    <TTGlyph name="Atilde" xMin="-15" yMin="0" xMax="583" yMax="742">
      <component glyphName="tildecomb" x="538" y="120" flags="0x1004"/>
      <component glyphName="A" x="0" y="0" flags="0x1204"/>
    </TTGlyph>
    <TTGlyph name="B" xMin="36" yMin="0" xMax="571" yMax="585">
      <contour>
        <pt x="36" y="0" on="1"/>
        <pt x="36" y="21" on="1"/>
        <pt x="90" y="21" on="0"/>
        <pt x="99" y="41" on="1"/>
        <pt x="99" y="544" on="1"/>
        <pt x="90" y="564" on="0"/>
        <pt x="36" y="564" on="1"/>
        <pt x="36" y="585" on="1"/>
        <pt x="275" y="585" on="1"/>
        <pt x="400" y="585" on="0"/>
        <pt x="527" y="503" on="0"/>
        <pt x="527" y="447" on="1"/>
        <pt x="527" y="341" on="0"/>
        <pt x="413" y="306" on="1"/>
        <pt x="487" y="288" on="0"/>
        <pt x="571" y="212" on="0"/>
        <pt x="571" y="171" on="1"/>
        <pt x="571" y="95" on="0"/>
        <pt x="450" y="0" on="0"/>
        <pt x="331" y="0" on="1"/>
      </contour>
      <contour>
        <pt x="226" y="551" on="1"/>
        <pt x="226" y="319" on="1"/>
        <pt x="272" y="319" on="1"/>
        <pt x="344" y="319" on="0"/>
        <pt x="392" y="381" on="0"/>
        <pt x="392" y="446" on="1"/>
        <pt x="392" y="551" on="0"/>
        <pt x="240" y="551" on="1"/>
      </contour>
      <contour>
        <pt x="226" y="290" on="1"/>
        <pt x="226" y="34" on="1"/>
        <pt x="296" y="34" on="1"/>
        <pt x="436" y="34" on="0"/>
        <pt x="436" y="170" on="1"/>
        <pt x="436" y="217" on="0"/>
        <pt x="366" y="290" on="0"/>
        <pt x="284" y="290" on="1"/>
      </contour>
    </TTGlyph>
    <TTGlyph name="C" xMin="36" yMin="-10" xMax="540" yMax="595">
      <contour>
        <pt x="350" y="561" on="1"/>
        <pt x="266" y="561" on="0"/>
        <pt x="175" y="423" on="0"/>
        <pt x="175" y="306" on="1"/>
        <pt x="175" y="170" on="0"/>
        <pt x="273" y="24" on="0"/>
        <pt x="354" y="24" on="1"/>
        <pt x="403" y="24" on="0"/>
        <pt x="484" y="91" on="0"/>
        <pt x="499" y="132" on="1"/>
        <pt x="540" y="120" on="1"/>
        <pt x="517" y="65" on="0"/>
        <pt x="418" y="-10" on="0"/>
        <pt x="334" y="-10" on="1"/>
        <pt x="200" y="-10" on="0"/>
        <pt x="36" y="164" on="0"/>
        <pt x="36" y="284" on="1"/>
        <pt x="36" y="423" on="0"/>
        <pt x="224" y="595" on="0"/>
        <pt x="349" y="595" on="1"/>
        <pt x="378" y="595" on="0"/>
        <pt x="464" y="565" on="0"/>
        <pt x="470" y="565" on="1"/>
        <pt x="482" y="565" on="0"/>
        <pt x="482" y="585" on="1"/>
        <pt x="505" y="585" on="1"/>
        <pt x="513" y="444" on="1"/>
        <pt x="491" y="444" on="1"/>
        <pt x="485" y="485" on="0"/>
        <pt x="393" y="561" on="0"/>
      </contour>
    </TTGlyph>
    <TTGlyph name="Cacute" xMin="36" yMin="-10" xMax="540" yMax="782">
      <contour>
        <pt x="354" y="782" on="1"/>
        <pt x="480" y="782" on="1"/>
        <pt x="346" y="620" on="1"/>
        <pt x="300" y="620" on="1"/>
      </contour>
      <contour>
        <pt x="350" y="561" on="1"/>
        <pt x="266" y="561" on="0"/>
        <pt x="175" y="423" on="0"/>
        <pt x="175" y="306" on="1"/>
        <pt x="175" y="170" on="0"/>
        <pt x="273" y="24" on="0"/>
        <pt x="354" y="24" on="1"/>
        <pt x="403" y="24" on="0"/>
        <pt x="484" y="91" on="0"/>
        <pt x="499" y="132" on="1"/>
        <pt x="540" y="120" on="1"/>
        <pt x="517" y="65" on="0"/>
        <pt x="418" y="-10" on="0"/>
        <pt x="334" y="-10" on="1"/>
        <pt x="200" y="-10" on="0"/>
        <pt x="36" y="164" on="0"/>
        <pt x="36" y="284" on="1"/>
        <pt x="36" y="423" on="0"/>
        <pt x="224" y="595" on="0"/>
        <pt x="349" y="595" on="1"/>
        <pt x="378" y="595" on="0"/>
        <pt x="464" y="565" on="0"/>
        <pt x="470" y="565" on="1"/>
        <pt x="482" y="565" on="0"/>
        <pt x="482" y="585" on="1"/>
        <pt x="505" y="585" on="1"/>
        <pt x="513" y="444" on="1"/>
        <pt x="491" y="444" on="1"/>
        <pt x="485" y="485" on="0"/>
        <pt x="393" y="561" on="0"/>
      </contour>
    </TTGlyph>
    <TTGlyph name="Ccaron" xMin="36" yMin="-10" xMax="540" yMax="782">
      <contour>
        <pt x="320" y="620" on="1"/>
        <pt x="226" y="782" on="1"/>
        <pt x="262" y="782" on="1"/>
        <pt x="345" y="705" on="1"/>
        <pt x="428" y="782" on="1"/>
        <pt x="464" y="782" on="1"/>
        <pt x="370" y="620" on="1"/>
      </contour>
      <contour>
        <pt x="350" y="561" on="1"/>
        <pt x="266" y="561" on="0"/>
        <pt x="175" y="423" on="0"/>
        <pt x="175" y="306" on="1"/>
        <pt x="175" y="170" on="0"/>
        <pt x="273" y="24" on="0"/>
        <pt x="354" y="24" on="1"/>
        <pt x="403" y="24" on="0"/>
        <pt x="484" y="91" on="0"/>
        <pt x="499" y="132" on="1"/>
        <pt x="540" y="120" on="1"/>
        <pt x="517" y="65" on="0"/>
        <pt x="418" y="-10" on="0"/>
        <pt x="334" y="-10" on="1"/>
        <pt x="200" y="-10" on="0"/>
        <pt x="36" y="164" on="0"/>
        <pt x="36" y="284" on="1"/>
        <pt x="36" y="423" on="0"/>
        <pt x="224" y="595" on="0"/>
        <pt x="349" y="595" on="1"/>
        <pt x="378" y="595" on="0"/>
        <pt x="464" y="565" on="0"/>
        <pt x="470" y="565" on="1"/>
        <pt x="482" y="565" on="0"/>
        <pt x="482" y="585" on="1"/>
        <pt x="505" y="585" on="1"/>
        <pt x="513" y="444" on="1"/>
        <pt x="491" y="444" on="1"/>
        <pt x="485" y="485" on="0"/>
        <pt x="393" y="561" on="0"/>
      </contour>
    </TTGlyph>
    <TTGlyph name="Ccedilla" xMin="36" yMin="-199" xMax="540" yMax="595">
      <contour>
        <pt x="350" y="561" on="1"/>
        <pt x="350" y="560" on="1"/>
        <pt x="266" y="560" on="0"/>
        <pt x="175" y="422" on="0"/>
        <pt x="175" y="305" on="1"/>
        <pt x="175" y="169" on="0"/>
        <pt x="273" y="23" on="0"/>
        <pt x="354" y="23" on="1"/>
        <pt x="403" y="23" on="0"/>
        <pt x="484" y="90" on="0"/>
        <pt x="499" y="131" on="1"/>
        <pt x="540" y="119" on="1"/>
        <pt x="519" y="70" on="0"/>
        <pt x="433" y="-2" on="0"/>
        <pt x="363" y="-9" on="1"/>
        <pt x="351" y="-55" on="1"/>
        <pt x="370" y="-55" on="0"/>
        <pt x="414" y="-66" on="0"/>
        <pt x="456" y="-99" on="0"/>
        <pt x="456" y="-122" on="1"/>
        <pt x="456" y="-152" on="0"/>
        <pt x="398" y="-199" on="0"/>
        <pt x="336" y="-199" on="1"/>
        <pt x="303" y="-199" on="0"/>
        <pt x="262" y="-192" on="1"/>
        <pt x="262" y="-175" on="1"/>
        <pt x="280" y="-177" on="0"/>
        <pt x="287" y="-177" on="1"/>
        <pt x="354" y="-177" on="0"/>
        <pt x="354" y="-130" on="1"/>
        <pt x="354" y="-86" on="0"/>
        <pt x="293" y="-86" on="1"/>
        <pt x="315" y="-9" on="1"/>
        <pt x="188" y="-2" on="0"/>
        <pt x="36" y="169" on="0"/>
        <pt x="36" y="284" on="1"/>
        <pt x="36" y="423" on="0"/>
        <pt x="224" y="595" on="0"/>
        <pt x="349" y="595" on="1"/>
        <pt x="378" y="595" on="0"/>
        <pt x="464" y="565" on="0"/>
        <pt x="470" y="565" on="1"/>
        <pt x="482" y="565" on="0"/>
        <pt x="482" y="585" on="1"/>
        <pt x="505" y="585" on="1"/>
        <pt x="513" y="444" on="1"/>
        <pt x="491" y="444" on="1"/>
        <pt x="485" y="485" on="0"/>
        <pt x="393" y="561" on="0"/>
      </contour>
    </TTGlyph>
    <TTGlyph name="Ccircumflex" xMin="36" yMin="-10" xMax="540" yMax="782">
      <contour>
        <pt x="369" y="782" on="1"/>
        <pt x="463" y="620" on="1"/>
        <pt x="427" y="620" on="1"/>
        <pt x="344" y="687" on="1"/>
        <pt x="261" y="620" on="1"/>
        <pt x="225" y="620" on="1"/>
        <pt x="319" y="782" on="1"/>
      </contour>
      <contour>
        <pt x="350" y="561" on="1"/>
        <pt x="266" y="561" on="0"/>
        <pt x="175" y="423" on="0"/>
        <pt x="175" y="306" on="1"/>
        <pt x="175" y="170" on="0"/>
        <pt x="273" y="24" on="0"/>
        <pt x="354" y="24" on="1"/>
        <pt x="403" y="24" on="0"/>
        <pt x="484" y="91" on="0"/>
        <pt x="499" y="132" on="1"/>
        <pt x="540" y="120" on="1"/>
        <pt x="517" y="65" on="0"/>
        <pt x="418" y="-10" on="0"/>
        <pt x="334" y="-10" on="1"/>
        <pt x="200" y="-10" on="0"/>
        <pt x="36" y="164" on="0"/>
        <pt x="36" y="284" on="1"/>
        <pt x="36" y="423" on="0"/>
        <pt x="224" y="595" on="0"/>
        <pt x="349" y="595" on="1"/>
        <pt x="378" y="595" on="0"/>
        <pt x="464" y="565" on="0"/>
        <pt x="470" y="565" on="1"/>
        <pt x="482" y="565" on="0"/>
        <pt x="482" y="585" on="1"/>
        <pt x="505" y="585" on="1"/>
        <pt x="513" y="444" on="1"/>
        <pt x="491" y="444" on="1"/>
        <pt x="485" y="485" on="0"/>
        <pt x="393" y="561" on="0"/>
      </contour>
    </TTGlyph>
    <TTGlyph name="Cdotaccent" xMin="36" yMin="-10" xMax="540" yMax="743">
      <contour>
        <pt x="283" y="656" on="0"/>
        <pt x="283" y="708" on="0"/>
        <pt x="318" y="743" on="0"/>
        <pt x="370" y="743" on="0"/>
        <pt x="405" y="708" on="0"/>
        <pt x="405" y="656" on="0"/>
        <pt x="370" y="621" on="0"/>
        <pt x="318" y="621" on="0"/>
      </contour>
      <contour>
        <pt x="350" y="561" on="1"/>
        <pt x="266" y="561" on="0"/>
        <pt x="175" y="423" on="0"/>
        <pt x="175" y="306" on="1"/>
        <pt x="175" y="170" on="0"/>
        <pt x="273" y="24" on="0"/>
        <pt x="354" y="24" on="1"/>
        <pt x="403" y="24" on="0"/>
        <pt x="484" y="91" on="0"/>
        <pt x="499" y="132" on="1"/>
        <pt x="540" y="120" on="1"/>
        <pt x="517" y="65" on="0"/>
        <pt x="418" y="-10" on="0"/>
        <pt x="334" y="-10" on="1"/>
        <pt x="200" y="-10" on="0"/>
        <pt x="36" y="164" on="0"/>
        <pt x="36" y="284" on="1"/>
        <pt x="36" y="423" on="0"/>
        <pt x="224" y="595" on="0"/>
        <pt x="349" y="595" on="1"/>
        <pt x="378" y="595" on="0"/>
        <pt x="464" y="565" on="0"/>
        <pt x="470" y="565" on="1"/>
        <pt x="482" y="565" on="0"/>
        <pt x="482" y="585" on="1"/>
        <pt x="505" y="585" on="1"/>
        <pt x="513" y="444" on="1"/>
        <pt x="491" y="444" on="1"/>
        <pt x="485" y="485" on="0"/>
        <pt x="393" y="561" on="0"/>
      </contour>
    </TTGlyph>
    <TTGlyph name="D" xMin="36" yMin="-1" xMax="576" yMax="584">
      <contour>
        <pt x="36" y="-1" on="1"/>
        <pt x="36" y="20" on="1"/>
        <pt x="90" y="20" on="0"/>
        <pt x="99" y="40" on="1"/>
        <pt x="99" y="543" on="1"/>
        <pt x="90" y="563" on="0"/>
        <pt x="36" y="563" on="1"/>
        <pt x="36" y="584" on="1"/>
        <pt x="266" y="584" on="1"/>
        <pt x="401" y="584" on="0"/>
        <pt x="576" y="421" on="0"/>
        <pt x="576" y="293" on="1"/>
        <pt x="576" y="164" on="0"/>
        <pt x="405" y="-1" on="0"/>
        <pt x="278" y="-1" on="1"/>
      </contour>
      <contour>
        <pt x="226" y="555" on="1"/>
        <pt x="226" y="33" on="1"/>
        <pt x="278" y="33" on="1"/>
        <pt x="346" y="33" on="0"/>
        <pt x="441" y="161" on="0"/>
        <pt x="441" y="292" on="1"/>
        <pt x="441" y="424" on="0"/>
        <pt x="341" y="555" on="0"/>
        <pt x="266" y="555" on="1"/>
      </contour>
    </TTGlyph>
    <TTGlyph name="Dcaron" xMin="36" yMin="-1" xMax="576" yMax="782">
      <contour>
        <pt x="253" y="620" on="1"/>
        <pt x="159" y="782" on="1"/>
        <pt x="195" y="782" on="1"/>
        <pt x="278" y="705" on="1"/>
        <pt x="361" y="782" on="1"/>
        <pt x="397" y="782" on="1"/>
        <pt x="303" y="620" on="1"/>
      </contour>
      <contour>
        <pt x="36" y="-1" on="1"/>
        <pt x="36" y="20" on="1"/>
        <pt x="90" y="20" on="0"/>
        <pt x="99" y="40" on="1"/>
        <pt x="99" y="543" on="1"/>
        <pt x="90" y="563" on="0"/>
        <pt x="36" y="563" on="1"/>
        <pt x="36" y="584" on="1"/>
        <pt x="266" y="584" on="1"/>
        <pt x="401" y="584" on="0"/>
        <pt x="576" y="421" on="0"/>
        <pt x="576" y="293" on="1"/>
        <pt x="576" y="164" on="0"/>
        <pt x="405" y="-1" on="0"/>
        <pt x="278" y="-1" on="1"/>
      </contour>
      <contour>
        <pt x="226" y="555" on="1"/>
        <pt x="226" y="33" on="1"/>
        <pt x="278" y="33" on="1"/>
        <pt x="346" y="33" on="0"/>
        <pt x="441" y="161" on="0"/>
        <pt x="441" y="292" on="1"/>
        <pt x="441" y="424" on="0"/>
        <pt x="341" y="555" on="0"/>
        <pt x="266" y="555" on="1"/>
      </contour>
    </TTGlyph>
    <TTGlyph name="Dcroat" xMin="36" yMin="-1" xMax="576" yMax="584">
      <contour>
        <pt x="36" y="-1" on="1"/>
        <pt x="36" y="20" on="1"/>
        <pt x="90" y="20" on="0"/>
        <pt x="99" y="40" on="1"/>
        <pt x="99" y="269" on="1"/>
        <pt x="38" y="269" on="1"/>
        <pt x="38" y="313" on="1"/>
        <pt x="99" y="313" on="1"/>
        <pt x="99" y="543" on="1"/>
        <pt x="90" y="563" on="0"/>
        <pt x="36" y="563" on="1"/>
        <pt x="36" y="584" on="1"/>
        <pt x="266" y="584" on="1"/>
        <pt x="401" y="584" on="0"/>
        <pt x="576" y="421" on="0"/>
        <pt x="576" y="293" on="1"/>
        <pt x="576" y="164" on="0"/>
        <pt x="405" y="-1" on="0"/>
        <pt x="278" y="-1" on="1"/>
      </contour>
      <contour>
        <pt x="226" y="269" on="1"/>
        <pt x="226" y="33" on="1"/>
        <pt x="278" y="33" on="1"/>
        <pt x="346" y="33" on="0"/>
        <pt x="441" y="161" on="0"/>
        <pt x="441" y="292" on="1"/>
        <pt x="441" y="424" on="0"/>
        <pt x="341" y="555" on="0"/>
        <pt x="266" y="555" on="1"/>
        <pt x="226" y="555" on="1"/>
        <pt x="226" y="313" on="1"/>
        <pt x="360" y="313" on="1"/>
        <pt x="360" y="269" on="1"/>
      </contour>
    </TTGlyph>
    <TTGlyph name="E" xMin="36" yMin="0" xMax="494" yMax="585">
      <contour>
        <pt x="36" y="0" on="1"/>
        <pt x="36" y="21" on="1"/>
        <pt x="90" y="21" on="0"/>
        <pt x="99" y="41" on="1"/>
        <pt x="99" y="544" on="1"/>
        <pt x="90" y="564" on="0"/>
        <pt x="36" y="564" on="1"/>
        <pt x="36" y="585" on="1"/>
        <pt x="449" y="585" on="1"/>
        <pt x="449" y="488" on="1"/>
        <pt x="428" y="488" on="1"/>
        <pt x="428" y="542" on="0"/>
        <pt x="408" y="551" on="1"/>
        <pt x="226" y="551" on="1"/>
        <pt x="226" y="321" on="1"/>
        <pt x="341" y="321" on="1"/>
        <pt x="361" y="330" on="0"/>
        <pt x="361" y="384" on="1"/>
        <pt x="382" y="384" on="1"/>
        <pt x="382" y="224" on="1"/>
        <pt x="361" y="224" on="1"/>
        <pt x="361" y="278" on="0"/>
        <pt x="341" y="287" on="1"/>
        <pt x="226" y="287" on="1"/>
        <pt x="226" y="34" on="1"/>
        <pt x="429" y="34" on="1"/>
        <pt x="454" y="45" on="0"/>
        <pt x="474" y="97" on="1"/>
        <pt x="494" y="97" on="1"/>
        <pt x="470" y="0" on="1"/>
      </contour>
    </TTGlyph>
    <TTGlyph name="Eacute" xMin="36" yMin="0" xMax="494" yMax="782">
      <component glyphName="acutecomb" x="531" y="120" flags="0x1004"/>
      <component glyphName="E" x="0" y="0" flags="0x1204"/>
    </TTGlyph>
    <TTGlyph name="Ebreve" xMin="36" yMin="0" xMax="494" yMax="754">
      <contour>
        <pt x="277" y="630" on="1"/>
        <pt x="216" y="630" on="0"/>
        <pt x="151" y="711" on="0"/>
        <pt x="151" y="754" on="1"/>
        <pt x="179" y="754" on="1"/>
        <pt x="200" y="710" on="0"/>
        <pt x="354" y="710" on="0"/>
        <pt x="375" y="754" on="1"/>
        <pt x="403" y="754" on="1"/>
        <pt x="403" y="710" on="0"/>
        <pt x="339" y="630" on="0"/>
      </contour>
      <contour>
        <pt x="36" y="0" on="1"/>
        <pt x="36" y="21" on="1"/>
        <pt x="90" y="21" on="0"/>
        <pt x="99" y="41" on="1"/>
        <pt x="99" y="544" on="1"/>
        <pt x="90" y="564" on="0"/>
        <pt x="36" y="564" on="1"/>
        <pt x="36" y="585" on="1"/>
        <pt x="449" y="585" on="1"/>
        <pt x="449" y="488" on="1"/>
        <pt x="428" y="488" on="1"/>
        <pt x="428" y="542" on="0"/>
        <pt x="408" y="551" on="1"/>
        <pt x="226" y="551" on="1"/>
        <pt x="226" y="321" on="1"/>
        <pt x="341" y="321" on="1"/>
        <pt x="361" y="330" on="0"/>
        <pt x="361" y="384" on="1"/>
        <pt x="382" y="384" on="1"/>
        <pt x="382" y="224" on="1"/>
        <pt x="361" y="224" on="1"/>
        <pt x="361" y="278" on="0"/>
        <pt x="341" y="287" on="1"/>
        <pt x="226" y="287" on="1"/>
        <pt x="226" y="34" on="1"/>
        <pt x="429" y="34" on="1"/>
        <pt x="454" y="45" on="0"/>
        <pt x="474" y="97" on="1"/>
        <pt x="494" y="97" on="1"/>
        <pt x="470" y="0" on="1"/>
      </contour>
    </TTGlyph>
    <TTGlyph name="Ecaron" xMin="36" yMin="0" xMax="494" yMax="782">
      <contour>
        <pt x="253" y="620" on="1"/>
        <pt x="159" y="782" on="1"/>
        <pt x="195" y="782" on="1"/>
        <pt x="278" y="705" on="1"/>
        <pt x="361" y="782" on="1"/>
        <pt x="397" y="782" on="1"/>
        <pt x="303" y="620" on="1"/>
      </contour>
      <contour>
        <pt x="36" y="0" on="1"/>
        <pt x="36" y="21" on="1"/>
        <pt x="90" y="21" on="0"/>
        <pt x="99" y="41" on="1"/>
        <pt x="99" y="544" on="1"/>
        <pt x="90" y="564" on="0"/>
        <pt x="36" y="564" on="1"/>
        <pt x="36" y="585" on="1"/>
        <pt x="449" y="585" on="1"/>
        <pt x="449" y="488" on="1"/>
        <pt x="428" y="488" on="1"/>
        <pt x="428" y="542" on="0"/>
        <pt x="408" y="551" on="1"/>
        <pt x="226" y="551" on="1"/>
        <pt x="226" y="321" on="1"/>
        <pt x="341" y="321" on="1"/>
        <pt x="361" y="330" on="0"/>
        <pt x="361" y="384" on="1"/>
        <pt x="382" y="384" on="1"/>
        <pt x="382" y="224" on="1"/>
        <pt x="361" y="224" on="1"/>
        <pt x="361" y="278" on="0"/>
        <pt x="341" y="287" on="1"/>
        <pt x="226" y="287" on="1"/>
        <pt x="226" y="34" on="1"/>
        <pt x="429" y="34" on="1"/>
        <pt x="454" y="45" on="0"/>
        <pt x="474" y="97" on="1"/>
        <pt x="494" y="97" on="1"/>
        <pt x="470" y="0" on="1"/>
      </contour>
    </TTGlyph>
    <TTGlyph name="Ecircumflex" xMin="36" yMin="0" xMax="494" yMax="782">
      <component glyphName="uni0302" x="531" y="120" flags="0x1004"/>
      <component glyphName="E" x="0" y="0" flags="0x1204"/>
    </TTGlyph>
    <TTGlyph name="Edieresis" xMin="36" yMin="0" xMax="494" yMax="738">
      <component glyphName="uni0308" x="531" y="120" flags="0x1004"/>
      <component glyphName="E" x="0" y="0" flags="0x1204"/>
    </TTGlyph>
    <TTGlyph name="Edotaccent" xMin="36" yMin="0" xMax="494" yMax="743">
      <contour>
        <pt x="216" y="656" on="0"/>
        <pt x="216" y="708" on="0"/>
        <pt x="252" y="743" on="0"/>
        <pt x="302" y="743" on="0"/>
        <pt x="338" y="708" on="0"/>
        <pt x="338" y="656" on="0"/>
        <pt x="302" y="621" on="0"/>
        <pt x="252" y="621" on="0"/>
      </contour>
      <contour>
        <pt x="36" y="0" on="1"/>
        <pt x="36" y="21" on="1"/>
        <pt x="90" y="21" on="0"/>
        <pt x="99" y="41" on="1"/>
        <pt x="99" y="544" on="1"/>
        <pt x="90" y="564" on="0"/>
        <pt x="36" y="564" on="1"/>
        <pt x="36" y="585" on="1"/>
        <pt x="449" y="585" on="1"/>
        <pt x="449" y="488" on="1"/>
        <pt x="428" y="488" on="1"/>
        <pt x="428" y="542" on="0"/>
        <pt x="408" y="551" on="1"/>
        <pt x="226" y="551" on="1"/>
        <pt x="226" y="321" on="1"/>
        <pt x="341" y="321" on="1"/>
        <pt x="361" y="330" on="0"/>
        <pt x="361" y="384" on="1"/>
        <pt x="382" y="384" on="1"/>
        <pt x="382" y="224" on="1"/>
        <pt x="361" y="224" on="1"/>
        <pt x="361" y="278" on="0"/>
        <pt x="341" y="287" on="1"/>
        <pt x="226" y="287" on="1"/>
        <pt x="226" y="34" on="1"/>
        <pt x="429" y="34" on="1"/>
        <pt x="454" y="45" on="0"/>
        <pt x="474" y="97" on="1"/>
        <pt x="494" y="97" on="1"/>
        <pt x="470" y="0" on="1"/>
      </contour>
    </TTGlyph>
    <TTGlyph name="Egrave" xMin="36" yMin="0" xMax="494" yMax="782">
      <component glyphName="gravecomb" x="531" y="120" flags="0x1004"/>
      <component glyphName="E" x="0" y="0" flags="0x1204"/>
    </TTGlyph>
    <TTGlyph name="Emacron" xMin="36" yMin="0" xMax="494" yMax="688">
      <contour>
        <pt x="139" y="688" on="1"/>
        <pt x="403" y="688" on="1"/>
        <pt x="403" y="634" on="1"/>
        <pt x="139" y="634" on="1"/>
      </contour>
      <contour>
        <pt x="36" y="0" on="1"/>
        <pt x="36" y="21" on="1"/>
        <pt x="90" y="21" on="0"/>
        <pt x="99" y="41" on="1"/>
        <pt x="99" y="544" on="1"/>
        <pt x="90" y="564" on="0"/>
        <pt x="36" y="564" on="1"/>
        <pt x="36" y="585" on="1"/>
        <pt x="449" y="585" on="1"/>
        <pt x="449" y="488" on="1"/>
        <pt x="428" y="488" on="1"/>
        <pt x="428" y="542" on="0"/>
        <pt x="408" y="551" on="1"/>
        <pt x="226" y="551" on="1"/>
        <pt x="226" y="321" on="1"/>
        <pt x="341" y="321" on="1"/>
        <pt x="361" y="330" on="0"/>
        <pt x="361" y="384" on="1"/>
        <pt x="382" y="384" on="1"/>
        <pt x="382" y="224" on="1"/>
        <pt x="361" y="224" on="1"/>
        <pt x="361" y="278" on="0"/>
        <pt x="341" y="287" on="1"/>
        <pt x="226" y="287" on="1"/>
        <pt x="226" y="34" on="1"/>
        <pt x="429" y="34" on="1"/>
        <pt x="454" y="45" on="0"/>
        <pt x="474" y="97" on="1"/>
        <pt x="494" y="97" on="1"/>
        <pt x="470" y="0" on="1"/>
      </contour>
    </TTGlyph>
    <TTGlyph name="Eng" xMin="36" yMin="-10" xMax="634" yMax="595">
      <contour>
        <pt x="36" y="0" on="1"/>
        <pt x="36" y="21" on="1"/>
        <pt x="90" y="21" on="0"/>
        <pt x="99" y="41" on="1"/>
        <pt x="99" y="544" on="1"/>
        <pt x="90" y="564" on="0"/>
        <pt x="36" y="564" on="1"/>
        <pt x="36" y="585" on="1"/>
        <pt x="226" y="585" on="1"/>
        <pt x="226" y="507" on="1"/>
        <pt x="287" y="595" on="0"/>
        <pt x="372" y="595" on="1"/>
        <pt x="479" y="595" on="0"/>
        <pt x="634" y="446" on="0"/>
        <pt x="634" y="310" on="1"/>
        <pt x="634" y="157" on="0"/>
        <pt x="522" y="-10" on="0"/>
        <pt x="438" y="-10" on="1"/>
        <pt x="390" y="-10" on="0"/>
        <pt x="306" y="26" on="0"/>
        <pt x="306" y="58" on="1"/>
        <pt x="306" y="72" on="0"/>
        <pt x="332" y="94" on="0"/>
        <pt x="348" y="94" on="1"/>
        <pt x="371" y="94" on="0"/>
        <pt x="394" y="50" on="1"/>
        <pt x="401" y="37" on="0"/>
        <pt x="406" y="28" on="0"/>
        <pt x="418" y="20" on="0"/>
        <pt x="428" y="20" on="1"/>
        <pt x="472" y="20" on="0"/>
        <pt x="507" y="142" on="0"/>
        <pt x="507" y="282" on="1"/>
        <pt x="507" y="561" on="0"/>
        <pt x="362" y="561" on="1"/>
        <pt x="323" y="561" on="0"/>
        <pt x="250" y="495" on="0"/>
        <pt x="226" y="442" on="1"/>
        <pt x="226" y="41" on="1"/>
        <pt x="235" y="21" on="0"/>
        <pt x="289" y="21" on="1"/>
        <pt x="289" y="0" on="1"/>
      </contour>
    </TTGlyph>
    <TTGlyph name="Eogonek" xMin="36" yMin="-200" xMax="515" yMax="585">
      <contour>
        <pt x="36" y="0" on="1"/>
        <pt x="36" y="21" on="1"/>
        <pt x="90" y="21" on="0"/>
        <pt x="99" y="41" on="1"/>
        <pt x="99" y="544" on="1"/>
        <pt x="90" y="564" on="0"/>
        <pt x="36" y="564" on="1"/>
        <pt x="36" y="585" on="1"/>
        <pt x="449" y="585" on="1"/>
        <pt x="449" y="488" on="1"/>
        <pt x="428" y="488" on="1"/>
        <pt x="428" y="542" on="0"/>
        <pt x="408" y="551" on="1"/>
        <pt x="226" y="551" on="1"/>
        <pt x="226" y="321" on="1"/>
        <pt x="341" y="321" on="1"/>
        <pt x="361" y="330" on="0"/>
        <pt x="361" y="384" on="1"/>
        <pt x="382" y="384" on="1"/>
        <pt x="382" y="224" on="1"/>
        <pt x="361" y="224" on="1"/>
        <pt x="361" y="278" on="0"/>
        <pt x="341" y="287" on="1"/>
        <pt x="226" y="287" on="1"/>
        <pt x="226" y="34" on="1"/>
        <pt x="429" y="34" on="1"/>
        <pt x="454" y="45" on="0"/>
        <pt x="474" y="97" on="1"/>
        <pt x="494" y="97" on="1"/>
        <pt x="470" y="0" on="1"/>
        <pt x="416" y="0" on="1"/>
        <pt x="390" y="-31" on="0"/>
        <pt x="390" y="-68" on="1"/>
        <pt x="390" y="-114" on="0"/>
        <pt x="436" y="-166" on="0"/>
        <pt x="473" y="-166" on="1"/>
        <pt x="481" y="-166" on="0"/>
        <pt x="496" y="-158" on="0"/>
        <pt x="500" y="-154" on="1"/>
        <pt x="504" y="-150" on="1"/>
        <pt x="515" y="-168" on="1"/>
        <pt x="513" y="-172" on="0"/>
        <pt x="503" y="-182" on="0"/>
        <pt x="462" y="-200" on="0"/>
        <pt x="436" y="-200" on="1"/>
        <pt x="386" y="-200" on="0"/>
        <pt x="331" y="-148" on="0"/>
        <pt x="331" y="-103" on="1"/>
        <pt x="331" y="-45" on="0"/>
        <pt x="379" y="0" on="1"/>
      </contour>
    </TTGlyph>
    <TTGlyph name="Eth" xMin="9" yMin="-1" xMax="558" yMax="655">
      <contour>
        <pt x="33" y="-1" on="1"/>
        <pt x="33" y="20" on="1"/>
        <pt x="87" y="20" on="0"/>
        <pt x="96" y="40" on="1"/>
        <pt x="96" y="154" on="1"/>
        <pt x="96" y="285" on="0"/>
        <pt x="234" y="439" on="0"/>
        <pt x="392" y="454" on="1"/>
        <pt x="344" y="555" on="0"/>
        <pt x="245" y="555" on="1"/>
        <pt x="188" y="555" on="1"/>
        <pt x="188" y="470" on="1"/>
        <pt x="148" y="470" on="1"/>
        <pt x="148" y="555" on="1"/>
        <pt x="65" y="555" on="1"/>
        <pt x="53" y="550" on="0"/>
        <pt x="30" y="506" on="0"/>
        <pt x="30" y="477" on="1"/>
        <pt x="9" y="477" on="1"/>
        <pt x="9" y="585" on="1"/>
        <pt x="148" y="585" on="1"/>
        <pt x="148" y="655" on="1"/>
        <pt x="188" y="655" on="1"/>
        <pt x="188" y="585" on="1"/>
        <pt x="263" y="585" on="1"/>
        <pt x="396" y="585" on="0"/>
        <pt x="558" y="423" on="0"/>
        <pt x="558" y="163" on="0"/>
        <pt x="400" y="-1" on="0"/>
        <pt x="275" y="-1" on="1"/>
      </contour>
      <contour>
        <pt x="405" y="424" on="1"/>
        <pt x="350" y="416" on="0"/>
        <pt x="276" y="374" on="0"/>
        <pt x="238" y="309" on="0"/>
        <pt x="223" y="238" on="0"/>
        <pt x="223" y="192" on="1"/>
        <pt x="223" y="33" on="1"/>
        <pt x="257" y="33" on="1"/>
        <pt x="325" y="33" on="0"/>
        <pt x="423" y="161" on="0"/>
        <pt x="423" y="292" on="1"/>
        <pt x="423" y="370" on="0"/>
      </contour>
    </TTGlyph>
    <TTGlyph name="Euro" xMin="28" yMin="-10" xMax="521" yMax="595">
      <contour>
        <pt x="500" y="540" on="1"/>
        <pt x="500" y="458" on="1"/>
        <pt x="478" y="458" on="1"/>
        <pt x="471" y="503" on="0"/>
        <pt x="406" y="561" on="0"/>
        <pt x="344" y="561" on="1"/>
        <pt x="240" y="561" on="0"/>
        <pt x="224" y="384" on="1"/>
        <pt x="413" y="384" on="1"/>
        <pt x="397" y="340" on="1"/>
        <pt x="222" y="340" on="1"/>
        <pt x="222" y="335" on="0"/>
        <pt x="221" y="312" on="0"/>
        <pt x="221" y="306" on="1"/>
        <pt x="221" y="277" on="0"/>
        <pt x="222" y="264" on="1"/>
        <pt x="395" y="264" on="1"/>
        <pt x="379" y="220" on="1"/>
        <pt x="225" y="220" on="1"/>
        <pt x="243" y="24" on="0"/>
        <pt x="347" y="24" on="1"/>
        <pt x="442" y="24" on="0"/>
        <pt x="491" y="108" on="1"/>
        <pt x="521" y="92" on="1"/>
        <pt x="503" y="64" on="0"/>
        <pt x="483" y="39" on="0"/>
        <pt x="440" y="4" on="0"/>
        <pt x="377" y="-10" on="0"/>
        <pt x="331" y="-10" on="1"/>
        <pt x="231" y="-10" on="0"/>
        <pt x="101" y="110" on="0"/>
        <pt x="86" y="220" on="1"/>
        <pt x="28" y="220" on="1"/>
        <pt x="44" y="264" on="1"/>
        <pt x="82" y="264" on="1"/>
        <pt x="82" y="284" on="1"/>
        <pt x="82" y="313" on="0"/>
        <pt x="85" y="340" on="1"/>
        <pt x="44" y="340" on="1"/>
        <pt x="60" y="384" on="1"/>
        <pt x="92" y="384" on="1"/>
        <pt x="115" y="492" on="0"/>
        <pt x="255" y="595" on="0"/>
        <pt x="343" y="595" on="1"/>
        <pt x="374" y="595" on="0"/>
        <pt x="429" y="584" on="0"/>
        <pt x="464" y="568" on="0"/>
        <pt x="489" y="551" on="0"/>
        <pt x="494" y="546" on="1"/>
      </contour>
    </TTGlyph>
    <TTGlyph name="F" xMin="36" yMin="0" xMax="449" yMax="585">
      <contour>
        <pt x="36" y="0" on="1"/>
        <pt x="36" y="21" on="1"/>
        <pt x="90" y="21" on="0"/>
        <pt x="99" y="41" on="1"/>
        <pt x="99" y="544" on="1"/>
        <pt x="90" y="564" on="0"/>
        <pt x="36" y="564" on="1"/>
        <pt x="36" y="585" on="1"/>
        <pt x="449" y="585" on="1"/>
        <pt x="449" y="488" on="1"/>
        <pt x="428" y="488" on="1"/>
        <pt x="428" y="542" on="0"/>
        <pt x="408" y="551" on="1"/>
        <pt x="226" y="551" on="1"/>
        <pt x="226" y="321" on="1"/>
        <pt x="341" y="321" on="1"/>
        <pt x="361" y="330" on="0"/>
        <pt x="361" y="384" on="1"/>
        <pt x="382" y="384" on="1"/>
        <pt x="382" y="224" on="1"/>
        <pt x="361" y="224" on="1"/>
        <pt x="361" y="278" on="0"/>
        <pt x="341" y="287" on="1"/>
        <pt x="226" y="287" on="1"/>
        <pt x="226" y="41" on="1"/>
        <pt x="235" y="21" on="0"/>
        <pt x="289" y="21" on="1"/>
        <pt x="289" y="0" on="1"/>
      </contour>
    </TTGlyph>
    <TTGlyph name="G" xMin="33" yMin="-10" xMax="614" yMax="595">
      <contour>
        <pt x="362" y="561" on="1"/>
        <pt x="278" y="561" on="0"/>
        <pt x="172" y="402" on="0"/>
        <pt x="172" y="286" on="1"/>
        <pt x="172" y="151" on="0"/>
        <pt x="275" y="24" on="0"/>
        <pt x="348" y="24" on="1"/>
        <pt x="390" y="24" on="0"/>
        <pt x="424" y="33" on="1"/>
        <pt x="424" y="248" on="1"/>
        <pt x="415" y="268" on="0"/>
        <pt x="361" y="268" on="1"/>
        <pt x="361" y="289" on="1"/>
        <pt x="614" y="289" on="1"/>
        <pt x="614" y="268" on="1"/>
        <pt x="560" y="268" on="0"/>
        <pt x="551" y="248" on="1"/>
        <pt x="551" y="80" on="1"/>
        <pt x="534" y="49" on="0"/>
        <pt x="426" y="-10" on="0"/>
        <pt x="346" y="-10" on="1"/>
        <pt x="211" y="-10" on="0"/>
        <pt x="33" y="166" on="0"/>
        <pt x="33" y="284" on="1"/>
        <pt x="33" y="377" on="0"/>
        <pt x="133" y="522" on="0"/>
        <pt x="281" y="595" on="0"/>
        <pt x="361" y="595" on="1"/>
        <pt x="390" y="595" on="0"/>
        <pt x="482" y="565" on="0"/>
        <pt x="487" y="565" on="1"/>
        <pt x="499" y="565" on="0"/>
        <pt x="499" y="585" on="1"/>
        <pt x="522" y="585" on="1"/>
        <pt x="532" y="440" on="1"/>
        <pt x="510" y="440" on="1"/>
        <pt x="504" y="481" on="0"/>
        <pt x="404" y="561" on="0"/>
      </contour>
    </TTGlyph>
    <TTGlyph name="Gamma" xMin="36" yMin="0" xMax="449" yMax="585">
      <contour>
        <pt x="226" y="551" on="1"/>
        <pt x="226" y="41" on="1"/>
        <pt x="235" y="21" on="0"/>
        <pt x="289" y="21" on="1"/>
        <pt x="289" y="0" on="1"/>
        <pt x="36" y="0" on="1"/>
        <pt x="36" y="21" on="1"/>
        <pt x="90" y="21" on="0"/>
        <pt x="99" y="41" on="1"/>
        <pt x="99" y="544" on="1"/>
        <pt x="90" y="564" on="0"/>
        <pt x="36" y="564" on="1"/>
        <pt x="36" y="585" on="1"/>
        <pt x="449" y="585" on="1"/>
        <pt x="449" y="488" on="1"/>
        <pt x="428" y="488" on="1"/>
        <pt x="428" y="542" on="0"/>
        <pt x="408" y="551" on="1"/>
      </contour>
    </TTGlyph>
    <TTGlyph name="Gbreve" xMin="33" yMin="-10" xMax="614" yMax="754">
      <contour>
        <pt x="360" y="630" on="1"/>
        <pt x="299" y="630" on="0"/>
        <pt x="234" y="711" on="0"/>
        <pt x="234" y="754" on="1"/>
        <pt x="262" y="754" on="1"/>
        <pt x="283" y="710" on="0"/>
        <pt x="437" y="710" on="0"/>
        <pt x="458" y="754" on="1"/>
        <pt x="486" y="754" on="1"/>
        <pt x="486" y="710" on="0"/>
        <pt x="422" y="630" on="0"/>
      </contour>
      <contour>
        <pt x="362" y="561" on="1"/>
        <pt x="278" y="561" on="0"/>
        <pt x="172" y="402" on="0"/>
        <pt x="172" y="286" on="1"/>
        <pt x="172" y="151" on="0"/>
        <pt x="275" y="24" on="0"/>
        <pt x="348" y="24" on="1"/>
        <pt x="390" y="24" on="0"/>
        <pt x="424" y="33" on="1"/>
        <pt x="424" y="248" on="1"/>
        <pt x="415" y="268" on="0"/>
        <pt x="361" y="268" on="1"/>
        <pt x="361" y="289" on="1"/>
        <pt x="614" y="289" on="1"/>
        <pt x="614" y="268" on="1"/>
        <pt x="560" y="268" on="0"/>
        <pt x="551" y="248" on="1"/>
        <pt x="551" y="80" on="1"/>
        <pt x="534" y="49" on="0"/>
        <pt x="426" y="-10" on="0"/>
        <pt x="346" y="-10" on="1"/>
        <pt x="211" y="-10" on="0"/>
        <pt x="33" y="166" on="0"/>
        <pt x="33" y="284" on="1"/>
        <pt x="33" y="377" on="0"/>
        <pt x="133" y="522" on="0"/>
        <pt x="281" y="595" on="0"/>
        <pt x="361" y="595" on="1"/>
        <pt x="390" y="595" on="0"/>
        <pt x="482" y="565" on="0"/>
        <pt x="487" y="565" on="1"/>
        <pt x="499" y="565" on="0"/>
        <pt x="499" y="585" on="1"/>
        <pt x="522" y="585" on="1"/>
        <pt x="532" y="440" on="1"/>
        <pt x="510" y="440" on="1"/>
        <pt x="504" y="481" on="0"/>
        <pt x="404" y="561" on="0"/>
      </contour>
    </TTGlyph>
    <TTGlyph name="Gcaron" xMin="33" yMin="-10" xMax="614" yMax="782">
      <contour>
        <pt x="336" y="620" on="1"/>
        <pt x="242" y="782" on="1"/>
        <pt x="278" y="782" on="1"/>
        <pt x="361" y="705" on="1"/>
        <pt x="444" y="782" on="1"/>
        <pt x="480" y="782" on="1"/>
        <pt x="386" y="620" on="1"/>
      </contour>
      <contour>
        <pt x="362" y="561" on="1"/>
        <pt x="278" y="561" on="0"/>
        <pt x="172" y="402" on="0"/>
        <pt x="172" y="286" on="1"/>
        <pt x="172" y="151" on="0"/>
        <pt x="275" y="24" on="0"/>
        <pt x="348" y="24" on="1"/>
        <pt x="390" y="24" on="0"/>
        <pt x="424" y="33" on="1"/>
        <pt x="424" y="248" on="1"/>
        <pt x="415" y="268" on="0"/>
        <pt x="361" y="268" on="1"/>
        <pt x="361" y="289" on="1"/>
        <pt x="614" y="289" on="1"/>
        <pt x="614" y="268" on="1"/>
        <pt x="560" y="268" on="0"/>
        <pt x="551" y="248" on="1"/>
        <pt x="551" y="80" on="1"/>
        <pt x="534" y="49" on="0"/>
        <pt x="426" y="-10" on="0"/>
        <pt x="346" y="-10" on="1"/>
        <pt x="211" y="-10" on="0"/>
        <pt x="33" y="166" on="0"/>
        <pt x="33" y="284" on="1"/>
        <pt x="33" y="377" on="0"/>
        <pt x="133" y="522" on="0"/>
        <pt x="281" y="595" on="0"/>
        <pt x="361" y="595" on="1"/>
        <pt x="390" y="595" on="0"/>
        <pt x="482" y="565" on="0"/>
        <pt x="487" y="565" on="1"/>
        <pt x="499" y="565" on="0"/>
        <pt x="499" y="585" on="1"/>
        <pt x="522" y="585" on="1"/>
        <pt x="532" y="440" on="1"/>
        <pt x="510" y="440" on="1"/>
        <pt x="504" y="481" on="0"/>
        <pt x="404" y="561" on="0"/>
      </contour>
    </TTGlyph>
    <TTGlyph name="Gcircumflex" xMin="33" yMin="-10" xMax="614" yMax="782">
      <contour>
        <pt x="385" y="782" on="1"/>
        <pt x="479" y="620" on="1"/>
        <pt x="443" y="620" on="1"/>
        <pt x="360" y="687" on="1"/>
        <pt x="277" y="620" on="1"/>
        <pt x="241" y="620" on="1"/>
        <pt x="335" y="782" on="1"/>
      </contour>
      <contour>
        <pt x="362" y="561" on="1"/>
        <pt x="278" y="561" on="0"/>
        <pt x="172" y="402" on="0"/>
        <pt x="172" y="286" on="1"/>
        <pt x="172" y="151" on="0"/>
        <pt x="275" y="24" on="0"/>
        <pt x="348" y="24" on="1"/>
        <pt x="390" y="24" on="0"/>
        <pt x="424" y="33" on="1"/>
        <pt x="424" y="248" on="1"/>
        <pt x="415" y="268" on="0"/>
        <pt x="361" y="268" on="1"/>
        <pt x="361" y="289" on="1"/>
        <pt x="614" y="289" on="1"/>
        <pt x="614" y="268" on="1"/>
        <pt x="560" y="268" on="0"/>
        <pt x="551" y="248" on="1"/>
        <pt x="551" y="80" on="1"/>
        <pt x="534" y="49" on="0"/>
        <pt x="426" y="-10" on="0"/>
        <pt x="346" y="-10" on="1"/>
        <pt x="211" y="-10" on="0"/>
        <pt x="33" y="166" on="0"/>
        <pt x="33" y="284" on="1"/>
        <pt x="33" y="377" on="0"/>
        <pt x="133" y="522" on="0"/>
        <pt x="281" y="595" on="0"/>
        <pt x="361" y="595" on="1"/>
        <pt x="390" y="595" on="0"/>
        <pt x="482" y="565" on="0"/>
        <pt x="487" y="565" on="1"/>
        <pt x="499" y="565" on="0"/>
        <pt x="499" y="585" on="1"/>
        <pt x="522" y="585" on="1"/>
        <pt x="532" y="440" on="1"/>
        <pt x="510" y="440" on="1"/>
        <pt x="504" y="481" on="0"/>
        <pt x="404" y="561" on="0"/>
      </contour>
    </TTGlyph>
    <TTGlyph name="Gcommaaccent" xMin="34" yMin="-255" xMax="615" yMax="595">
      <contour>
        <pt x="346" y="-130" on="1"/>
        <pt x="321" y="-130" on="0"/>
        <pt x="290" y="-104" on="0"/>
        <pt x="290" y="-81" on="1"/>
        <pt x="290" y="-60" on="0"/>
        <pt x="315" y="-36" on="0"/>
        <pt x="333" y="-33" on="0"/>
        <pt x="341" y="-33" on="1"/>
        <pt x="382" y="-33" on="0"/>
        <pt x="438" y="-84" on="0"/>
        <pt x="438" y="-125" on="1"/>
        <pt x="438" y="-214" on="0"/>
        <pt x="304" y="-255" on="1"/>
        <pt x="304" y="-216" on="1"/>
        <pt x="331" y="-213" on="0"/>
        <pt x="382" y="-166" on="0"/>
        <pt x="382" y="-137" on="1"/>
        <pt x="382" y="-117" on="0"/>
        <pt x="377" y="-117" on="1"/>
        <pt x="372" y="-120" on="1"/>
        <pt x="368" y="-124" on="0"/>
        <pt x="354" y="-130" on="0"/>
      </contour>
      <contour>
        <pt x="363" y="561" on="1"/>
        <pt x="279" y="561" on="0"/>
        <pt x="173" y="402" on="0"/>
        <pt x="173" y="286" on="1"/>
        <pt x="173" y="151" on="0"/>
        <pt x="276" y="24" on="0"/>
        <pt x="349" y="24" on="1"/>
        <pt x="390" y="24" on="0"/>
        <pt x="425" y="33" on="1"/>
        <pt x="425" y="248" on="1"/>
        <pt x="416" y="268" on="0"/>
        <pt x="362" y="268" on="1"/>
        <pt x="362" y="289" on="1"/>
        <pt x="615" y="289" on="1"/>
        <pt x="615" y="268" on="1"/>
        <pt x="561" y="268" on="0"/>
        <pt x="552" y="248" on="1"/>
        <pt x="552" y="80" on="1"/>
        <pt x="535" y="49" on="0"/>
        <pt x="427" y="-10" on="0"/>
        <pt x="347" y="-10" on="1"/>
        <pt x="212" y="-10" on="0"/>
        <pt x="34" y="166" on="0"/>
        <pt x="34" y="284" on="1"/>
        <pt x="34" y="377" on="0"/>
        <pt x="134" y="522" on="0"/>
        <pt x="282" y="595" on="0"/>
        <pt x="362" y="595" on="1"/>
        <pt x="392" y="595" on="0"/>
        <pt x="482" y="565" on="0"/>
        <pt x="488" y="565" on="1"/>
        <pt x="500" y="565" on="0"/>
        <pt x="500" y="585" on="1"/>
        <pt x="523" y="585" on="1"/>
        <pt x="533" y="440" on="1"/>
        <pt x="511" y="440" on="1"/>
        <pt x="505" y="481" on="0"/>
        <pt x="405" y="561" on="0"/>
      </contour>
    </TTGlyph>
    <TTGlyph name="Gdotaccent" xMin="33" yMin="-10" xMax="614" yMax="743">
      <contour>
        <pt x="299" y="656" on="0"/>
        <pt x="299" y="708" on="0"/>
        <pt x="334" y="743" on="0"/>
        <pt x="386" y="743" on="0"/>
        <pt x="421" y="708" on="0"/>
        <pt x="421" y="656" on="0"/>
        <pt x="386" y="621" on="0"/>
        <pt x="334" y="621" on="0"/>
      </contour>
      <contour>
        <pt x="362" y="561" on="1"/>
        <pt x="278" y="561" on="0"/>
        <pt x="172" y="402" on="0"/>
        <pt x="172" y="286" on="1"/>
        <pt x="172" y="151" on="0"/>
        <pt x="275" y="24" on="0"/>
        <pt x="348" y="24" on="1"/>
        <pt x="390" y="24" on="0"/>
        <pt x="424" y="33" on="1"/>
        <pt x="424" y="248" on="1"/>
        <pt x="415" y="268" on="0"/>
        <pt x="361" y="268" on="1"/>
        <pt x="361" y="289" on="1"/>
        <pt x="614" y="289" on="1"/>
        <pt x="614" y="268" on="1"/>
        <pt x="560" y="268" on="0"/>
        <pt x="551" y="248" on="1"/>
        <pt x="551" y="80" on="1"/>
        <pt x="534" y="49" on="0"/>
        <pt x="426" y="-10" on="0"/>
        <pt x="346" y="-10" on="1"/>
        <pt x="211" y="-10" on="0"/>
        <pt x="33" y="166" on="0"/>
        <pt x="33" y="284" on="1"/>
        <pt x="33" y="377" on="0"/>
        <pt x="133" y="522" on="0"/>
        <pt x="281" y="595" on="0"/>
        <pt x="361" y="595" on="1"/>
        <pt x="390" y="595" on="0"/>
        <pt x="482" y="565" on="0"/>
        <pt x="487" y="565" on="1"/>
        <pt x="499" y="565" on="0"/>
        <pt x="499" y="585" on="1"/>
        <pt x="522" y="585" on="1"/>
        <pt x="532" y="440" on="1"/>
        <pt x="510" y="440" on="1"/>
        <pt x="504" y="481" on="0"/>
        <pt x="404" y="561" on="0"/>
      </contour>
    </TTGlyph>
    <TTGlyph name="H" xMin="36" yMin="0" xMax="637" yMax="585">
      <contour>
        <pt x="36" y="0" on="1"/>
        <pt x="36" y="21" on="1"/>
        <pt x="90" y="21" on="0"/>
        <pt x="99" y="41" on="1"/>
        <pt x="99" y="544" on="1"/>
        <pt x="90" y="564" on="0"/>
        <pt x="36" y="564" on="1"/>
        <pt x="36" y="585" on="1"/>
        <pt x="289" y="585" on="1"/>
        <pt x="289" y="564" on="1"/>
        <pt x="235" y="564" on="0"/>
        <pt x="226" y="544" on="1"/>
        <pt x="226" y="321" on="1"/>
        <pt x="447" y="321" on="1"/>
        <pt x="447" y="544" on="1"/>
        <pt x="438" y="564" on="0"/>
        <pt x="384" y="564" on="1"/>
        <pt x="384" y="585" on="1"/>
        <pt x="637" y="585" on="1"/>
        <pt x="637" y="564" on="1"/>
        <pt x="583" y="564" on="0"/>
        <pt x="574" y="544" on="1"/>
        <pt x="574" y="41" on="1"/>
        <pt x="583" y="21" on="0"/>
        <pt x="637" y="21" on="1"/>
        <pt x="637" y="0" on="1"/>
        <pt x="384" y="0" on="1"/>
        <pt x="384" y="21" on="1"/>
        <pt x="438" y="21" on="0"/>
        <pt x="447" y="41" on="1"/>
        <pt x="447" y="287" on="1"/>
        <pt x="226" y="287" on="1"/>
        <pt x="226" y="41" on="1"/>
        <pt x="235" y="21" on="0"/>
        <pt x="289" y="21" on="1"/>
        <pt x="289" y="0" on="1"/>
      </contour>
    </TTGlyph>
    <TTGlyph name="Hbar" xMin="36" yMin="0" xMax="637" yMax="585">
      <contour>
        <pt x="48" y="438" on="1"/>
        <pt x="48" y="473" on="1"/>
        <pt x="99" y="473" on="1"/>
        <pt x="99" y="544" on="1"/>
        <pt x="90" y="564" on="0"/>
        <pt x="36" y="564" on="1"/>
        <pt x="36" y="585" on="1"/>
        <pt x="289" y="585" on="1"/>
        <pt x="289" y="564" on="1"/>
        <pt x="235" y="564" on="0"/>
        <pt x="226" y="544" on="1"/>
        <pt x="226" y="473" on="1"/>
        <pt x="447" y="473" on="1"/>
        <pt x="447" y="544" on="1"/>
        <pt x="438" y="564" on="0"/>
        <pt x="384" y="564" on="1"/>
        <pt x="384" y="585" on="1"/>
        <pt x="637" y="585" on="1"/>
        <pt x="637" y="564" on="1"/>
        <pt x="583" y="564" on="0"/>
        <pt x="574" y="544" on="1"/>
        <pt x="574" y="473" on="1"/>
        <pt x="630" y="473" on="1"/>
        <pt x="630" y="438" on="1"/>
        <pt x="574" y="438" on="1"/>
        <pt x="574" y="41" on="1"/>
        <pt x="583" y="21" on="0"/>
        <pt x="637" y="21" on="1"/>
        <pt x="637" y="0" on="1"/>
        <pt x="384" y="0" on="1"/>
        <pt x="384" y="21" on="1"/>
        <pt x="438" y="21" on="0"/>
        <pt x="447" y="41" on="1"/>
        <pt x="447" y="287" on="1"/>
        <pt x="226" y="287" on="1"/>
        <pt x="226" y="41" on="1"/>
        <pt x="235" y="21" on="0"/>
        <pt x="289" y="21" on="1"/>
        <pt x="289" y="0" on="1"/>
        <pt x="36" y="0" on="1"/>
        <pt x="36" y="21" on="1"/>
        <pt x="90" y="21" on="0"/>
        <pt x="99" y="41" on="1"/>
        <pt x="99" y="438" on="1"/>
      </contour>
      <contour>
        <pt x="447" y="438" on="1"/>
        <pt x="226" y="438" on="1"/>
        <pt x="226" y="321" on="1"/>
        <pt x="447" y="321" on="1"/>
      </contour>
    </TTGlyph>
    <TTGlyph name="Hcircumflex" xMin="36" yMin="0" xMax="637" yMax="782">
      <contour>
        <pt x="360" y="782" on="1"/>
        <pt x="454" y="620" on="1"/>
        <pt x="418" y="620" on="1"/>
        <pt x="335" y="687" on="1"/>
        <pt x="252" y="620" on="1"/>
        <pt x="216" y="620" on="1"/>
        <pt x="310" y="782" on="1"/>
      </contour>
      <contour>
        <pt x="36" y="0" on="1"/>
        <pt x="36" y="21" on="1"/>
        <pt x="90" y="21" on="0"/>
        <pt x="99" y="41" on="1"/>
        <pt x="99" y="544" on="1"/>
        <pt x="90" y="564" on="0"/>
        <pt x="36" y="564" on="1"/>
        <pt x="36" y="585" on="1"/>
        <pt x="289" y="585" on="1"/>
        <pt x="289" y="564" on="1"/>
        <pt x="235" y="564" on="0"/>
        <pt x="226" y="544" on="1"/>
        <pt x="226" y="321" on="1"/>
        <pt x="447" y="321" on="1"/>
        <pt x="447" y="544" on="1"/>
        <pt x="438" y="564" on="0"/>
        <pt x="384" y="564" on="1"/>
        <pt x="384" y="585" on="1"/>
        <pt x="637" y="585" on="1"/>
        <pt x="637" y="564" on="1"/>
        <pt x="583" y="564" on="0"/>
        <pt x="574" y="544" on="1"/>
        <pt x="574" y="41" on="1"/>
        <pt x="583" y="21" on="0"/>
        <pt x="637" y="21" on="1"/>
        <pt x="637" y="0" on="1"/>
        <pt x="384" y="0" on="1"/>
        <pt x="384" y="21" on="1"/>
        <pt x="438" y="21" on="0"/>
        <pt x="447" y="41" on="1"/>
        <pt x="447" y="287" on="1"/>
        <pt x="226" y="287" on="1"/>
        <pt x="226" y="41" on="1"/>
        <pt x="235" y="21" on="0"/>
        <pt x="289" y="21" on="1"/>
        <pt x="289" y="0" on="1"/>
      </contour>
    </TTGlyph>
    <TTGlyph name="I" xMin="36" yMin="0" xMax="289" yMax="585">
      <contour>
        <pt x="36" y="0" on="1"/>
        <pt x="36" y="21" on="1"/>
        <pt x="90" y="21" on="0"/>
        <pt x="99" y="41" on="1"/>
        <pt x="99" y="544" on="1"/>
        <pt x="90" y="564" on="0"/>
        <pt x="36" y="564" on="1"/>
        <pt x="36" y="585" on="1"/>
        <pt x="289" y="585" on="1"/>
        <pt x="289" y="564" on="1"/>
        <pt x="235" y="564" on="0"/>
        <pt x="226" y="544" on="1"/>
        <pt x="226" y="41" on="1"/>
        <pt x="235" y="21" on="0"/>
        <pt x="289" y="21" on="1"/>
        <pt x="289" y="0" on="1"/>
      </contour>
    </TTGlyph>
    <TTGlyph name="IJ" xMin="36" yMin="-10" xMax="710" yMax="585">
      <contour>
        <pt x="36" y="0" on="1"/>
        <pt x="36" y="21" on="1"/>
        <pt x="90" y="21" on="0"/>
        <pt x="99" y="41" on="1"/>
        <pt x="99" y="544" on="1"/>
        <pt x="90" y="564" on="0"/>
        <pt x="36" y="564" on="1"/>
        <pt x="36" y="585" on="1"/>
        <pt x="289" y="585" on="1"/>
        <pt x="289" y="564" on="1"/>
        <pt x="235" y="564" on="0"/>
        <pt x="226" y="544" on="1"/>
        <pt x="226" y="41" on="1"/>
        <pt x="235" y="21" on="0"/>
        <pt x="289" y="21" on="1"/>
        <pt x="289" y="0" on="1"/>
      </contour>
      <contour>
        <pt x="647" y="218" on="1"/>
        <pt x="647" y="102" on="0"/>
        <pt x="554" y="-10" on="0"/>
        <pt x="456" y="-10" on="1"/>
        <pt x="385" y="-10" on="0"/>
        <pt x="306" y="47" on="0"/>
        <pt x="306" y="80" on="1"/>
        <pt x="306" y="103" on="0"/>
        <pt x="335" y="140" on="0"/>
        <pt x="354" y="140" on="1"/>
        <pt x="371" y="140" on="0"/>
        <pt x="404" y="113" on="0"/>
        <pt x="404" y="95" on="1"/>
        <pt x="404" y="61" on="0"/>
        <pt x="379" y="53" on="1"/>
        <pt x="380" y="52" on="0"/>
        <pt x="387" y="43" on="0"/>
        <pt x="394" y="38" on="0"/>
        <pt x="408" y="30" on="0"/>
        <pt x="431" y="26" on="0"/>
        <pt x="446" y="26" on="1"/>
        <pt x="490" y="26" on="0"/>
        <pt x="520" y="133" on="0"/>
        <pt x="520" y="254" on="1"/>
        <pt x="520" y="544" on="1"/>
        <pt x="511" y="564" on="0"/>
        <pt x="457" y="564" on="1"/>
        <pt x="457" y="585" on="1"/>
        <pt x="710" y="585" on="1"/>
        <pt x="710" y="564" on="1"/>
        <pt x="656" y="564" on="0"/>
        <pt x="647" y="544" on="1"/>
      </contour>
    </TTGlyph>
    <TTGlyph name="Iacute" xMin="36" yMin="0" xMax="303" yMax="782">
      <component glyphName="acutecomb" x="421" y="120" flags="0x1004"/>
      <component glyphName="I" x="0" y="0" flags="0x1204"/>
    </TTGlyph>
    <TTGlyph name="Ibreve" xMin="36" yMin="0" xMax="293" yMax="754">
      <contour>
        <pt x="167" y="630" on="1"/>
        <pt x="106" y="630" on="0"/>
        <pt x="41" y="711" on="0"/>
        <pt x="41" y="754" on="1"/>
        <pt x="69" y="754" on="1"/>
        <pt x="90" y="710" on="0"/>
        <pt x="244" y="710" on="0"/>
        <pt x="265" y="754" on="1"/>
        <pt x="293" y="754" on="1"/>
        <pt x="293" y="710" on="0"/>
        <pt x="229" y="630" on="0"/>
      </contour>
      <contour>
        <pt x="36" y="0" on="1"/>
        <pt x="36" y="21" on="1"/>
        <pt x="90" y="21" on="0"/>
        <pt x="99" y="41" on="1"/>
        <pt x="99" y="544" on="1"/>
        <pt x="90" y="564" on="0"/>
        <pt x="36" y="564" on="1"/>
        <pt x="36" y="585" on="1"/>
        <pt x="289" y="585" on="1"/>
        <pt x="289" y="564" on="1"/>
        <pt x="235" y="564" on="0"/>
        <pt x="226" y="544" on="1"/>
        <pt x="226" y="41" on="1"/>
        <pt x="235" y="21" on="0"/>
        <pt x="289" y="21" on="1"/>
        <pt x="289" y="0" on="1"/>
      </contour>
    </TTGlyph>
    <TTGlyph name="Icircumflex" xMin="36" yMin="0" xMax="289" yMax="782">
      <component glyphName="uni0302" x="421" y="120" flags="0x1004"/>
      <component glyphName="I" x="0" y="0" flags="0x1204"/>
    </TTGlyph>
    <TTGlyph name="Idieresis" xMin="13" yMin="0" xMax="321" yMax="738">
      <component glyphName="uni0308" x="421" y="120" flags="0x1004"/>
      <component glyphName="I" x="0" y="0" flags="0x1204"/>
    </TTGlyph>
    <TTGlyph name="Idotaccent" xMin="36" yMin="0" xMax="289" yMax="743">
      <contour>
        <pt x="106" y="656" on="0"/>
        <pt x="106" y="708" on="0"/>
        <pt x="142" y="743" on="0"/>
        <pt x="192" y="743" on="0"/>
        <pt x="228" y="708" on="0"/>
        <pt x="228" y="656" on="0"/>
        <pt x="192" y="621" on="0"/>
        <pt x="142" y="621" on="0"/>
      </contour>
      <contour>
        <pt x="36" y="0" on="1"/>
        <pt x="36" y="21" on="1"/>
        <pt x="90" y="21" on="0"/>
        <pt x="99" y="41" on="1"/>
        <pt x="99" y="544" on="1"/>
        <pt x="90" y="564" on="0"/>
        <pt x="36" y="564" on="1"/>
        <pt x="36" y="585" on="1"/>
        <pt x="289" y="585" on="1"/>
        <pt x="289" y="564" on="1"/>
        <pt x="235" y="564" on="0"/>
        <pt x="226" y="544" on="1"/>
        <pt x="226" y="41" on="1"/>
        <pt x="235" y="21" on="0"/>
        <pt x="289" y="21" on="1"/>
        <pt x="289" y="0" on="1"/>
      </contour>
    </TTGlyph>
    <TTGlyph name="Igrave" xMin="13" yMin="0" xMax="289" yMax="782">
      <component glyphName="gravecomb" x="421" y="120" flags="0x1004"/>
      <component glyphName="I" x="0" y="0" flags="0x1204"/>
    </TTGlyph>
    <TTGlyph name="Imacron" xMin="29" yMin="0" xMax="293" yMax="688">
      <contour>
        <pt x="29" y="688" on="1"/>
        <pt x="293" y="688" on="1"/>
        <pt x="293" y="634" on="1"/>
        <pt x="29" y="634" on="1"/>
      </contour>
      <contour>
        <pt x="36" y="0" on="1"/>
        <pt x="36" y="21" on="1"/>
        <pt x="90" y="21" on="0"/>
        <pt x="99" y="41" on="1"/>
        <pt x="99" y="544" on="1"/>
        <pt x="90" y="564" on="0"/>
        <pt x="36" y="564" on="1"/>
        <pt x="36" y="585" on="1"/>
        <pt x="289" y="585" on="1"/>
        <pt x="289" y="564" on="1"/>
        <pt x="235" y="564" on="0"/>
        <pt x="226" y="544" on="1"/>
        <pt x="226" y="41" on="1"/>
        <pt x="235" y="21" on="0"/>
        <pt x="289" y="21" on="1"/>
        <pt x="289" y="0" on="1"/>
      </contour>
    </TTGlyph>
    <TTGlyph name="Iogonek" xMin="36" yMin="-200" xMax="334" yMax="585">
      <contour>
        <pt x="36" y="0" on="1"/>
        <pt x="36" y="21" on="1"/>
        <pt x="90" y="21" on="0"/>
        <pt x="99" y="41" on="1"/>
        <pt x="99" y="544" on="1"/>
        <pt x="90" y="564" on="0"/>
        <pt x="36" y="564" on="1"/>
        <pt x="36" y="585" on="1"/>
        <pt x="289" y="585" on="1"/>
        <pt x="289" y="564" on="1"/>
        <pt x="235" y="564" on="0"/>
        <pt x="226" y="544" on="1"/>
        <pt x="226" y="41" on="1"/>
        <pt x="235" y="21" on="0"/>
        <pt x="289" y="21" on="1"/>
        <pt x="289" y="0" on="1"/>
        <pt x="235" y="0" on="1"/>
        <pt x="209" y="-31" on="0"/>
        <pt x="209" y="-68" on="1"/>
        <pt x="209" y="-114" on="0"/>
        <pt x="255" y="-166" on="0"/>
        <pt x="292" y="-166" on="1"/>
        <pt x="300" y="-166" on="0"/>
        <pt x="316" y="-158" on="0"/>
        <pt x="320" y="-154" on="1"/>
        <pt x="323" y="-150" on="1"/>
        <pt x="334" y="-168" on="1"/>
        <pt x="332" y="-172" on="0"/>
        <pt x="322" y="-182" on="0"/>
        <pt x="281" y="-200" on="0"/>
        <pt x="255" y="-200" on="1"/>
        <pt x="205" y="-200" on="0"/>
        <pt x="150" y="-148" on="0"/>
        <pt x="150" y="-103" on="1"/>
        <pt x="150" y="-45" on="0"/>
        <pt x="198" y="0" on="1"/>
      </contour>
    </TTGlyph>
    <TTGlyph name="Itilde" xMin="18" yMin="0" xMax="319" yMax="742">
      <contour>
        <pt x="242" y="610" on="1"/>
        <pt x="220" y="610" on="0"/>
        <pt x="101" y="669" on="0"/>
        <pt x="87" y="669" on="1"/>
        <pt x="57" y="669" on="0"/>
        <pt x="37" y="648" on="0"/>
        <pt x="37" y="620" on="1"/>
        <pt x="18" y="620" on="1"/>
        <pt x="18" y="685" on="0"/>
        <pt x="61" y="742" on="0"/>
        <pt x="94" y="742" on="1"/>
        <pt x="116" y="742" on="0"/>
        <pt x="236" y="683" on="0"/>
        <pt x="250" y="683" on="1"/>
        <pt x="280" y="683" on="0"/>
        <pt x="300" y="704" on="0"/>
        <pt x="300" y="732" on="1"/>
        <pt x="319" y="732" on="1"/>
        <pt x="319" y="667" on="0"/>
        <pt x="275" y="610" on="0"/>
      </contour>
      <contour>
        <pt x="36" y="0" on="1"/>
        <pt x="36" y="21" on="1"/>
        <pt x="90" y="21" on="0"/>
        <pt x="99" y="41" on="1"/>
        <pt x="99" y="544" on="1"/>
        <pt x="90" y="564" on="0"/>
        <pt x="36" y="564" on="1"/>
        <pt x="36" y="585" on="1"/>
        <pt x="289" y="585" on="1"/>
        <pt x="289" y="564" on="1"/>
        <pt x="235" y="564" on="0"/>
        <pt x="226" y="544" on="1"/>
        <pt x="226" y="41" on="1"/>
        <pt x="235" y="21" on="0"/>
        <pt x="289" y="21" on="1"/>
        <pt x="289" y="0" on="1"/>
      </contour>
    </TTGlyph>
    <TTGlyph name="J" xMin="1" yMin="-10" xMax="405" yMax="585">
      <contour>
        <pt x="342" y="218" on="1"/>
        <pt x="342" y="102" on="0"/>
        <pt x="249" y="-10" on="0"/>
        <pt x="151" y="-10" on="1"/>
        <pt x="80" y="-10" on="0"/>
        <pt x="1" y="47" on="0"/>
        <pt x="1" y="80" on="1"/>
        <pt x="1" y="103" on="0"/>
        <pt x="30" y="140" on="0"/>
        <pt x="49" y="140" on="1"/>
        <pt x="66" y="140" on="0"/>
        <pt x="99" y="113" on="0"/>
        <pt x="99" y="95" on="1"/>
        <pt x="99" y="61" on="0"/>
        <pt x="74" y="53" on="1"/>
        <pt x="75" y="52" on="0"/>
        <pt x="82" y="43" on="0"/>
        <pt x="89" y="38" on="0"/>
        <pt x="103" y="30" on="0"/>
        <pt x="126" y="26" on="0"/>
        <pt x="141" y="26" on="1"/>
        <pt x="185" y="26" on="0"/>
        <pt x="215" y="133" on="0"/>
        <pt x="215" y="254" on="1"/>
        <pt x="215" y="544" on="1"/>
        <pt x="206" y="564" on="0"/>
        <pt x="152" y="564" on="1"/>
        <pt x="152" y="585" on="1"/>
        <pt x="405" y="585" on="1"/>
        <pt x="405" y="564" on="1"/>
        <pt x="351" y="564" on="0"/>
        <pt x="342" y="544" on="1"/>
      </contour>
    </TTGlyph>
    <TTGlyph name="Jcircumflex" xMin="1" yMin="-10" xMax="405" yMax="782">
      <contour>
        <pt x="307" y="782" on="1"/>
        <pt x="401" y="620" on="1"/>
        <pt x="365" y="620" on="1"/>
        <pt x="282" y="687" on="1"/>
        <pt x="199" y="620" on="1"/>
        <pt x="163" y="620" on="1"/>
        <pt x="257" y="782" on="1"/>
      </contour>
      <contour>
        <pt x="342" y="218" on="1"/>
        <pt x="342" y="102" on="0"/>
        <pt x="249" y="-10" on="0"/>
        <pt x="151" y="-10" on="1"/>
        <pt x="80" y="-10" on="0"/>
        <pt x="1" y="47" on="0"/>
        <pt x="1" y="80" on="1"/>
        <pt x="1" y="103" on="0"/>
        <pt x="30" y="140" on="0"/>
        <pt x="49" y="140" on="1"/>
        <pt x="66" y="140" on="0"/>
        <pt x="99" y="113" on="0"/>
        <pt x="99" y="95" on="1"/>
        <pt x="99" y="61" on="0"/>
        <pt x="74" y="53" on="1"/>
        <pt x="75" y="52" on="0"/>
        <pt x="82" y="43" on="0"/>
        <pt x="89" y="38" on="0"/>
        <pt x="103" y="30" on="0"/>
        <pt x="126" y="26" on="0"/>
        <pt x="141" y="26" on="1"/>
        <pt x="185" y="26" on="0"/>
        <pt x="215" y="133" on="0"/>
        <pt x="215" y="254" on="1"/>
        <pt x="215" y="544" on="1"/>
        <pt x="206" y="564" on="0"/>
        <pt x="152" y="564" on="1"/>
        <pt x="152" y="585" on="1"/>
        <pt x="405" y="585" on="1"/>
        <pt x="405" y="564" on="1"/>
        <pt x="351" y="564" on="0"/>
        <pt x="342" y="544" on="1"/>
      </contour>
    </TTGlyph>
    <TTGlyph name="K" xMin="36" yMin="0" xMax="650" yMax="585">
      <contour>
        <pt x="36" y="0" on="1"/>
        <pt x="36" y="21" on="1"/>
        <pt x="90" y="21" on="0"/>
        <pt x="99" y="41" on="1"/>
        <pt x="99" y="544" on="1"/>
        <pt x="90" y="564" on="0"/>
        <pt x="36" y="564" on="1"/>
        <pt x="36" y="585" on="1"/>
        <pt x="287" y="585" on="1"/>
        <pt x="287" y="564" on="1"/>
        <pt x="233" y="564" on="0"/>
        <pt x="224" y="544" on="1"/>
        <pt x="224" y="41" on="1"/>
        <pt x="233" y="21" on="0"/>
        <pt x="287" y="21" on="1"/>
        <pt x="287" y="0" on="1"/>
      </contour>
      <contour>
        <pt x="420" y="0" on="1"/>
        <pt x="420" y="21" on="1"/>
        <pt x="444" y="21" on="0"/>
        <pt x="457" y="24" on="1"/>
        <pt x="229" y="314" on="1"/>
        <pt x="474" y="557" on="1"/>
        <pt x="460" y="564" on="0"/>
        <pt x="423" y="564" on="1"/>
        <pt x="423" y="585" on="1"/>
        <pt x="580" y="585" on="1"/>
        <pt x="580" y="564" on="1"/>
        <pt x="571" y="564" on="0"/>
        <pt x="557" y="563" on="0"/>
        <pt x="545" y="559" on="0"/>
        <pt x="537" y="557" on="0"/>
        <pt x="529" y="551" on="0"/>
        <pt x="526" y="549" on="0"/>
        <pt x="522" y="545" on="1"/>
        <pt x="518" y="541" on="1"/>
        <pt x="336" y="362" on="1"/>
        <pt x="587" y="37" on="1"/>
        <pt x="600" y="21" on="0"/>
        <pt x="650" y="21" on="1"/>
        <pt x="650" y="0" on="1"/>
      </contour>
    </TTGlyph>
    <TTGlyph name="Kcommaaccent" xMin="35" yMin="-255" xMax="649" yMax="585">
      <contour>
        <pt x="349" y="-130" on="1"/>
        <pt x="324" y="-130" on="0"/>
        <pt x="293" y="-104" on="0"/>
        <pt x="293" y="-81" on="1"/>
        <pt x="293" y="-60" on="0"/>
        <pt x="318" y="-36" on="0"/>
        <pt x="336" y="-33" on="0"/>
        <pt x="344" y="-33" on="1"/>
        <pt x="385" y="-33" on="0"/>
        <pt x="441" y="-84" on="0"/>
        <pt x="441" y="-125" on="1"/>
        <pt x="441" y="-214" on="0"/>
        <pt x="307" y="-255" on="1"/>
        <pt x="307" y="-216" on="1"/>
        <pt x="334" y="-213" on="0"/>
        <pt x="385" y="-166" on="0"/>
        <pt x="385" y="-137" on="1"/>
        <pt x="385" y="-117" on="0"/>
        <pt x="380" y="-117" on="1"/>
        <pt x="376" y="-120" on="1"/>
        <pt x="371" y="-124" on="0"/>
        <pt x="357" y="-130" on="0"/>
      </contour>
      <contour>
        <pt x="35" y="0" on="1"/>
        <pt x="35" y="21" on="1"/>
        <pt x="89" y="21" on="0"/>
        <pt x="98" y="41" on="1"/>
        <pt x="98" y="544" on="1"/>
        <pt x="89" y="564" on="0"/>
        <pt x="35" y="564" on="1"/>
        <pt x="35" y="585" on="1"/>
        <pt x="286" y="585" on="1"/>
        <pt x="286" y="564" on="1"/>
        <pt x="232" y="564" on="0"/>
        <pt x="223" y="544" on="1"/>
        <pt x="223" y="41" on="1"/>
        <pt x="232" y="21" on="0"/>
        <pt x="286" y="21" on="1"/>
        <pt x="286" y="0" on="1"/>
      </contour>
      <contour>
        <pt x="419" y="0" on="1"/>
        <pt x="419" y="21" on="1"/>
        <pt x="442" y="21" on="0"/>
        <pt x="456" y="24" on="1"/>
        <pt x="228" y="314" on="1"/>
        <pt x="473" y="557" on="1"/>
        <pt x="459" y="564" on="0"/>
        <pt x="422" y="564" on="1"/>
        <pt x="422" y="585" on="1"/>
        <pt x="579" y="585" on="1"/>
        <pt x="579" y="564" on="1"/>
        <pt x="570" y="564" on="0"/>
        <pt x="556" y="563" on="0"/>
        <pt x="544" y="559" on="0"/>
        <pt x="536" y="557" on="0"/>
        <pt x="528" y="551" on="0"/>
        <pt x="525" y="549" on="0"/>
        <pt x="521" y="545" on="1"/>
        <pt x="517" y="541" on="1"/>
        <pt x="335" y="362" on="1"/>
        <pt x="586" y="37" on="1"/>
        <pt x="599" y="21" on="0"/>
        <pt x="649" y="21" on="1"/>
        <pt x="649" y="0" on="1"/>
      </contour>
    </TTGlyph>
    <TTGlyph name="L" xMin="36" yMin="0" xMax="499" yMax="585">
      <contour>
        <pt x="36" y="0" on="1"/>
        <pt x="36" y="21" on="1"/>
        <pt x="90" y="21" on="0"/>
        <pt x="99" y="41" on="1"/>
        <pt x="99" y="544" on="1"/>
        <pt x="90" y="564" on="0"/>
        <pt x="36" y="564" on="1"/>
        <pt x="36" y="585" on="1"/>
        <pt x="289" y="585" on="1"/>
        <pt x="289" y="564" on="1"/>
        <pt x="235" y="564" on="0"/>
        <pt x="226" y="544" on="1"/>
        <pt x="226" y="34" on="1"/>
        <pt x="434" y="34" on="1"/>
        <pt x="459" y="45" on="0"/>
        <pt x="479" y="97" on="1"/>
        <pt x="499" y="97" on="1"/>
        <pt x="475" y="0" on="1"/>
      </contour>
    </TTGlyph>
    <TTGlyph name="Lacute" xMin="36" yMin="0" xMax="499" yMax="782">
      <contour>
        <pt x="173" y="782" on="1"/>
        <pt x="299" y="782" on="1"/>
        <pt x="165" y="620" on="1"/>
        <pt x="119" y="620" on="1"/>
      </contour>
      <contour>
        <pt x="36" y="0" on="1"/>
        <pt x="36" y="21" on="1"/>
        <pt x="90" y="21" on="0"/>
        <pt x="99" y="41" on="1"/>
        <pt x="99" y="544" on="1"/>
        <pt x="90" y="564" on="0"/>
        <pt x="36" y="564" on="1"/>
        <pt x="36" y="585" on="1"/>
        <pt x="289" y="585" on="1"/>
        <pt x="289" y="564" on="1"/>
        <pt x="235" y="564" on="0"/>
        <pt x="226" y="544" on="1"/>
        <pt x="226" y="34" on="1"/>
        <pt x="434" y="34" on="1"/>
        <pt x="459" y="45" on="0"/>
        <pt x="479" y="97" on="1"/>
        <pt x="499" y="97" on="1"/>
        <pt x="475" y="0" on="1"/>
      </contour>
    </TTGlyph>
    <TTGlyph name="Lcaron" xMin="36" yMin="0" xMax="499" yMax="600">
      <contour>
        <pt x="36" y="0" on="1"/>
        <pt x="36" y="21" on="1"/>
        <pt x="90" y="21" on="0"/>
        <pt x="99" y="41" on="1"/>
        <pt x="99" y="544" on="1"/>
        <pt x="90" y="564" on="0"/>
        <pt x="36" y="564" on="1"/>
        <pt x="36" y="585" on="1"/>
        <pt x="289" y="585" on="1"/>
        <pt x="289" y="564" on="1"/>
        <pt x="235" y="564" on="0"/>
        <pt x="226" y="544" on="1"/>
        <pt x="226" y="34" on="1"/>
        <pt x="434" y="34" on="1"/>
        <pt x="459" y="45" on="0"/>
        <pt x="479" y="97" on="1"/>
        <pt x="499" y="97" on="1"/>
        <pt x="475" y="0" on="1"/>
      </contour>
      <contour>
        <pt x="371" y="503" on="1"/>
        <pt x="346" y="503" on="0"/>
        <pt x="315" y="529" on="0"/>
        <pt x="315" y="552" on="1"/>
        <pt x="315" y="573" on="0"/>
        <pt x="340" y="597" on="0"/>
        <pt x="358" y="600" on="0"/>
        <pt x="366" y="600" on="1"/>
        <pt x="407" y="600" on="0"/>
        <pt x="463" y="549" on="0"/>
        <pt x="463" y="508" on="1"/>
        <pt x="463" y="419" on="0"/>
        <pt x="329" y="378" on="1"/>
        <pt x="329" y="417" on="1"/>
        <pt x="356" y="420" on="0"/>
        <pt x="407" y="467" on="0"/>
        <pt x="407" y="496" on="1"/>
        <pt x="407" y="516" on="0"/>
        <pt x="402" y="516" on="1"/>
        <pt x="398" y="513" on="1"/>
        <pt x="393" y="510" on="0"/>
        <pt x="379" y="503" on="0"/>
      </contour>
    </TTGlyph>
    <TTGlyph name="Lcommaaccent" xMin="35" yMin="-255" xMax="498" yMax="585">
      <contour>
        <pt x="281" y="-130" on="1"/>
        <pt x="256" y="-130" on="0"/>
        <pt x="225" y="-104" on="0"/>
        <pt x="225" y="-81" on="1"/>
        <pt x="225" y="-60" on="0"/>
        <pt x="250" y="-36" on="0"/>
        <pt x="268" y="-33" on="0"/>
        <pt x="276" y="-33" on="1"/>
        <pt x="317" y="-33" on="0"/>
        <pt x="373" y="-84" on="0"/>
        <pt x="373" y="-125" on="1"/>
        <pt x="373" y="-214" on="0"/>
        <pt x="239" y="-255" on="1"/>
        <pt x="239" y="-216" on="1"/>
        <pt x="266" y="-213" on="0"/>
        <pt x="317" y="-166" on="0"/>
        <pt x="317" y="-137" on="1"/>
        <pt x="317" y="-117" on="0"/>
        <pt x="312" y="-117" on="1"/>
        <pt x="308" y="-120" on="1"/>
        <pt x="303" y="-124" on="0"/>
        <pt x="289" y="-130" on="0"/>
      </contour>
      <contour>
        <pt x="35" y="0" on="1"/>
        <pt x="35" y="21" on="1"/>
        <pt x="89" y="21" on="0"/>
        <pt x="98" y="41" on="1"/>
        <pt x="98" y="544" on="1"/>
        <pt x="89" y="564" on="0"/>
        <pt x="35" y="564" on="1"/>
        <pt x="35" y="585" on="1"/>
        <pt x="288" y="585" on="1"/>
        <pt x="288" y="564" on="1"/>
        <pt x="234" y="564" on="0"/>
        <pt x="225" y="544" on="1"/>
        <pt x="225" y="34" on="1"/>
        <pt x="433" y="34" on="1"/>
        <pt x="458" y="45" on="0"/>
        <pt x="478" y="97" on="1"/>
        <pt x="498" y="97" on="1"/>
        <pt x="474" y="0" on="1"/>
      </contour>
    </TTGlyph>
    <TTGlyph name="Ldot" xMin="36" yMin="0" xMax="499" yMax="585">
      <contour>
        <pt x="36" y="0" on="1"/>
        <pt x="36" y="21" on="1"/>
        <pt x="90" y="21" on="0"/>
        <pt x="99" y="41" on="1"/>
        <pt x="99" y="544" on="1"/>
        <pt x="90" y="564" on="0"/>
        <pt x="36" y="564" on="1"/>
        <pt x="36" y="585" on="1"/>
        <pt x="289" y="585" on="1"/>
        <pt x="289" y="564" on="1"/>
        <pt x="235" y="564" on="0"/>
        <pt x="226" y="544" on="1"/>
        <pt x="226" y="34" on="1"/>
        <pt x="434" y="34" on="1"/>
        <pt x="459" y="45" on="0"/>
        <pt x="479" y="97" on="1"/>
        <pt x="499" y="97" on="1"/>
        <pt x="475" y="0" on="1"/>
      </contour>
      <contour>
        <pt x="306" y="292" on="0"/>
        <pt x="306" y="344" on="0"/>
        <pt x="342" y="379" on="0"/>
        <pt x="392" y="379" on="0"/>
        <pt x="428" y="344" on="0"/>
        <pt x="428" y="292" on="0"/>
        <pt x="392" y="257" on="0"/>
        <pt x="342" y="257" on="0"/>
      </contour>
    </TTGlyph>
    <TTGlyph name="Lslash" xMin="32" yMin="0" xMax="499" yMax="585">
      <contour>
        <pt x="36" y="0" on="1"/>
        <pt x="36" y="21" on="1"/>
        <pt x="90" y="21" on="0"/>
        <pt x="99" y="41" on="1"/>
        <pt x="99" y="270" on="1"/>
        <pt x="54" y="233" on="1"/>
        <pt x="32" y="259" on="1"/>
        <pt x="99" y="314" on="1"/>
        <pt x="99" y="544" on="1"/>
        <pt x="90" y="564" on="0"/>
        <pt x="36" y="564" on="1"/>
        <pt x="36" y="585" on="1"/>
        <pt x="289" y="585" on="1"/>
        <pt x="289" y="564" on="1"/>
        <pt x="235" y="564" on="0"/>
        <pt x="226" y="544" on="1"/>
        <pt x="226" y="418" on="1"/>
        <pt x="264" y="449" on="1"/>
        <pt x="286" y="423" on="1"/>
        <pt x="226" y="374" on="1"/>
        <pt x="226" y="34" on="1"/>
        <pt x="434" y="34" on="1"/>
        <pt x="459" y="45" on="0"/>
        <pt x="479" y="97" on="1"/>
        <pt x="499" y="97" on="1"/>
        <pt x="475" y="0" on="1"/>
      </contour>
    </TTGlyph>
    <TTGlyph name="M" xMin="36" yMin="0" xMax="826" yMax="585">
      <contour>
        <pt x="36" y="0" on="1"/>
        <pt x="36" y="21" on="1"/>
        <pt x="90" y="21" on="0"/>
        <pt x="99" y="41" on="1"/>
        <pt x="99" y="544" on="1"/>
        <pt x="90" y="564" on="0"/>
        <pt x="36" y="564" on="1"/>
        <pt x="36" y="585" on="1"/>
        <pt x="217" y="585" on="1"/>
        <pt x="430" y="120" on="1"/>
        <pt x="643" y="585" on="1"/>
        <pt x="826" y="585" on="1"/>
        <pt x="826" y="564" on="1"/>
        <pt x="772" y="564" on="0"/>
        <pt x="763" y="544" on="1"/>
        <pt x="763" y="41" on="1"/>
        <pt x="772" y="21" on="0"/>
        <pt x="826" y="21" on="1"/>
        <pt x="826" y="0" on="1"/>
        <pt x="573" y="0" on="1"/>
        <pt x="573" y="21" on="1"/>
        <pt x="627" y="21" on="0"/>
        <pt x="636" y="41" on="1"/>
        <pt x="636" y="490" on="1"/>
        <pt x="412" y="0" on="1"/>
        <pt x="362" y="0" on="1"/>
        <pt x="133" y="496" on="1"/>
        <pt x="133" y="41" on="1"/>
        <pt x="142" y="21" on="0"/>
        <pt x="196" y="21" on="1"/>
        <pt x="196" y="0" on="1"/>
      </contour>
    </TTGlyph>
    <TTGlyph name="N" xMin="36" yMin="0" xMax="598" yMax="585">
      <contour>
        <pt x="36" y="0" on="1"/>
        <pt x="36" y="21" on="1"/>
        <pt x="90" y="21" on="0"/>
        <pt x="99" y="41" on="1"/>
        <pt x="99" y="544" on="1"/>
        <pt x="90" y="564" on="0"/>
        <pt x="36" y="564" on="1"/>
        <pt x="36" y="585" on="1"/>
        <pt x="205" y="585" on="1"/>
        <pt x="501" y="180" on="1"/>
        <pt x="501" y="544" on="1"/>
        <pt x="492" y="564" on="0"/>
        <pt x="438" y="564" on="1"/>
        <pt x="438" y="585" on="1"/>
        <pt x="598" y="585" on="1"/>
        <pt x="598" y="564" on="1"/>
        <pt x="544" y="564" on="0"/>
        <pt x="535" y="544" on="1"/>
        <pt x="535" y="0" on="1"/>
        <pt x="491" y="0" on="1"/>
        <pt x="133" y="495" on="1"/>
        <pt x="133" y="41" on="1"/>
        <pt x="142" y="21" on="0"/>
        <pt x="196" y="21" on="1"/>
        <pt x="196" y="0" on="1"/>
      </contour>
    </TTGlyph>
    <TTGlyph name="Nacute" xMin="36" yMin="0" xMax="598" yMax="782">
      <contour>
        <pt x="322" y="782" on="1"/>
        <pt x="448" y="782" on="1"/>
        <pt x="314" y="620" on="1"/>
        <pt x="268" y="620" on="1"/>
      </contour>
      <contour>
        <pt x="36" y="0" on="1"/>
        <pt x="36" y="21" on="1"/>
        <pt x="90" y="21" on="0"/>
        <pt x="99" y="41" on="1"/>
        <pt x="99" y="544" on="1"/>
        <pt x="90" y="564" on="0"/>
        <pt x="36" y="564" on="1"/>
        <pt x="36" y="585" on="1"/>
        <pt x="205" y="585" on="1"/>
        <pt x="501" y="180" on="1"/>
        <pt x="501" y="544" on="1"/>
        <pt x="492" y="564" on="0"/>
        <pt x="438" y="564" on="1"/>
        <pt x="438" y="585" on="1"/>
        <pt x="598" y="585" on="1"/>
        <pt x="598" y="564" on="1"/>
        <pt x="544" y="564" on="0"/>
        <pt x="535" y="544" on="1"/>
        <pt x="535" y="0" on="1"/>
        <pt x="491" y="0" on="1"/>
        <pt x="133" y="495" on="1"/>
        <pt x="133" y="41" on="1"/>
        <pt x="142" y="21" on="0"/>
        <pt x="196" y="21" on="1"/>
        <pt x="196" y="0" on="1"/>
      </contour>
    </TTGlyph>
    <TTGlyph name="Ncaron" xMin="36" yMin="0" xMax="598" yMax="782">
      <contour>
        <pt x="288" y="620" on="1"/>
        <pt x="194" y="782" on="1"/>
        <pt x="230" y="782" on="1"/>
        <pt x="313" y="705" on="1"/>
        <pt x="396" y="782" on="1"/>
        <pt x="432" y="782" on="1"/>
        <pt x="338" y="620" on="1"/>
      </contour>
      <contour>
        <pt x="36" y="0" on="1"/>
        <pt x="36" y="21" on="1"/>
        <pt x="90" y="21" on="0"/>
        <pt x="99" y="41" on="1"/>
        <pt x="99" y="544" on="1"/>
        <pt x="90" y="564" on="0"/>
        <pt x="36" y="564" on="1"/>
        <pt x="36" y="585" on="1"/>
        <pt x="205" y="585" on="1"/>
        <pt x="501" y="180" on="1"/>
        <pt x="501" y="544" on="1"/>
        <pt x="492" y="564" on="0"/>
        <pt x="438" y="564" on="1"/>
        <pt x="438" y="585" on="1"/>
        <pt x="598" y="585" on="1"/>
        <pt x="598" y="564" on="1"/>
        <pt x="544" y="564" on="0"/>
        <pt x="535" y="544" on="1"/>
        <pt x="535" y="0" on="1"/>
        <pt x="491" y="0" on="1"/>
        <pt x="133" y="495" on="1"/>
        <pt x="133" y="41" on="1"/>
        <pt x="142" y="21" on="0"/>
        <pt x="196" y="21" on="1"/>
        <pt x="196" y="0" on="1"/>
      </contour>
    </TTGlyph>
    <TTGlyph name="Ncommaaccent" xMin="35" yMin="-255" xMax="597" yMax="585">
      <contour>
        <pt x="315" y="-130" on="1"/>
        <pt x="290" y="-130" on="0"/>
        <pt x="259" y="-104" on="0"/>
        <pt x="259" y="-81" on="1"/>
        <pt x="259" y="-60" on="0"/>
        <pt x="284" y="-36" on="0"/>
        <pt x="302" y="-33" on="0"/>
        <pt x="310" y="-33" on="1"/>
        <pt x="351" y="-33" on="0"/>
        <pt x="407" y="-84" on="0"/>
        <pt x="407" y="-125" on="1"/>
        <pt x="407" y="-214" on="0"/>
        <pt x="273" y="-255" on="1"/>
        <pt x="273" y="-216" on="1"/>
        <pt x="300" y="-213" on="0"/>
        <pt x="351" y="-166" on="0"/>
        <pt x="351" y="-137" on="1"/>
        <pt x="351" y="-117" on="0"/>
        <pt x="346" y="-117" on="1"/>
        <pt x="342" y="-120" on="1"/>
        <pt x="337" y="-124" on="0"/>
        <pt x="323" y="-130" on="0"/>
      </contour>
      <contour>
        <pt x="35" y="0" on="1"/>
        <pt x="35" y="21" on="1"/>
        <pt x="89" y="21" on="0"/>
        <pt x="98" y="41" on="1"/>
        <pt x="98" y="544" on="1"/>
        <pt x="89" y="564" on="0"/>
        <pt x="35" y="564" on="1"/>
        <pt x="35" y="585" on="1"/>
        <pt x="204" y="585" on="1"/>
        <pt x="500" y="180" on="1"/>
        <pt x="500" y="544" on="1"/>
        <pt x="491" y="564" on="0"/>
        <pt x="437" y="564" on="1"/>
        <pt x="437" y="585" on="1"/>
        <pt x="597" y="585" on="1"/>
        <pt x="597" y="564" on="1"/>
        <pt x="543" y="564" on="0"/>
        <pt x="534" y="544" on="1"/>
        <pt x="534" y="0" on="1"/>
        <pt x="490" y="0" on="1"/>
        <pt x="132" y="495" on="1"/>
        <pt x="132" y="41" on="1"/>
        <pt x="141" y="21" on="0"/>
        <pt x="195" y="21" on="1"/>
        <pt x="195" y="0" on="1"/>
      </contour>
    </TTGlyph>
    <TTGlyph name="Ntilde" xMin="36" yMin="0" xMax="598" yMax="742">
      <component glyphName="tildecomb" x="566" y="120" flags="0x1004"/>
      <component glyphName="N" x="0" y="0" flags="0x1204"/>
    </TTGlyph>
    <TTGlyph name="O" xMin="35" yMin="-10" xMax="629" yMax="595">
      <contour>
        <pt x="170" y="300" on="1"/>
        <pt x="170" y="232" on="0"/>
        <pt x="199" y="114" on="0"/>
        <pt x="277" y="24" on="0"/>
        <pt x="336" y="24" on="1"/>
        <pt x="381" y="24" on="0"/>
        <pt x="445" y="71" on="0"/>
        <pt x="479" y="151" on="0"/>
        <pt x="494" y="236" on="0"/>
        <pt x="494" y="284" on="1"/>
        <pt x="494" y="351" on="0"/>
        <pt x="464" y="471" on="0"/>
        <pt x="386" y="561" on="0"/>
        <pt x="328" y="561" on="1"/>
        <pt x="283" y="561" on="0"/>
        <pt x="219" y="513" on="0"/>
        <pt x="185" y="433" on="0"/>
        <pt x="170" y="348" on="0"/>
      </contour>
      <contour>
        <pt x="35" y="169" on="0"/>
        <pt x="35" y="415" on="0"/>
        <pt x="209" y="595" on="0"/>
        <pt x="455" y="595" on="0"/>
        <pt x="629" y="415" on="0"/>
        <pt x="629" y="169" on="0"/>
        <pt x="454" y="-10" on="0"/>
        <pt x="332" y="-10" on="1"/>
        <pt x="208" y="-10" on="0"/>
      </contour>
    </TTGlyph>
    <TTGlyph name="OE" xMin="35" yMin="-10" xMax="791" yMax="595">
      <contour>
        <pt x="170" y="300" on="1"/>
        <pt x="170" y="232" on="0"/>
        <pt x="199" y="114" on="0"/>
        <pt x="277" y="24" on="0"/>
        <pt x="336" y="24" on="1"/>
        <pt x="378" y="24" on="0"/>
        <pt x="411" y="47" on="1"/>
        <pt x="411" y="531" on="1"/>
        <pt x="376" y="561" on="0"/>
        <pt x="328" y="561" on="1"/>
        <pt x="283" y="561" on="0"/>
        <pt x="219" y="513" on="0"/>
        <pt x="185" y="433" on="0"/>
        <pt x="170" y="348" on="0"/>
      </contour>
      <contour>
        <pt x="407" y="0" on="1"/>
        <pt x="373" y="-10" on="0"/>
        <pt x="332" y="-10" on="1"/>
        <pt x="208" y="-10" on="0"/>
        <pt x="35" y="169" on="0"/>
        <pt x="35" y="415" on="0"/>
        <pt x="209" y="595" on="0"/>
        <pt x="332" y="595" on="1"/>
        <pt x="373" y="595" on="0"/>
        <pt x="407" y="585" on="1"/>
        <pt x="746" y="585" on="1"/>
        <pt x="746" y="488" on="1"/>
        <pt x="725" y="488" on="1"/>
        <pt x="725" y="542" on="0"/>
        <pt x="705" y="551" on="1"/>
        <pt x="538" y="551" on="1"/>
        <pt x="538" y="321" on="1"/>
        <pt x="638" y="321" on="1"/>
        <pt x="658" y="330" on="0"/>
        <pt x="658" y="384" on="1"/>
        <pt x="679" y="384" on="1"/>
        <pt x="679" y="224" on="1"/>
        <pt x="658" y="224" on="1"/>
        <pt x="658" y="278" on="0"/>
        <pt x="638" y="287" on="1"/>
        <pt x="538" y="287" on="1"/>
        <pt x="538" y="34" on="1"/>
        <pt x="726" y="34" on="1"/>
        <pt x="751" y="45" on="0"/>
        <pt x="771" y="97" on="1"/>
        <pt x="791" y="97" on="1"/>
        <pt x="767" y="0" on="1"/>
      </contour>
    </TTGlyph>
    <TTGlyph name="Oacute" xMin="35" yMin="-10" xMax="629" yMax="782">
      <component glyphName="acutecomb" x="590" y="120" flags="0x1004"/>
      <component glyphName="O" x="0" y="0" flags="0x1204"/>
    </TTGlyph>
    <TTGlyph name="Obreve" xMin="35" yMin="-10" xMax="629" yMax="754">
      <contour>
        <pt x="336" y="630" on="1"/>
        <pt x="275" y="630" on="0"/>
        <pt x="210" y="711" on="0"/>
        <pt x="210" y="754" on="1"/>
        <pt x="238" y="754" on="1"/>
        <pt x="259" y="710" on="0"/>
        <pt x="413" y="710" on="0"/>
        <pt x="434" y="754" on="1"/>
        <pt x="462" y="754" on="1"/>
        <pt x="462" y="710" on="0"/>
        <pt x="398" y="630" on="0"/>
      </contour>
      <contour>
        <pt x="170" y="300" on="1"/>
        <pt x="170" y="232" on="0"/>
        <pt x="199" y="114" on="0"/>
        <pt x="277" y="24" on="0"/>
        <pt x="336" y="24" on="1"/>
        <pt x="381" y="24" on="0"/>
        <pt x="445" y="71" on="0"/>
        <pt x="479" y="151" on="0"/>
        <pt x="494" y="236" on="0"/>
        <pt x="494" y="284" on="1"/>
        <pt x="494" y="351" on="0"/>
        <pt x="464" y="471" on="0"/>
        <pt x="386" y="561" on="0"/>
        <pt x="328" y="561" on="1"/>
        <pt x="283" y="561" on="0"/>
        <pt x="219" y="513" on="0"/>
        <pt x="185" y="433" on="0"/>
        <pt x="170" y="348" on="0"/>
      </contour>
      <contour>
        <pt x="35" y="169" on="0"/>
        <pt x="35" y="415" on="0"/>
        <pt x="209" y="595" on="0"/>
        <pt x="455" y="595" on="0"/>
        <pt x="629" y="415" on="0"/>
        <pt x="629" y="169" on="0"/>
        <pt x="454" y="-10" on="0"/>
        <pt x="332" y="-10" on="1"/>
        <pt x="208" y="-10" on="0"/>
      </contour>
    </TTGlyph>
    <TTGlyph name="Ocircumflex" xMin="35" yMin="-10" xMax="629" yMax="782">
      <component glyphName="uni0302" x="590" y="120" flags="0x1004"/>
      <component glyphName="O" x="0" y="0" flags="0x1204"/>
    </TTGlyph>
    <TTGlyph name="Odieresis" xMin="35" yMin="-10" xMax="629" yMax="738">
      <component glyphName="uni0308" x="590" y="120" flags="0x1004"/>
      <component glyphName="O" x="0" y="0" flags="0x1204"/>
    </TTGlyph>
    <TTGlyph name="Ograve" xMin="35" yMin="-10" xMax="629" yMax="782">
      <component glyphName="gravecomb" x="590" y="120" flags="0x1004"/>
      <component glyphName="O" x="0" y="0" flags="0x1204"/>
    </TTGlyph>
    <TTGlyph name="Ohorn" xMin="35" yMin="-10" xMax="673" yMax="630">
      <contour>
        <pt x="615" y="531" on="1"/>
        <pt x="613" y="533" on="0"/>
        <pt x="610" y="533" on="1"/>
        <pt x="609" y="533" on="0"/>
        <pt x="597" y="531" on="0"/>
        <pt x="594" y="531" on="1"/>
        <pt x="570" y="531" on="0"/>
        <pt x="543" y="556" on="0"/>
        <pt x="543" y="580" on="1"/>
        <pt x="543" y="602" on="0"/>
        <pt x="573" y="630" on="0"/>
        <pt x="589" y="630" on="1"/>
        <pt x="628" y="630" on="0"/>
        <pt x="673" y="579" on="0"/>
        <pt x="673" y="540" on="1"/>
        <pt x="673" y="466" on="0"/>
        <pt x="589" y="443" on="1"/>
        <pt x="629" y="374" on="0"/>
        <pt x="629" y="292" on="1"/>
        <pt x="629" y="169" on="0"/>
        <pt x="454" y="-10" on="0"/>
        <pt x="332" y="-10" on="1"/>
        <pt x="208" y="-10" on="0"/>
        <pt x="35" y="169" on="0"/>
        <pt x="35" y="415" on="0"/>
        <pt x="209" y="595" on="0"/>
        <pt x="332" y="595" on="1"/>
        <pt x="403" y="595" on="0"/>
        <pt x="528" y="530" on="0"/>
        <pt x="569" y="473" on="1"/>
        <pt x="615" y="488" on="0"/>
      </contour>
      <contour>
        <pt x="170" y="300" on="1"/>
        <pt x="170" y="232" on="0"/>
        <pt x="199" y="114" on="0"/>
        <pt x="277" y="24" on="0"/>
        <pt x="336" y="24" on="1"/>
        <pt x="381" y="24" on="0"/>
        <pt x="445" y="71" on="0"/>
        <pt x="479" y="151" on="0"/>
        <pt x="494" y="236" on="0"/>
        <pt x="494" y="284" on="1"/>
        <pt x="494" y="351" on="0"/>
        <pt x="464" y="471" on="0"/>
        <pt x="386" y="561" on="0"/>
        <pt x="328" y="561" on="1"/>
        <pt x="283" y="561" on="0"/>
        <pt x="219" y="513" on="0"/>
        <pt x="185" y="433" on="0"/>
        <pt x="170" y="348" on="0"/>
      </contour>
    </TTGlyph>
    <TTGlyph name="Ohungarumlaut" xMin="35" yMin="-10" xMax="629" yMax="782">
      <contour>
        <pt x="260" y="782" on="1"/>
        <pt x="386" y="782" on="1"/>
        <pt x="252" y="620" on="1"/>
        <pt x="206" y="620" on="1"/>
      </contour>
      <contour>
        <pt x="420" y="782" on="1"/>
        <pt x="546" y="782" on="1"/>
        <pt x="412" y="620" on="1"/>
        <pt x="366" y="620" on="1"/>
      </contour>
      <contour>
        <pt x="170" y="300" on="1"/>
        <pt x="170" y="232" on="0"/>
        <pt x="199" y="114" on="0"/>
        <pt x="277" y="24" on="0"/>
        <pt x="336" y="24" on="1"/>
        <pt x="381" y="24" on="0"/>
        <pt x="445" y="71" on="0"/>
        <pt x="479" y="151" on="0"/>
        <pt x="494" y="236" on="0"/>
        <pt x="494" y="284" on="1"/>
        <pt x="494" y="351" on="0"/>
        <pt x="464" y="471" on="0"/>
        <pt x="386" y="561" on="0"/>
        <pt x="328" y="561" on="1"/>
        <pt x="283" y="561" on="0"/>
        <pt x="219" y="513" on="0"/>
        <pt x="185" y="433" on="0"/>
        <pt x="170" y="348" on="0"/>
      </contour>
      <contour>
        <pt x="35" y="169" on="0"/>
        <pt x="35" y="415" on="0"/>
        <pt x="209" y="595" on="0"/>
        <pt x="455" y="595" on="0"/>
        <pt x="629" y="415" on="0"/>
        <pt x="629" y="169" on="0"/>
        <pt x="454" y="-10" on="0"/>
        <pt x="332" y="-10" on="1"/>
        <pt x="208" y="-10" on="0"/>
      </contour>
    </TTGlyph>
    <TTGlyph name="Omacron" xMin="35" yMin="-10" xMax="629" yMax="688">
      <contour>
        <pt x="198" y="688" on="1"/>
        <pt x="462" y="688" on="1"/>
        <pt x="462" y="634" on="1"/>
        <pt x="198" y="634" on="1"/>
      </contour>
      <contour>
        <pt x="170" y="300" on="1"/>
        <pt x="170" y="232" on="0"/>
        <pt x="199" y="114" on="0"/>
        <pt x="277" y="24" on="0"/>
        <pt x="336" y="24" on="1"/>
        <pt x="381" y="24" on="0"/>
        <pt x="445" y="71" on="0"/>
        <pt x="479" y="151" on="0"/>
        <pt x="494" y="236" on="0"/>
        <pt x="494" y="284" on="1"/>
        <pt x="494" y="351" on="0"/>
        <pt x="464" y="471" on="0"/>
        <pt x="386" y="561" on="0"/>
        <pt x="328" y="561" on="1"/>
        <pt x="283" y="561" on="0"/>
        <pt x="219" y="513" on="0"/>
        <pt x="185" y="433" on="0"/>
        <pt x="170" y="348" on="0"/>
      </contour>
      <contour>
        <pt x="35" y="169" on="0"/>
        <pt x="35" y="415" on="0"/>
        <pt x="209" y="595" on="0"/>
        <pt x="455" y="595" on="0"/>
        <pt x="629" y="415" on="0"/>
        <pt x="629" y="169" on="0"/>
        <pt x="454" y="-10" on="0"/>
        <pt x="332" y="-10" on="1"/>
        <pt x="208" y="-10" on="0"/>
      </contour>
    </TTGlyph>
    <TTGlyph name="Oslash" xMin="35" yMin="-28" xMax="629" yMax="612">
      <contour>
        <pt x="161" y="-28" on="1"/>
        <pt x="132" y="-10" on="1"/>
        <pt x="165" y="42" on="1"/>
        <pt x="105" y="84" on="0"/>
        <pt x="35" y="216" on="0"/>
        <pt x="35" y="292" on="1"/>
        <pt x="35" y="415" on="0"/>
        <pt x="209" y="595" on="0"/>
        <pt x="332" y="595" on="1"/>
        <pt x="413" y="595" on="0"/>
        <pt x="483" y="552" on="1"/>
        <pt x="521" y="612" on="1"/>
        <pt x="550" y="594" on="1"/>
        <pt x="512" y="532" on="1"/>
        <pt x="567" y="490" on="0"/>
        <pt x="629" y="363" on="0"/>
        <pt x="629" y="292" on="1"/>
        <pt x="629" y="169" on="0"/>
        <pt x="454" y="-10" on="0"/>
        <pt x="332" y="-10" on="1"/>
        <pt x="259" y="-10" on="0"/>
        <pt x="194" y="25" on="1"/>
      </contour>
      <contour>
        <pt x="463" y="455" on="1"/>
        <pt x="228" y="79" on="1"/>
        <pt x="270" y="24" on="0"/>
        <pt x="336" y="24" on="1"/>
        <pt x="381" y="24" on="0"/>
        <pt x="445" y="71" on="0"/>
        <pt x="479" y="151" on="0"/>
        <pt x="494" y="236" on="0"/>
        <pt x="494" y="284" on="1"/>
        <pt x="494" y="382" on="0"/>
      </contour>
      <contour>
        <pt x="445" y="491" on="1"/>
        <pt x="402" y="561" on="0"/>
        <pt x="328" y="561" on="1"/>
        <pt x="283" y="561" on="0"/>
        <pt x="219" y="513" on="0"/>
        <pt x="185" y="433" on="0"/>
        <pt x="170" y="348" on="0"/>
        <pt x="170" y="300" on="1"/>
        <pt x="170" y="188" on="0"/>
        <pt x="208" y="112" on="1"/>
      </contour>
    </TTGlyph>
    <TTGlyph name="Oslashacute" xMin="35" yMin="-28" xMax="629" yMax="782">
      <contour>
        <pt x="346" y="782" on="1"/>
        <pt x="472" y="782" on="1"/>
        <pt x="338" y="620" on="1"/>
        <pt x="292" y="620" on="1"/>
      </contour>
      <contour>
        <pt x="161" y="-28" on="1"/>
        <pt x="132" y="-10" on="1"/>
        <pt x="165" y="42" on="1"/>
        <pt x="105" y="84" on="0"/>
        <pt x="35" y="216" on="0"/>
        <pt x="35" y="292" on="1"/>
        <pt x="35" y="415" on="0"/>
        <pt x="209" y="595" on="0"/>
        <pt x="332" y="595" on="1"/>
        <pt x="413" y="595" on="0"/>
        <pt x="483" y="552" on="1"/>
        <pt x="521" y="612" on="1"/>
        <pt x="550" y="594" on="1"/>
        <pt x="512" y="532" on="1"/>
        <pt x="567" y="490" on="0"/>
        <pt x="629" y="363" on="0"/>
        <pt x="629" y="292" on="1"/>
        <pt x="629" y="169" on="0"/>
        <pt x="454" y="-10" on="0"/>
        <pt x="332" y="-10" on="1"/>
        <pt x="259" y="-10" on="0"/>
        <pt x="194" y="25" on="1"/>
      </contour>
      <contour>
        <pt x="463" y="455" on="1"/>
        <pt x="228" y="79" on="1"/>
        <pt x="270" y="24" on="0"/>
        <pt x="336" y="24" on="1"/>
        <pt x="381" y="24" on="0"/>
        <pt x="445" y="71" on="0"/>
        <pt x="479" y="151" on="0"/>
        <pt x="494" y="236" on="0"/>
        <pt x="494" y="284" on="1"/>
        <pt x="494" y="382" on="0"/>
      </contour>
      <contour>
        <pt x="445" y="491" on="1"/>
        <pt x="402" y="561" on="0"/>
        <pt x="328" y="561" on="1"/>
        <pt x="283" y="561" on="0"/>
        <pt x="219" y="513" on="0"/>
        <pt x="185" y="433" on="0"/>
        <pt x="170" y="348" on="0"/>
        <pt x="170" y="300" on="1"/>
        <pt x="170" y="188" on="0"/>
        <pt x="208" y="112" on="1"/>
      </contour>
    </TTGlyph>
    <TTGlyph name="Otilde" xMin="35" yMin="-10" xMax="629" yMax="742">
      <component glyphName="tildecomb" x="590" y="120" flags="0x1004"/>
      <component glyphName="O" x="0" y="0" flags="0x1204"/>
    </TTGlyph>
    <TTGlyph name="P" xMin="36" yMin="0" xMax="554" yMax="585">
      <contour>
        <pt x="36" y="0" on="1"/>
        <pt x="36" y="21" on="1"/>
        <pt x="90" y="21" on="0"/>
        <pt x="99" y="41" on="1"/>
        <pt x="99" y="544" on="1"/>
        <pt x="90" y="564" on="0"/>
        <pt x="36" y="564" on="1"/>
        <pt x="36" y="585" on="1"/>
        <pt x="302" y="585" on="1"/>
        <pt x="425" y="585" on="0"/>
        <pt x="554" y="491" on="0"/>
        <pt x="554" y="433" on="1"/>
        <pt x="554" y="358" on="0"/>
        <pt x="434" y="266" on="0"/>
        <pt x="314" y="266" on="1"/>
        <pt x="226" y="266" on="1"/>
        <pt x="226" y="41" on="1"/>
        <pt x="235" y="21" on="0"/>
        <pt x="289" y="21" on="1"/>
        <pt x="289" y="0" on="1"/>
      </contour>
      <contour>
        <pt x="226" y="551" on="1"/>
        <pt x="226" y="300" on="1"/>
        <pt x="279" y="300" on="1"/>
        <pt x="356" y="300" on="0"/>
        <pt x="419" y="361" on="0"/>
        <pt x="419" y="432" on="1"/>
        <pt x="419" y="551" on="0"/>
        <pt x="267" y="551" on="1"/>
      </contour>
    </TTGlyph>
    <TTGlyph name="Q" xMin="35" yMin="-102" xMax="642" yMax="595">
      <contour>
        <pt x="35" y="169" on="0"/>
        <pt x="35" y="415" on="0"/>
        <pt x="209" y="595" on="0"/>
        <pt x="455" y="595" on="0"/>
        <pt x="629" y="415" on="0"/>
        <pt x="629" y="292" on="1"/>
        <pt x="629" y="209" on="0"/>
        <pt x="544" y="68" on="0"/>
        <pt x="474" y="28" on="1"/>
        <pt x="476" y="23" on="0"/>
        <pt x="488" y="-7" on="0"/>
        <pt x="493" y="-18" on="0"/>
        <pt x="503" y="-40" on="0"/>
        <pt x="512" y="-49" on="0"/>
        <pt x="524" y="-62" on="0"/>
        <pt x="538" y="-66" on="0"/>
        <pt x="547" y="-66" on="1"/>
        <pt x="571" y="-66" on="0"/>
        <pt x="611" y="-43" on="0"/>
        <pt x="619" y="-32" on="1"/>
        <pt x="627" y="-20" on="1"/>
        <pt x="642" y="-31" on="1"/>
        <pt x="641" y="-34" on="0"/>
        <pt x="636" y="-43" on="0"/>
        <pt x="619" y="-68" on="0"/>
        <pt x="599" y="-87" on="0"/>
        <pt x="565" y="-102" on="0"/>
        <pt x="547" y="-102" on="1"/>
        <pt x="480" y="-102" on="0"/>
        <pt x="408" y="-50" on="0"/>
        <pt x="385" y="-5" on="1"/>
        <pt x="357" y="-10" on="0"/>
        <pt x="332" y="-10" on="1"/>
        <pt x="208" y="-10" on="0"/>
      </contour>
      <contour>
        <pt x="370" y="28" on="1"/>
        <pt x="361" y="49" on="0"/>
        <pt x="352" y="66" on="0"/>
        <pt x="334" y="92" on="0"/>
        <pt x="313" y="102" on="0"/>
        <pt x="299" y="102" on="1"/>
        <pt x="259" y="102" on="0"/>
        <pt x="227" y="81" on="1"/>
        <pt x="269" y="24" on="0"/>
        <pt x="336" y="24" on="1"/>
        <pt x="357" y="24" on="0"/>
      </contour>
      <contour>
        <pt x="445" y="82" on="1"/>
        <pt x="494" y="152" on="0"/>
        <pt x="494" y="284" on="1"/>
        <pt x="494" y="351" on="0"/>
        <pt x="464" y="471" on="0"/>
        <pt x="386" y="561" on="0"/>
        <pt x="328" y="561" on="1"/>
        <pt x="283" y="561" on="0"/>
        <pt x="219" y="513" on="0"/>
        <pt x="185" y="433" on="0"/>
        <pt x="170" y="348" on="0"/>
        <pt x="170" y="300" on="1"/>
        <pt x="170" y="185" on="0"/>
        <pt x="211" y="107" on="1"/>
        <pt x="250" y="146" on="0"/>
        <pt x="305" y="146" on="1"/>
        <pt x="399" y="146" on="0"/>
      </contour>
    </TTGlyph>
    <TTGlyph name="R" xMin="36" yMin="0" xMax="602" yMax="585">
      <contour>
        <pt x="36" y="0" on="1"/>
        <pt x="36" y="21" on="1"/>
        <pt x="90" y="21" on="0"/>
        <pt x="99" y="41" on="1"/>
        <pt x="99" y="544" on="1"/>
        <pt x="90" y="564" on="0"/>
        <pt x="36" y="564" on="1"/>
        <pt x="36" y="585" on="1"/>
        <pt x="282" y="585" on="1"/>
        <pt x="406" y="585" on="0"/>
        <pt x="534" y="495" on="0"/>
        <pt x="534" y="437" on="1"/>
        <pt x="534" y="382" on="0"/>
        <pt x="468" y="299" on="0"/>
        <pt x="403" y="280" on="1"/>
        <pt x="536" y="42" on="1"/>
        <pt x="546" y="21" on="0"/>
        <pt x="602" y="21" on="1"/>
        <pt x="602" y="0" on="1"/>
        <pt x="559" y="0" on="1"/>
        <pt x="480" y="0" on="0"/>
        <pt x="405" y="18" on="0"/>
        <pt x="386" y="52" on="1"/>
        <pt x="265" y="266" on="1"/>
        <pt x="226" y="266" on="1"/>
        <pt x="226" y="41" on="1"/>
        <pt x="235" y="21" on="0"/>
        <pt x="289" y="21" on="1"/>
        <pt x="289" y="0" on="1"/>
      </contour>
      <contour>
        <pt x="226" y="551" on="1"/>
        <pt x="226" y="300" on="1"/>
        <pt x="259" y="300" on="1"/>
        <pt x="327" y="300" on="0"/>
        <pt x="399" y="361" on="0"/>
        <pt x="399" y="436" on="1"/>
        <pt x="399" y="494" on="0"/>
        <pt x="318" y="551" on="0"/>
        <pt x="247" y="551" on="1"/>
      </contour>
    </TTGlyph>
    <TTGlyph name="Racute" xMin="36" yMin="0" xMax="602" yMax="782">
      <contour>
        <pt x="309" y="782" on="1"/>
        <pt x="435" y="782" on="1"/>
        <pt x="301" y="620" on="1"/>
        <pt x="255" y="620" on="1"/>
      </contour>
      <contour>
        <pt x="36" y="0" on="1"/>
        <pt x="36" y="21" on="1"/>
        <pt x="90" y="21" on="0"/>
        <pt x="99" y="41" on="1"/>
        <pt x="99" y="544" on="1"/>
        <pt x="90" y="564" on="0"/>
        <pt x="36" y="564" on="1"/>
        <pt x="36" y="585" on="1"/>
        <pt x="282" y="585" on="1"/>
        <pt x="406" y="585" on="0"/>
        <pt x="534" y="495" on="0"/>
        <pt x="534" y="437" on="1"/>
        <pt x="534" y="382" on="0"/>
        <pt x="468" y="299" on="0"/>
        <pt x="403" y="280" on="1"/>
        <pt x="536" y="42" on="1"/>
        <pt x="546" y="21" on="0"/>
        <pt x="602" y="21" on="1"/>
        <pt x="602" y="0" on="1"/>
        <pt x="559" y="0" on="1"/>
        <pt x="480" y="0" on="0"/>
        <pt x="405" y="18" on="0"/>
        <pt x="386" y="52" on="1"/>
        <pt x="265" y="266" on="1"/>
        <pt x="226" y="266" on="1"/>
        <pt x="226" y="41" on="1"/>
        <pt x="235" y="21" on="0"/>
        <pt x="289" y="21" on="1"/>
        <pt x="289" y="0" on="1"/>
      </contour>
      <contour>
        <pt x="226" y="551" on="1"/>
        <pt x="226" y="300" on="1"/>
        <pt x="259" y="300" on="1"/>
        <pt x="327" y="300" on="0"/>
        <pt x="399" y="361" on="0"/>
        <pt x="399" y="436" on="1"/>
        <pt x="399" y="494" on="0"/>
        <pt x="318" y="551" on="0"/>
        <pt x="247" y="551" on="1"/>
      </contour>
    </TTGlyph>
    <TTGlyph name="Rcaron" xMin="36" yMin="0" xMax="602" yMax="782">
      <contour>
        <pt x="275" y="620" on="1"/>
        <pt x="181" y="782" on="1"/>
        <pt x="217" y="782" on="1"/>
        <pt x="300" y="705" on="1"/>
        <pt x="383" y="782" on="1"/>
        <pt x="419" y="782" on="1"/>
        <pt x="325" y="620" on="1"/>
      </contour>
      <contour>
        <pt x="36" y="0" on="1"/>
        <pt x="36" y="21" on="1"/>
        <pt x="90" y="21" on="0"/>
        <pt x="99" y="41" on="1"/>
        <pt x="99" y="544" on="1"/>
        <pt x="90" y="564" on="0"/>
        <pt x="36" y="564" on="1"/>
        <pt x="36" y="585" on="1"/>
        <pt x="282" y="585" on="1"/>
        <pt x="406" y="585" on="0"/>
        <pt x="534" y="495" on="0"/>
        <pt x="534" y="437" on="1"/>
        <pt x="534" y="382" on="0"/>
        <pt x="468" y="299" on="0"/>
        <pt x="403" y="280" on="1"/>
        <pt x="536" y="42" on="1"/>
        <pt x="546" y="21" on="0"/>
        <pt x="602" y="21" on="1"/>
        <pt x="602" y="0" on="1"/>
        <pt x="559" y="0" on="1"/>
        <pt x="480" y="0" on="0"/>
        <pt x="405" y="18" on="0"/>
        <pt x="386" y="52" on="1"/>
        <pt x="265" y="266" on="1"/>
        <pt x="226" y="266" on="1"/>
        <pt x="226" y="41" on="1"/>
        <pt x="235" y="21" on="0"/>
        <pt x="289" y="21" on="1"/>
        <pt x="289" y="0" on="1"/>
      </contour>
      <contour>
        <pt x="226" y="551" on="1"/>
        <pt x="226" y="300" on="1"/>
        <pt x="259" y="300" on="1"/>
        <pt x="327" y="300" on="0"/>
        <pt x="399" y="361" on="0"/>
        <pt x="399" y="436" on="1"/>
        <pt x="399" y="494" on="0"/>
        <pt x="318" y="551" on="0"/>
        <pt x="247" y="551" on="1"/>
      </contour>
    </TTGlyph>
    <TTGlyph name="Rcommaaccent" xMin="35" yMin="-255" xMax="601" yMax="585">
      <contour>
        <pt x="340" y="-130" on="1"/>
        <pt x="315" y="-130" on="0"/>
        <pt x="284" y="-104" on="0"/>
        <pt x="284" y="-81" on="1"/>
        <pt x="284" y="-60" on="0"/>
        <pt x="309" y="-36" on="0"/>
        <pt x="327" y="-33" on="0"/>
        <pt x="335" y="-33" on="1"/>
        <pt x="376" y="-33" on="0"/>
        <pt x="432" y="-84" on="0"/>
        <pt x="432" y="-125" on="1"/>
        <pt x="432" y="-214" on="0"/>
        <pt x="298" y="-255" on="1"/>
        <pt x="298" y="-216" on="1"/>
        <pt x="325" y="-213" on="0"/>
        <pt x="376" y="-166" on="0"/>
        <pt x="376" y="-137" on="1"/>
        <pt x="376" y="-117" on="0"/>
        <pt x="371" y="-117" on="1"/>
        <pt x="366" y="-120" on="1"/>
        <pt x="362" y="-124" on="0"/>
        <pt x="348" y="-130" on="0"/>
      </contour>
      <contour>
        <pt x="35" y="0" on="1"/>
        <pt x="35" y="21" on="1"/>
        <pt x="89" y="21" on="0"/>
        <pt x="98" y="41" on="1"/>
        <pt x="98" y="544" on="1"/>
        <pt x="89" y="564" on="0"/>
        <pt x="35" y="564" on="1"/>
        <pt x="35" y="585" on="1"/>
        <pt x="281" y="585" on="1"/>
        <pt x="405" y="585" on="0"/>
        <pt x="533" y="495" on="0"/>
        <pt x="533" y="437" on="1"/>
        <pt x="533" y="382" on="0"/>
        <pt x="467" y="299" on="0"/>
        <pt x="402" y="280" on="1"/>
        <pt x="535" y="42" on="1"/>
        <pt x="546" y="21" on="0"/>
        <pt x="601" y="21" on="1"/>
        <pt x="601" y="0" on="1"/>
        <pt x="558" y="0" on="1"/>
        <pt x="479" y="0" on="0"/>
        <pt x="404" y="18" on="0"/>
        <pt x="385" y="52" on="1"/>
        <pt x="264" y="266" on="1"/>
        <pt x="225" y="266" on="1"/>
        <pt x="225" y="41" on="1"/>
        <pt x="234" y="21" on="0"/>
        <pt x="288" y="21" on="1"/>
        <pt x="288" y="0" on="1"/>
      </contour>
      <contour>
        <pt x="225" y="551" on="1"/>
        <pt x="225" y="300" on="1"/>
        <pt x="258" y="300" on="1"/>
        <pt x="326" y="300" on="0"/>
        <pt x="398" y="361" on="0"/>
        <pt x="398" y="436" on="1"/>
        <pt x="398" y="494" on="0"/>
        <pt x="317" y="551" on="0"/>
        <pt x="246" y="551" on="1"/>
      </contour>
    </TTGlyph>
    <TTGlyph name="S" xMin="46" yMin="-10" xMax="441" yMax="595">
      <contour>
        <pt x="244" y="-10" on="1"/>
        <pt x="195" y="-10" on="0"/>
        <pt x="93" y="20" on="0"/>
        <pt x="91" y="20" on="1"/>
        <pt x="85" y="20" on="0"/>
        <pt x="69" y="8" on="0"/>
        <pt x="69" y="0" on="1"/>
        <pt x="46" y="0" on="1"/>
        <pt x="46" y="158" on="1"/>
        <pt x="68" y="158" on="1"/>
        <pt x="79" y="99" on="0"/>
        <pt x="189" y="24" on="0"/>
        <pt x="238" y="24" on="1"/>
        <pt x="288" y="24" on="0"/>
        <pt x="349" y="77" on="0"/>
        <pt x="349" y="120" on="1"/>
        <pt x="349" y="135" on="0"/>
        <pt x="330" y="164" on="0"/>
        <pt x="289" y="195" on="0"/>
        <pt x="257" y="216" on="0"/>
        <pt x="196" y="252" on="0"/>
        <pt x="183" y="260" on="1"/>
        <pt x="47" y="344" on="0"/>
        <pt x="47" y="440" on="1"/>
        <pt x="47" y="499" on="0"/>
        <pt x="155" y="595" on="0"/>
        <pt x="222" y="595" on="1"/>
        <pt x="252" y="595" on="0"/>
        <pt x="338" y="565" on="0"/>
        <pt x="343" y="565" on="1"/>
        <pt x="355" y="565" on="0"/>
        <pt x="355" y="585" on="1"/>
        <pt x="378" y="585" on="1"/>
        <pt x="388" y="434" on="1"/>
        <pt x="366" y="434" on="1"/>
        <pt x="360" y="475" on="0"/>
        <pt x="264" y="561" on="0"/>
        <pt x="223" y="561" on="1"/>
        <pt x="178" y="561" on="0"/>
        <pt x="132" y="504" on="0"/>
        <pt x="132" y="472" on="1"/>
        <pt x="132" y="459" on="0"/>
        <pt x="150" y="434" on="0"/>
        <pt x="190" y="404" on="0"/>
        <pt x="220" y="385" on="0"/>
        <pt x="282" y="349" on="0"/>
        <pt x="294" y="342" on="1"/>
        <pt x="363" y="300" on="0"/>
        <pt x="441" y="210" on="0"/>
        <pt x="441" y="148" on="1"/>
        <pt x="441" y="74" on="0"/>
        <pt x="321" y="-10" on="0"/>
      </contour>
    </TTGlyph>
    <TTGlyph name="Sacute" xMin="46" yMin="-10" xMax="441" yMax="782">
      <contour>
        <pt x="240" y="782" on="1"/>
        <pt x="366" y="782" on="1"/>
        <pt x="232" y="620" on="1"/>
        <pt x="186" y="620" on="1"/>
      </contour>
      <contour>
        <pt x="244" y="-10" on="1"/>
        <pt x="195" y="-10" on="0"/>
        <pt x="93" y="20" on="0"/>
        <pt x="91" y="20" on="1"/>
        <pt x="85" y="20" on="0"/>
        <pt x="69" y="8" on="0"/>
        <pt x="69" y="0" on="1"/>
        <pt x="46" y="0" on="1"/>
        <pt x="46" y="158" on="1"/>
        <pt x="68" y="158" on="1"/>
        <pt x="79" y="99" on="0"/>
        <pt x="189" y="24" on="0"/>
        <pt x="238" y="24" on="1"/>
        <pt x="288" y="24" on="0"/>
        <pt x="349" y="77" on="0"/>
        <pt x="349" y="120" on="1"/>
        <pt x="349" y="135" on="0"/>
        <pt x="330" y="164" on="0"/>
        <pt x="289" y="195" on="0"/>
        <pt x="257" y="216" on="0"/>
        <pt x="196" y="252" on="0"/>
        <pt x="183" y="260" on="1"/>
        <pt x="47" y="344" on="0"/>
        <pt x="47" y="440" on="1"/>
        <pt x="47" y="499" on="0"/>
        <pt x="155" y="595" on="0"/>
        <pt x="222" y="595" on="1"/>
        <pt x="252" y="595" on="0"/>
        <pt x="338" y="565" on="0"/>
        <pt x="343" y="565" on="1"/>
        <pt x="355" y="565" on="0"/>
        <pt x="355" y="585" on="1"/>
        <pt x="378" y="585" on="1"/>
        <pt x="388" y="434" on="1"/>
        <pt x="366" y="434" on="1"/>
        <pt x="360" y="475" on="0"/>
        <pt x="264" y="561" on="0"/>
        <pt x="223" y="561" on="1"/>
        <pt x="178" y="561" on="0"/>
        <pt x="132" y="504" on="0"/>
        <pt x="132" y="472" on="1"/>
        <pt x="132" y="459" on="0"/>
        <pt x="150" y="434" on="0"/>
        <pt x="190" y="404" on="0"/>
        <pt x="220" y="385" on="0"/>
        <pt x="282" y="349" on="0"/>
        <pt x="294" y="342" on="1"/>
        <pt x="363" y="300" on="0"/>
        <pt x="441" y="210" on="0"/>
        <pt x="441" y="148" on="1"/>
        <pt x="441" y="74" on="0"/>
        <pt x="321" y="-10" on="0"/>
      </contour>
    </TTGlyph>
    <TTGlyph name="Scaron" xMin="46" yMin="-10" xMax="441" yMax="782">
      <contour>
        <pt x="206" y="620" on="1"/>
        <pt x="112" y="782" on="1"/>
        <pt x="148" y="782" on="1"/>
        <pt x="231" y="705" on="1"/>
        <pt x="314" y="782" on="1"/>
        <pt x="350" y="782" on="1"/>
        <pt x="256" y="620" on="1"/>
      </contour>
      <contour>
        <pt x="244" y="-10" on="1"/>
        <pt x="195" y="-10" on="0"/>
        <pt x="93" y="20" on="0"/>
        <pt x="91" y="20" on="1"/>
        <pt x="85" y="20" on="0"/>
        <pt x="69" y="8" on="0"/>
        <pt x="69" y="0" on="1"/>
        <pt x="46" y="0" on="1"/>
        <pt x="46" y="158" on="1"/>
        <pt x="68" y="158" on="1"/>
        <pt x="79" y="99" on="0"/>
        <pt x="189" y="24" on="0"/>
        <pt x="238" y="24" on="1"/>
        <pt x="288" y="24" on="0"/>
        <pt x="349" y="77" on="0"/>
        <pt x="349" y="120" on="1"/>
        <pt x="349" y="135" on="0"/>
        <pt x="330" y="164" on="0"/>
        <pt x="289" y="195" on="0"/>
        <pt x="257" y="216" on="0"/>
        <pt x="196" y="252" on="0"/>
        <pt x="183" y="260" on="1"/>
        <pt x="47" y="344" on="0"/>
        <pt x="47" y="440" on="1"/>
        <pt x="47" y="499" on="0"/>
        <pt x="155" y="595" on="0"/>
        <pt x="222" y="595" on="1"/>
        <pt x="252" y="595" on="0"/>
        <pt x="338" y="565" on="0"/>
        <pt x="343" y="565" on="1"/>
        <pt x="355" y="565" on="0"/>
        <pt x="355" y="585" on="1"/>
        <pt x="378" y="585" on="1"/>
        <pt x="388" y="434" on="1"/>
        <pt x="366" y="434" on="1"/>
        <pt x="360" y="475" on="0"/>
        <pt x="264" y="561" on="0"/>
        <pt x="223" y="561" on="1"/>
        <pt x="178" y="561" on="0"/>
        <pt x="132" y="504" on="0"/>
        <pt x="132" y="472" on="1"/>
        <pt x="132" y="459" on="0"/>
        <pt x="150" y="434" on="0"/>
        <pt x="190" y="404" on="0"/>
        <pt x="220" y="385" on="0"/>
        <pt x="282" y="349" on="0"/>
        <pt x="294" y="342" on="1"/>
        <pt x="363" y="300" on="0"/>
        <pt x="441" y="210" on="0"/>
        <pt x="441" y="148" on="1"/>
        <pt x="441" y="74" on="0"/>
        <pt x="321" y="-10" on="0"/>
      </contour>
    </TTGlyph>
    <TTGlyph name="Scedilla" xMin="45" yMin="-198" xMax="440" yMax="596">
      <contour>
        <pt x="262" y="-9" on="1"/>
        <pt x="250" y="-54" on="1"/>
        <pt x="269" y="-54" on="0"/>
        <pt x="313" y="-65" on="0"/>
        <pt x="355" y="-98" on="0"/>
        <pt x="355" y="-121" on="1"/>
        <pt x="355" y="-151" on="0"/>
        <pt x="297" y="-198" on="0"/>
        <pt x="235" y="-198" on="1"/>
        <pt x="202" y="-198" on="0"/>
        <pt x="161" y="-191" on="1"/>
        <pt x="161" y="-174" on="1"/>
        <pt x="179" y="-176" on="0"/>
        <pt x="186" y="-176" on="1"/>
        <pt x="253" y="-176" on="0"/>
        <pt x="253" y="-129" on="1"/>
        <pt x="253" y="-85" on="0"/>
        <pt x="192" y="-85" on="1"/>
        <pt x="214" y="-8" on="1"/>
        <pt x="176" y="-5" on="0"/>
        <pt x="95" y="21" on="0"/>
        <pt x="90" y="21" on="1"/>
        <pt x="84" y="21" on="0"/>
        <pt x="68" y="9" on="0"/>
        <pt x="68" y="1" on="1"/>
        <pt x="45" y="1" on="1"/>
        <pt x="45" y="159" on="1"/>
        <pt x="67" y="159" on="1"/>
        <pt x="78" y="100" on="0"/>
        <pt x="188" y="25" on="0"/>
        <pt x="237" y="25" on="1"/>
        <pt x="287" y="25" on="0"/>
        <pt x="348" y="78" on="0"/>
        <pt x="348" y="121" on="1"/>
        <pt x="348" y="136" on="0"/>
        <pt x="329" y="165" on="0"/>
        <pt x="288" y="196" on="0"/>
        <pt x="256" y="217" on="0"/>
        <pt x="195" y="253" on="0"/>
        <pt x="182" y="261" on="1"/>
        <pt x="46" y="345" on="0"/>
        <pt x="46" y="441" on="1"/>
        <pt x="46" y="500" on="0"/>
        <pt x="154" y="596" on="0"/>
        <pt x="221" y="596" on="1"/>
        <pt x="250" y="596" on="0"/>
        <pt x="336" y="566" on="0"/>
        <pt x="342" y="566" on="1"/>
        <pt x="354" y="566" on="0"/>
        <pt x="354" y="586" on="1"/>
        <pt x="377" y="586" on="1"/>
        <pt x="387" y="435" on="1"/>
        <pt x="365" y="435" on="1"/>
        <pt x="359" y="476" on="0"/>
        <pt x="263" y="562" on="0"/>
        <pt x="222" y="562" on="1"/>
        <pt x="177" y="562" on="0"/>
        <pt x="131" y="505" on="0"/>
        <pt x="131" y="473" on="1"/>
        <pt x="131" y="460" on="0"/>
        <pt x="149" y="435" on="0"/>
        <pt x="189" y="405" on="0"/>
        <pt x="219" y="386" on="0"/>
        <pt x="281" y="350" on="0"/>
        <pt x="293" y="343" on="1"/>
        <pt x="362" y="301" on="0"/>
        <pt x="440" y="211" on="0"/>
        <pt x="440" y="149" on="1"/>
        <pt x="440" y="79" on="0"/>
        <pt x="335" y="-3" on="0"/>
      </contour>
    </TTGlyph>
    <TTGlyph name="Scircumflex" xMin="46" yMin="-10" xMax="441" yMax="782">
      <contour>
        <pt x="255" y="782" on="1"/>
        <pt x="349" y="620" on="1"/>
        <pt x="313" y="620" on="1"/>
        <pt x="230" y="687" on="1"/>
        <pt x="147" y="620" on="1"/>
        <pt x="111" y="620" on="1"/>
        <pt x="205" y="782" on="1"/>
      </contour>
      <contour>
        <pt x="244" y="-10" on="1"/>
        <pt x="195" y="-10" on="0"/>
        <pt x="93" y="20" on="0"/>
        <pt x="91" y="20" on="1"/>
        <pt x="85" y="20" on="0"/>
        <pt x="69" y="8" on="0"/>
        <pt x="69" y="0" on="1"/>
        <pt x="46" y="0" on="1"/>
        <pt x="46" y="158" on="1"/>
        <pt x="68" y="158" on="1"/>
        <pt x="79" y="99" on="0"/>
        <pt x="189" y="24" on="0"/>
        <pt x="238" y="24" on="1"/>
        <pt x="288" y="24" on="0"/>
        <pt x="349" y="77" on="0"/>
        <pt x="349" y="120" on="1"/>
        <pt x="349" y="135" on="0"/>
        <pt x="330" y="164" on="0"/>
        <pt x="289" y="195" on="0"/>
        <pt x="257" y="216" on="0"/>
        <pt x="196" y="252" on="0"/>
        <pt x="183" y="260" on="1"/>
        <pt x="47" y="344" on="0"/>
        <pt x="47" y="440" on="1"/>
        <pt x="47" y="499" on="0"/>
        <pt x="155" y="595" on="0"/>
        <pt x="222" y="595" on="1"/>
        <pt x="252" y="595" on="0"/>
        <pt x="338" y="565" on="0"/>
        <pt x="343" y="565" on="1"/>
        <pt x="355" y="565" on="0"/>
        <pt x="355" y="585" on="1"/>
        <pt x="378" y="585" on="1"/>
        <pt x="388" y="434" on="1"/>
        <pt x="366" y="434" on="1"/>
        <pt x="360" y="475" on="0"/>
        <pt x="264" y="561" on="0"/>
        <pt x="223" y="561" on="1"/>
        <pt x="178" y="561" on="0"/>
        <pt x="132" y="504" on="0"/>
        <pt x="132" y="472" on="1"/>
        <pt x="132" y="459" on="0"/>
        <pt x="150" y="434" on="0"/>
        <pt x="190" y="404" on="0"/>
        <pt x="220" y="385" on="0"/>
        <pt x="282" y="349" on="0"/>
        <pt x="294" y="342" on="1"/>
        <pt x="363" y="300" on="0"/>
        <pt x="441" y="210" on="0"/>
        <pt x="441" y="148" on="1"/>
        <pt x="441" y="74" on="0"/>
        <pt x="321" y="-10" on="0"/>
      </contour>
    </TTGlyph>
    <TTGlyph name="Scommaaccent" xMin="46" yMin="-255" xMax="441" yMax="595">
      <contour>
        <pt x="246" y="-130" on="1"/>
        <pt x="221" y="-130" on="0"/>
        <pt x="190" y="-104" on="0"/>
        <pt x="190" y="-81" on="1"/>
        <pt x="190" y="-60" on="0"/>
        <pt x="215" y="-36" on="0"/>
        <pt x="233" y="-33" on="0"/>
        <pt x="241" y="-33" on="1"/>
        <pt x="282" y="-33" on="0"/>
        <pt x="338" y="-84" on="0"/>
        <pt x="338" y="-125" on="1"/>
        <pt x="338" y="-214" on="0"/>
        <pt x="204" y="-255" on="1"/>
        <pt x="204" y="-216" on="1"/>
        <pt x="231" y="-213" on="0"/>
        <pt x="282" y="-166" on="0"/>
        <pt x="282" y="-137" on="1"/>
        <pt x="282" y="-117" on="0"/>
        <pt x="277" y="-117" on="1"/>
        <pt x="272" y="-120" on="1"/>
        <pt x="268" y="-124" on="0"/>
        <pt x="254" y="-130" on="0"/>
      </contour>
      <contour>
        <pt x="244" y="-10" on="1"/>
        <pt x="195" y="-10" on="0"/>
        <pt x="93" y="20" on="0"/>
        <pt x="91" y="20" on="1"/>
        <pt x="85" y="20" on="0"/>
        <pt x="69" y="8" on="0"/>
        <pt x="69" y="0" on="1"/>
        <pt x="46" y="0" on="1"/>
        <pt x="46" y="158" on="1"/>
        <pt x="68" y="158" on="1"/>
        <pt x="79" y="99" on="0"/>
        <pt x="189" y="24" on="0"/>
        <pt x="238" y="24" on="1"/>
        <pt x="288" y="24" on="0"/>
        <pt x="349" y="77" on="0"/>
        <pt x="349" y="120" on="1"/>
        <pt x="349" y="135" on="0"/>
        <pt x="330" y="164" on="0"/>
        <pt x="289" y="195" on="0"/>
        <pt x="257" y="216" on="0"/>
        <pt x="196" y="252" on="0"/>
        <pt x="183" y="260" on="1"/>
        <pt x="47" y="344" on="0"/>
        <pt x="47" y="440" on="1"/>
        <pt x="47" y="499" on="0"/>
        <pt x="155" y="595" on="0"/>
        <pt x="222" y="595" on="1"/>
        <pt x="252" y="595" on="0"/>
        <pt x="338" y="565" on="0"/>
        <pt x="343" y="565" on="1"/>
        <pt x="355" y="565" on="0"/>
        <pt x="355" y="585" on="1"/>
        <pt x="378" y="585" on="1"/>
        <pt x="388" y="434" on="1"/>
        <pt x="366" y="434" on="1"/>
        <pt x="360" y="475" on="0"/>
        <pt x="264" y="561" on="0"/>
        <pt x="223" y="561" on="1"/>
        <pt x="178" y="561" on="0"/>
        <pt x="132" y="504" on="0"/>
        <pt x="132" y="472" on="1"/>
        <pt x="132" y="459" on="0"/>
        <pt x="150" y="434" on="0"/>
        <pt x="190" y="404" on="0"/>
        <pt x="220" y="385" on="0"/>
        <pt x="282" y="349" on="0"/>
        <pt x="294" y="342" on="1"/>
        <pt x="363" y="300" on="0"/>
        <pt x="441" y="210" on="0"/>
        <pt x="441" y="148" on="1"/>
        <pt x="441" y="74" on="0"/>
        <pt x="321" y="-10" on="0"/>
      </contour>
    </TTGlyph>
    <TTGlyph name="T" xMin="13" yMin="0" xMax="530" yMax="585">
      <contour>
        <pt x="13" y="585" on="1"/>
        <pt x="530" y="585" on="1"/>
        <pt x="530" y="488" on="1"/>
        <pt x="509" y="488" on="1"/>
        <pt x="509" y="536" on="0"/>
        <pt x="474" y="551" on="1"/>
        <pt x="335" y="551" on="1"/>
        <pt x="335" y="41" on="1"/>
        <pt x="344" y="21" on="0"/>
        <pt x="398" y="21" on="1"/>
        <pt x="398" y="0" on="1"/>
        <pt x="145" y="0" on="1"/>
        <pt x="145" y="21" on="1"/>
        <pt x="199" y="21" on="0"/>
        <pt x="208" y="41" on="1"/>
        <pt x="208" y="551" on="1"/>
        <pt x="69" y="551" on="1"/>
        <pt x="34" y="536" on="0"/>
        <pt x="34" y="488" on="1"/>
        <pt x="13" y="488" on="1"/>
      </contour>
    </TTGlyph>
    <TTGlyph name="Tbar" xMin="13" yMin="0" xMax="530" yMax="585">
      <contour>
        <pt x="13" y="585" on="1"/>
        <pt x="530" y="585" on="1"/>
        <pt x="530" y="488" on="1"/>
        <pt x="509" y="488" on="1"/>
        <pt x="509" y="536" on="0"/>
        <pt x="474" y="551" on="1"/>
        <pt x="335" y="551" on="1"/>
        <pt x="335" y="333" on="1"/>
        <pt x="416" y="333" on="1"/>
        <pt x="416" y="299" on="1"/>
        <pt x="335" y="299" on="1"/>
        <pt x="335" y="41" on="1"/>
        <pt x="344" y="21" on="0"/>
        <pt x="398" y="21" on="1"/>
        <pt x="398" y="0" on="1"/>
        <pt x="145" y="0" on="1"/>
        <pt x="145" y="21" on="1"/>
        <pt x="199" y="21" on="0"/>
        <pt x="208" y="41" on="1"/>
        <pt x="208" y="299" on="1"/>
        <pt x="132" y="299" on="1"/>
        <pt x="132" y="333" on="1"/>
        <pt x="208" y="333" on="1"/>
        <pt x="208" y="551" on="1"/>
        <pt x="69" y="551" on="1"/>
        <pt x="34" y="536" on="0"/>
        <pt x="34" y="488" on="1"/>
        <pt x="13" y="488" on="1"/>
      </contour>
    </TTGlyph>
    <TTGlyph name="Tcaron" xMin="13" yMin="0" xMax="530" yMax="782">
      <contour>
        <pt x="250" y="620" on="1"/>
        <pt x="156" y="782" on="1"/>
        <pt x="192" y="782" on="1"/>
        <pt x="275" y="705" on="1"/>
        <pt x="358" y="782" on="1"/>
        <pt x="394" y="782" on="1"/>
        <pt x="300" y="620" on="1"/>
      </contour>
      <contour>
        <pt x="13" y="585" on="1"/>
        <pt x="530" y="585" on="1"/>
        <pt x="530" y="488" on="1"/>
        <pt x="509" y="488" on="1"/>
        <pt x="509" y="536" on="0"/>
        <pt x="474" y="551" on="1"/>
        <pt x="335" y="551" on="1"/>
        <pt x="335" y="41" on="1"/>
        <pt x="344" y="21" on="0"/>
        <pt x="398" y="21" on="1"/>
        <pt x="398" y="0" on="1"/>
        <pt x="145" y="0" on="1"/>
        <pt x="145" y="21" on="1"/>
        <pt x="199" y="21" on="0"/>
        <pt x="208" y="41" on="1"/>
        <pt x="208" y="551" on="1"/>
        <pt x="69" y="551" on="1"/>
        <pt x="34" y="536" on="0"/>
        <pt x="34" y="488" on="1"/>
        <pt x="13" y="488" on="1"/>
      </contour>
    </TTGlyph>
    <TTGlyph name="Tcommaaccent" xMin="13" yMin="-199" xMax="530" yMax="585">
      <contour>
        <pt x="13" y="585" on="1"/>
        <pt x="530" y="585" on="1"/>
        <pt x="530" y="488" on="1"/>
        <pt x="509" y="488" on="1"/>
        <pt x="509" y="536" on="0"/>
        <pt x="474" y="551" on="1"/>
        <pt x="335" y="551" on="1"/>
        <pt x="335" y="41" on="1"/>
        <pt x="344" y="21" on="0"/>
        <pt x="398" y="21" on="1"/>
        <pt x="398" y="0" on="1"/>
        <pt x="298" y="0" on="1"/>
        <pt x="283" y="-55" on="1"/>
        <pt x="302" y="-55" on="0"/>
        <pt x="346" y="-66" on="0"/>
        <pt x="388" y="-99" on="0"/>
        <pt x="388" y="-122" on="1"/>
        <pt x="388" y="-152" on="0"/>
        <pt x="330" y="-199" on="0"/>
        <pt x="268" y="-199" on="1"/>
        <pt x="235" y="-199" on="0"/>
        <pt x="194" y="-192" on="1"/>
        <pt x="194" y="-175" on="1"/>
        <pt x="212" y="-177" on="0"/>
        <pt x="219" y="-177" on="1"/>
        <pt x="286" y="-177" on="0"/>
        <pt x="286" y="-130" on="1"/>
        <pt x="286" y="-86" on="0"/>
        <pt x="225" y="-86" on="1"/>
        <pt x="250" y="0" on="1"/>
        <pt x="145" y="0" on="1"/>
        <pt x="145" y="21" on="1"/>
        <pt x="199" y="21" on="0"/>
        <pt x="208" y="41" on="1"/>
        <pt x="208" y="551" on="1"/>
        <pt x="69" y="551" on="1"/>
        <pt x="34" y="536" on="0"/>
        <pt x="34" y="488" on="1"/>
        <pt x="13" y="488" on="1"/>
      </contour>
    </TTGlyph>
    <TTGlyph name="Thorn" xMin="36" yMin="0" xMax="515" yMax="585">
      <contour>
        <pt x="36" y="0" on="1"/>
        <pt x="36" y="21" on="1"/>
        <pt x="90" y="21" on="0"/>
        <pt x="99" y="41" on="1"/>
        <pt x="99" y="544" on="1"/>
        <pt x="90" y="564" on="0"/>
        <pt x="36" y="564" on="1"/>
        <pt x="36" y="585" on="1"/>
        <pt x="289" y="585" on="1"/>
        <pt x="289" y="564" on="1"/>
        <pt x="235" y="564" on="0"/>
        <pt x="226" y="544" on="1"/>
        <pt x="226" y="475" on="1"/>
        <pt x="243" y="475" on="1"/>
        <pt x="369" y="475" on="0"/>
        <pt x="515" y="374" on="0"/>
        <pt x="515" y="308" on="1"/>
        <pt x="515" y="233" on="0"/>
        <pt x="375" y="126" on="0"/>
        <pt x="255" y="126" on="1"/>
        <pt x="226" y="126" on="1"/>
        <pt x="226" y="41" on="1"/>
        <pt x="235" y="21" on="0"/>
        <pt x="289" y="21" on="1"/>
        <pt x="289" y="0" on="1"/>
      </contour>
      <contour>
        <pt x="226" y="441" on="1"/>
        <pt x="226" y="160" on="1"/>
        <pt x="308" y="160" on="0"/>
        <pt x="380" y="230" on="0"/>
        <pt x="380" y="307" on="1"/>
        <pt x="380" y="369" on="0"/>
        <pt x="312" y="441" on="0"/>
      </contour>
    </TTGlyph>
    <TTGlyph name="U" xMin="18" yMin="-10" xMax="586" yMax="585">
      <contour>
        <pt x="346" y="24" on="1"/>
        <pt x="411" y="24" on="0"/>
        <pt x="489" y="134" on="0"/>
        <pt x="489" y="228" on="1"/>
        <pt x="489" y="544" on="1"/>
        <pt x="480" y="564" on="0"/>
        <pt x="426" y="564" on="1"/>
        <pt x="426" y="585" on="1"/>
        <pt x="586" y="585" on="1"/>
        <pt x="586" y="564" on="1"/>
        <pt x="532" y="564" on="0"/>
        <pt x="523" y="544" on="1"/>
        <pt x="523" y="248" on="1"/>
        <pt x="523" y="118" on="0"/>
        <pt x="408" y="-10" on="0"/>
        <pt x="321" y="-10" on="1"/>
        <pt x="81" y="-10" on="0"/>
        <pt x="81" y="248" on="1"/>
        <pt x="81" y="544" on="1"/>
        <pt x="72" y="564" on="0"/>
        <pt x="18" y="564" on="1"/>
        <pt x="18" y="585" on="1"/>
        <pt x="271" y="585" on="1"/>
        <pt x="271" y="564" on="1"/>
        <pt x="217" y="564" on="0"/>
        <pt x="208" y="544" on="1"/>
        <pt x="208" y="234" on="1"/>
        <pt x="208" y="132" on="0"/>
        <pt x="278" y="24" on="0"/>
      </contour>
    </TTGlyph>
    <TTGlyph name="Uacute" xMin="18" yMin="-10" xMax="586" yMax="782">
      <component glyphName="acutecomb" x="605" y="120" flags="0x1004"/>
      <component glyphName="U" x="0" y="0" flags="0x1204"/>
    </TTGlyph>
    <TTGlyph name="Ubreve" xMin="18" yMin="-10" xMax="586" yMax="754">
      <contour>
        <pt x="351" y="630" on="1"/>
        <pt x="290" y="630" on="0"/>
        <pt x="225" y="711" on="0"/>
        <pt x="225" y="754" on="1"/>
        <pt x="253" y="754" on="1"/>
        <pt x="274" y="710" on="0"/>
        <pt x="428" y="710" on="0"/>
        <pt x="449" y="754" on="1"/>
        <pt x="477" y="754" on="1"/>
        <pt x="477" y="710" on="0"/>
        <pt x="413" y="630" on="0"/>
      </contour>
      <contour>
        <pt x="346" y="24" on="1"/>
        <pt x="411" y="24" on="0"/>
        <pt x="489" y="134" on="0"/>
        <pt x="489" y="228" on="1"/>
        <pt x="489" y="544" on="1"/>
        <pt x="480" y="564" on="0"/>
        <pt x="426" y="564" on="1"/>
        <pt x="426" y="585" on="1"/>
        <pt x="586" y="585" on="1"/>
        <pt x="586" y="564" on="1"/>
        <pt x="532" y="564" on="0"/>
        <pt x="523" y="544" on="1"/>
        <pt x="523" y="248" on="1"/>
        <pt x="523" y="118" on="0"/>
        <pt x="408" y="-10" on="0"/>
        <pt x="321" y="-10" on="1"/>
        <pt x="81" y="-10" on="0"/>
        <pt x="81" y="248" on="1"/>
        <pt x="81" y="544" on="1"/>
        <pt x="72" y="564" on="0"/>
        <pt x="18" y="564" on="1"/>
        <pt x="18" y="585" on="1"/>
        <pt x="271" y="585" on="1"/>
        <pt x="271" y="564" on="1"/>
        <pt x="217" y="564" on="0"/>
        <pt x="208" y="544" on="1"/>
        <pt x="208" y="234" on="1"/>
        <pt x="208" y="132" on="0"/>
        <pt x="278" y="24" on="0"/>
      </contour>
    </TTGlyph>
    <TTGlyph name="Ucircumflex" xMin="18" yMin="-10" xMax="586" yMax="782">
      <component glyphName="uni0302" x="605" y="120" flags="0x1004"/>
      <component glyphName="U" x="0" y="0" flags="0x1204"/>
    </TTGlyph>
    <TTGlyph name="Udieresis" xMin="18" yMin="-10" xMax="586" yMax="738">
      <component glyphName="uni0308" x="605" y="120" flags="0x1004"/>
      <component glyphName="U" x="0" y="0" flags="0x1204"/>
    </TTGlyph>
    <TTGlyph name="Ugrave" xMin="18" yMin="-10" xMax="586" yMax="782">
      <component glyphName="gravecomb" x="605" y="120" flags="0x1004"/>
      <component glyphName="U" x="0" y="0" flags="0x1204"/>
    </TTGlyph>
    <TTGlyph name="Uhorn" xMin="18" yMin="-10" xMax="673" yMax="749">
      <contour>
        <pt x="615" y="650" on="1"/>
        <pt x="613" y="652" on="0"/>
        <pt x="610" y="652" on="1"/>
        <pt x="609" y="652" on="0"/>
        <pt x="597" y="650" on="0"/>
        <pt x="594" y="650" on="1"/>
        <pt x="570" y="650" on="0"/>
        <pt x="543" y="675" on="0"/>
        <pt x="543" y="699" on="1"/>
        <pt x="543" y="721" on="0"/>
        <pt x="573" y="749" on="0"/>
        <pt x="589" y="749" on="1"/>
        <pt x="628" y="749" on="0"/>
        <pt x="673" y="698" on="0"/>
        <pt x="673" y="659" on="1"/>
        <pt x="673" y="618" on="0"/>
        <pt x="619" y="568" on="0"/>
        <pt x="558" y="554" on="0"/>
        <pt x="523" y="554" on="1"/>
        <pt x="523" y="248" on="1"/>
        <pt x="523" y="118" on="0"/>
        <pt x="408" y="-10" on="0"/>
        <pt x="321" y="-10" on="1"/>
        <pt x="81" y="-10" on="0"/>
        <pt x="81" y="248" on="1"/>
        <pt x="81" y="544" on="1"/>
        <pt x="72" y="564" on="0"/>
        <pt x="18" y="564" on="1"/>
        <pt x="18" y="585" on="1"/>
        <pt x="271" y="585" on="1"/>
        <pt x="271" y="564" on="1"/>
        <pt x="217" y="564" on="0"/>
        <pt x="208" y="544" on="1"/>
        <pt x="208" y="234" on="1"/>
        <pt x="208" y="132" on="0"/>
        <pt x="278" y="24" on="0"/>
        <pt x="346" y="24" on="1"/>
        <pt x="411" y="24" on="0"/>
        <pt x="489" y="134" on="0"/>
        <pt x="489" y="228" on="1"/>
        <pt x="489" y="544" on="1"/>
        <pt x="480" y="564" on="0"/>
        <pt x="426" y="564" on="1"/>
        <pt x="426" y="585" on="1"/>
        <pt x="523" y="585" on="1"/>
        <pt x="568" y="585" on="0"/>
        <pt x="615" y="620" on="0"/>
      </contour>
    </TTGlyph>
    <TTGlyph name="Uhungarumlaut" xMin="18" yMin="-10" xMax="586" yMax="782">
      <contour>
        <pt x="275" y="782" on="1"/>
        <pt x="401" y="782" on="1"/>
        <pt x="267" y="620" on="1"/>
        <pt x="221" y="620" on="1"/>
      </contour>
      <contour>
        <pt x="435" y="782" on="1"/>
        <pt x="561" y="782" on="1"/>
        <pt x="427" y="620" on="1"/>
        <pt x="381" y="620" on="1"/>
      </contour>
      <contour>
        <pt x="346" y="24" on="1"/>
        <pt x="411" y="24" on="0"/>
        <pt x="489" y="134" on="0"/>
        <pt x="489" y="228" on="1"/>
        <pt x="489" y="544" on="1"/>
        <pt x="480" y="564" on="0"/>
        <pt x="426" y="564" on="1"/>
        <pt x="426" y="585" on="1"/>
        <pt x="586" y="585" on="1"/>
        <pt x="586" y="564" on="1"/>
        <pt x="532" y="564" on="0"/>
        <pt x="523" y="544" on="1"/>
        <pt x="523" y="248" on="1"/>
        <pt x="523" y="118" on="0"/>
        <pt x="408" y="-10" on="0"/>
        <pt x="321" y="-10" on="1"/>
        <pt x="81" y="-10" on="0"/>
        <pt x="81" y="248" on="1"/>
        <pt x="81" y="544" on="1"/>
        <pt x="72" y="564" on="0"/>
        <pt x="18" y="564" on="1"/>
        <pt x="18" y="585" on="1"/>
        <pt x="271" y="585" on="1"/>
        <pt x="271" y="564" on="1"/>
        <pt x="217" y="564" on="0"/>
        <pt x="208" y="544" on="1"/>
        <pt x="208" y="234" on="1"/>
        <pt x="208" y="132" on="0"/>
        <pt x="278" y="24" on="0"/>
      </contour>
    </TTGlyph>
    <TTGlyph name="Umacron" xMin="18" yMin="-10" xMax="586" yMax="688">
      <contour>
        <pt x="213" y="688" on="1"/>
        <pt x="477" y="688" on="1"/>
        <pt x="477" y="634" on="1"/>
        <pt x="213" y="634" on="1"/>
      </contour>
      <contour>
        <pt x="346" y="24" on="1"/>
        <pt x="411" y="24" on="0"/>
        <pt x="489" y="134" on="0"/>
        <pt x="489" y="228" on="1"/>
        <pt x="489" y="544" on="1"/>
        <pt x="480" y="564" on="0"/>
        <pt x="426" y="564" on="1"/>
        <pt x="426" y="585" on="1"/>
        <pt x="586" y="585" on="1"/>
        <pt x="586" y="564" on="1"/>
        <pt x="532" y="564" on="0"/>
        <pt x="523" y="544" on="1"/>
        <pt x="523" y="248" on="1"/>
        <pt x="523" y="118" on="0"/>
        <pt x="408" y="-10" on="0"/>
        <pt x="321" y="-10" on="1"/>
        <pt x="81" y="-10" on="0"/>
        <pt x="81" y="248" on="1"/>
        <pt x="81" y="544" on="1"/>
        <pt x="72" y="564" on="0"/>
        <pt x="18" y="564" on="1"/>
        <pt x="18" y="585" on="1"/>
        <pt x="271" y="585" on="1"/>
        <pt x="271" y="564" on="1"/>
        <pt x="217" y="564" on="0"/>
        <pt x="208" y="544" on="1"/>
        <pt x="208" y="234" on="1"/>
        <pt x="208" y="132" on="0"/>
        <pt x="278" y="24" on="0"/>
      </contour>
    </TTGlyph>
    <TTGlyph name="Uogonek" xMin="19" yMin="-199" xMax="587" yMax="586">
      <contour>
        <pt x="347" y="24" on="1"/>
        <pt x="347" y="25" on="1"/>
        <pt x="412" y="25" on="0"/>
        <pt x="490" y="135" on="0"/>
        <pt x="490" y="229" on="1"/>
        <pt x="490" y="545" on="1"/>
        <pt x="481" y="565" on="0"/>
        <pt x="427" y="565" on="1"/>
        <pt x="427" y="586" on="1"/>
        <pt x="587" y="586" on="1"/>
        <pt x="587" y="565" on="1"/>
        <pt x="533" y="565" on="0"/>
        <pt x="524" y="545" on="1"/>
        <pt x="524" y="249" on="1"/>
        <pt x="524" y="123" on="0"/>
        <pt x="416" y="-5" on="0"/>
        <pt x="333" y="-9" on="1"/>
        <pt x="314" y="-39" on="0"/>
        <pt x="314" y="-67" on="1"/>
        <pt x="314" y="-113" on="0"/>
        <pt x="360" y="-165" on="0"/>
        <pt x="397" y="-165" on="1"/>
        <pt x="405" y="-165" on="0"/>
        <pt x="420" y="-157" on="0"/>
        <pt x="424" y="-153" on="1"/>
        <pt x="428" y="-149" on="1"/>
        <pt x="439" y="-167" on="1"/>
        <pt x="437" y="-171" on="0"/>
        <pt x="427" y="-181" on="0"/>
        <pt x="386" y="-199" on="0"/>
        <pt x="360" y="-199" on="1"/>
        <pt x="310" y="-199" on="0"/>
        <pt x="255" y="-147" on="0"/>
        <pt x="255" y="-102" on="1"/>
        <pt x="255" y="-49" on="0"/>
        <pt x="294" y="-8" on="1"/>
        <pt x="82" y="6" on="0"/>
        <pt x="82" y="248" on="1"/>
        <pt x="82" y="544" on="1"/>
        <pt x="73" y="564" on="0"/>
        <pt x="19" y="564" on="1"/>
        <pt x="19" y="585" on="1"/>
        <pt x="272" y="585" on="1"/>
        <pt x="272" y="564" on="1"/>
        <pt x="218" y="564" on="0"/>
        <pt x="209" y="544" on="1"/>
        <pt x="209" y="234" on="1"/>
        <pt x="209" y="132" on="0"/>
        <pt x="279" y="24" on="0"/>
      </contour>
    </TTGlyph>
    <TTGlyph name="Uring" xMin="18" yMin="-10" xMax="586" yMax="763">
      <contour>
        <pt x="309" y="706" on="0"/>
        <pt x="309" y="672" on="0"/>
        <pt x="334" y="647" on="0"/>
        <pt x="368" y="647" on="0"/>
        <pt x="393" y="672" on="0"/>
        <pt x="393" y="706" on="0"/>
        <pt x="368" y="731" on="0"/>
        <pt x="334" y="731" on="0"/>
      </contour>
      <contour>
        <pt x="277" y="658" on="0"/>
        <pt x="277" y="720" on="0"/>
        <pt x="320" y="763" on="0"/>
        <pt x="382" y="763" on="0"/>
        <pt x="425" y="720" on="0"/>
        <pt x="425" y="658" on="0"/>
        <pt x="382" y="615" on="0"/>
        <pt x="320" y="615" on="0"/>
      </contour>
      <contour>
        <pt x="346" y="24" on="1"/>
        <pt x="411" y="24" on="0"/>
        <pt x="489" y="134" on="0"/>
        <pt x="489" y="228" on="1"/>
        <pt x="489" y="544" on="1"/>
        <pt x="480" y="564" on="0"/>
        <pt x="426" y="564" on="1"/>
        <pt x="426" y="585" on="1"/>
        <pt x="586" y="585" on="1"/>
        <pt x="586" y="564" on="1"/>
        <pt x="532" y="564" on="0"/>
        <pt x="523" y="544" on="1"/>
        <pt x="523" y="248" on="1"/>
        <pt x="523" y="118" on="0"/>
        <pt x="408" y="-10" on="0"/>
        <pt x="321" y="-10" on="1"/>
        <pt x="81" y="-10" on="0"/>
        <pt x="81" y="248" on="1"/>
        <pt x="81" y="544" on="1"/>
        <pt x="72" y="564" on="0"/>
        <pt x="18" y="564" on="1"/>
        <pt x="18" y="585" on="1"/>
        <pt x="271" y="585" on="1"/>
        <pt x="271" y="564" on="1"/>
        <pt x="217" y="564" on="0"/>
        <pt x="208" y="544" on="1"/>
        <pt x="208" y="234" on="1"/>
        <pt x="208" y="132" on="0"/>
        <pt x="278" y="24" on="0"/>
      </contour>
    </TTGlyph>
    <TTGlyph name="Utilde" xMin="18" yMin="-10" xMax="586" yMax="742">
      <contour>
        <pt x="426" y="610" on="1"/>
        <pt x="404" y="610" on="0"/>
        <pt x="285" y="669" on="0"/>
        <pt x="271" y="669" on="1"/>
        <pt x="241" y="669" on="0"/>
        <pt x="221" y="648" on="0"/>
        <pt x="221" y="620" on="1"/>
        <pt x="202" y="620" on="1"/>
        <pt x="202" y="685" on="0"/>
        <pt x="245" y="742" on="0"/>
        <pt x="278" y="742" on="1"/>
        <pt x="300" y="742" on="0"/>
        <pt x="420" y="683" on="0"/>
        <pt x="434" y="683" on="1"/>
        <pt x="464" y="683" on="0"/>
        <pt x="484" y="704" on="0"/>
        <pt x="484" y="732" on="1"/>
        <pt x="503" y="732" on="1"/>
        <pt x="503" y="667" on="0"/>
        <pt x="459" y="610" on="0"/>
      </contour>
      <contour>
        <pt x="346" y="24" on="1"/>
        <pt x="411" y="24" on="0"/>
        <pt x="489" y="134" on="0"/>
        <pt x="489" y="228" on="1"/>
        <pt x="489" y="544" on="1"/>
        <pt x="480" y="564" on="0"/>
        <pt x="426" y="564" on="1"/>
        <pt x="426" y="585" on="1"/>
        <pt x="586" y="585" on="1"/>
        <pt x="586" y="564" on="1"/>
        <pt x="532" y="564" on="0"/>
        <pt x="523" y="544" on="1"/>
        <pt x="523" y="248" on="1"/>
        <pt x="523" y="118" on="0"/>
        <pt x="408" y="-10" on="0"/>
        <pt x="321" y="-10" on="1"/>
        <pt x="81" y="-10" on="0"/>
        <pt x="81" y="248" on="1"/>
        <pt x="81" y="544" on="1"/>
        <pt x="72" y="564" on="0"/>
        <pt x="18" y="564" on="1"/>
        <pt x="18" y="585" on="1"/>
        <pt x="271" y="585" on="1"/>
        <pt x="271" y="564" on="1"/>
        <pt x="217" y="564" on="0"/>
        <pt x="208" y="544" on="1"/>
        <pt x="208" y="234" on="1"/>
        <pt x="208" y="132" on="0"/>
        <pt x="278" y="24" on="0"/>
      </contour>
    </TTGlyph>
    <TTGlyph name="V" xMin="-17" yMin="0" xMax="581" yMax="585">
      <contour>
        <pt x="479" y="546" on="1"/>
        <pt x="469" y="564" on="0"/>
        <pt x="417" y="564" on="1"/>
        <pt x="417" y="585" on="1"/>
        <pt x="581" y="585" on="1"/>
        <pt x="581" y="564" on="1"/>
        <pt x="526" y="564" on="0"/>
        <pt x="518" y="543" on="1"/>
        <pt x="324" y="0" on="1"/>
        <pt x="243" y="0" on="1"/>
        <pt x="47" y="543" on="1"/>
        <pt x="40" y="564" on="0"/>
        <pt x="-17" y="564" on="1"/>
        <pt x="-17" y="585" on="1"/>
        <pt x="237" y="585" on="1"/>
        <pt x="237" y="564" on="1"/>
        <pt x="191" y="564" on="0"/>
        <pt x="179" y="552" on="1"/>
        <pt x="332" y="133" on="1"/>
      </contour>
    </TTGlyph>
    <TTGlyph name="W" xMin="-17" yMin="0" xMax="913" yMax="585">
      <contour>
        <pt x="569" y="585" on="1"/>
        <pt x="569" y="564" on="1"/>
        <pt x="523" y="564" on="0"/>
        <pt x="511" y="552" on="1"/>
        <pt x="664" y="133" on="1"/>
        <pt x="811" y="546" on="1"/>
        <pt x="801" y="564" on="0"/>
        <pt x="749" y="564" on="1"/>
        <pt x="749" y="585" on="1"/>
        <pt x="913" y="585" on="1"/>
        <pt x="913" y="564" on="1"/>
        <pt x="858" y="564" on="0"/>
        <pt x="850" y="543" on="1"/>
        <pt x="656" y="0" on="1"/>
        <pt x="573" y="0" on="1"/>
        <pt x="448" y="349" on="1"/>
        <pt x="324" y="0" on="1"/>
        <pt x="241" y="0" on="1"/>
        <pt x="47" y="543" on="1"/>
        <pt x="40" y="564" on="0"/>
        <pt x="-17" y="564" on="1"/>
        <pt x="-17" y="585" on="1"/>
        <pt x="237" y="585" on="1"/>
        <pt x="237" y="564" on="1"/>
        <pt x="191" y="564" on="0"/>
        <pt x="179" y="552" on="1"/>
        <pt x="332" y="134" on="1"/>
        <pt x="428" y="405" on="1"/>
        <pt x="379" y="543" on="1"/>
        <pt x="372" y="564" on="0"/>
        <pt x="315" y="564" on="1"/>
        <pt x="315" y="585" on="1"/>
      </contour>
    </TTGlyph>
    <TTGlyph name="Wacute" xMin="-17" yMin="0" xMax="913" yMax="782">
      <contour>
        <pt x="439" y="782" on="1"/>
        <pt x="565" y="782" on="1"/>
        <pt x="431" y="620" on="1"/>
        <pt x="385" y="620" on="1"/>
      </contour>
      <contour>
        <pt x="569" y="585" on="1"/>
        <pt x="569" y="564" on="1"/>
        <pt x="523" y="564" on="0"/>
        <pt x="511" y="552" on="1"/>
        <pt x="664" y="133" on="1"/>
        <pt x="811" y="546" on="1"/>
        <pt x="801" y="564" on="0"/>
        <pt x="749" y="564" on="1"/>
        <pt x="749" y="585" on="1"/>
        <pt x="913" y="585" on="1"/>
        <pt x="913" y="564" on="1"/>
        <pt x="858" y="564" on="0"/>
        <pt x="850" y="543" on="1"/>
        <pt x="656" y="0" on="1"/>
        <pt x="573" y="0" on="1"/>
        <pt x="448" y="349" on="1"/>
        <pt x="324" y="0" on="1"/>
        <pt x="241" y="0" on="1"/>
        <pt x="47" y="543" on="1"/>
        <pt x="40" y="564" on="0"/>
        <pt x="-17" y="564" on="1"/>
        <pt x="-17" y="585" on="1"/>
        <pt x="237" y="585" on="1"/>
        <pt x="237" y="564" on="1"/>
        <pt x="191" y="564" on="0"/>
        <pt x="179" y="552" on="1"/>
        <pt x="332" y="134" on="1"/>
        <pt x="428" y="405" on="1"/>
        <pt x="379" y="543" on="1"/>
        <pt x="372" y="564" on="0"/>
        <pt x="315" y="564" on="1"/>
        <pt x="315" y="585" on="1"/>
      </contour>
    </TTGlyph>
    <TTGlyph name="Wcircumflex" xMin="-17" yMin="0" xMax="913" yMax="782">
      <contour>
        <pt x="454" y="782" on="1"/>
        <pt x="548" y="620" on="1"/>
        <pt x="512" y="620" on="1"/>
        <pt x="429" y="687" on="1"/>
        <pt x="346" y="620" on="1"/>
        <pt x="310" y="620" on="1"/>
        <pt x="404" y="782" on="1"/>
      </contour>
      <contour>
        <pt x="569" y="585" on="1"/>
        <pt x="569" y="564" on="1"/>
        <pt x="523" y="564" on="0"/>
        <pt x="511" y="552" on="1"/>
        <pt x="664" y="133" on="1"/>
        <pt x="811" y="546" on="1"/>
        <pt x="801" y="564" on="0"/>
        <pt x="749" y="564" on="1"/>
        <pt x="749" y="585" on="1"/>
        <pt x="913" y="585" on="1"/>
        <pt x="913" y="564" on="1"/>
        <pt x="858" y="564" on="0"/>
        <pt x="850" y="543" on="1"/>
        <pt x="656" y="0" on="1"/>
        <pt x="573" y="0" on="1"/>
        <pt x="448" y="349" on="1"/>
        <pt x="324" y="0" on="1"/>
        <pt x="241" y="0" on="1"/>
        <pt x="47" y="543" on="1"/>
        <pt x="40" y="564" on="0"/>
        <pt x="-17" y="564" on="1"/>
        <pt x="-17" y="585" on="1"/>
        <pt x="237" y="585" on="1"/>
        <pt x="237" y="564" on="1"/>
        <pt x="191" y="564" on="0"/>
        <pt x="179" y="552" on="1"/>
        <pt x="332" y="134" on="1"/>
        <pt x="428" y="405" on="1"/>
        <pt x="379" y="543" on="1"/>
        <pt x="372" y="564" on="0"/>
        <pt x="315" y="564" on="1"/>
        <pt x="315" y="585" on="1"/>
      </contour>
    </TTGlyph>
    <TTGlyph name="Wdieresis" xMin="-17" yMin="0" xMax="913" yMax="738">
      <contour>
        <pt x="466" y="655" on="0"/>
        <pt x="466" y="703" on="0"/>
        <pt x="500" y="738" on="0"/>
        <pt x="548" y="738" on="0"/>
        <pt x="583" y="703" on="0"/>
        <pt x="583" y="655" on="0"/>
        <pt x="548" y="620" on="0"/>
        <pt x="500" y="620" on="0"/>
      </contour>
      <contour>
        <pt x="275" y="655" on="0"/>
        <pt x="275" y="703" on="0"/>
        <pt x="310" y="738" on="0"/>
        <pt x="358" y="738" on="0"/>
        <pt x="392" y="703" on="0"/>
        <pt x="392" y="655" on="0"/>
        <pt x="358" y="620" on="0"/>
        <pt x="310" y="620" on="0"/>
      </contour>
      <contour>
        <pt x="569" y="585" on="1"/>
        <pt x="569" y="564" on="1"/>
        <pt x="523" y="564" on="0"/>
        <pt x="511" y="552" on="1"/>
        <pt x="664" y="133" on="1"/>
        <pt x="811" y="546" on="1"/>
        <pt x="801" y="564" on="0"/>
        <pt x="749" y="564" on="1"/>
        <pt x="749" y="585" on="1"/>
        <pt x="913" y="585" on="1"/>
        <pt x="913" y="564" on="1"/>
        <pt x="858" y="564" on="0"/>
        <pt x="850" y="543" on="1"/>
        <pt x="656" y="0" on="1"/>
        <pt x="573" y="0" on="1"/>
        <pt x="448" y="349" on="1"/>
        <pt x="324" y="0" on="1"/>
        <pt x="241" y="0" on="1"/>
        <pt x="47" y="543" on="1"/>
        <pt x="40" y="564" on="0"/>
        <pt x="-17" y="564" on="1"/>
        <pt x="-17" y="585" on="1"/>
        <pt x="237" y="585" on="1"/>
        <pt x="237" y="564" on="1"/>
        <pt x="191" y="564" on="0"/>
        <pt x="179" y="552" on="1"/>
        <pt x="332" y="134" on="1"/>
        <pt x="428" y="405" on="1"/>
        <pt x="379" y="543" on="1"/>
        <pt x="372" y="564" on="0"/>
        <pt x="315" y="564" on="1"/>
        <pt x="315" y="585" on="1"/>
      </contour>
    </TTGlyph>
    <TTGlyph name="Wgrave" xMin="-17" yMin="0" xMax="913" yMax="782">
      <contour>
        <pt x="401" y="782" on="1"/>
        <pt x="455" y="620" on="1"/>
        <pt x="409" y="620" on="1"/>
        <pt x="275" y="782" on="1"/>
      </contour>
      <contour>
        <pt x="569" y="585" on="1"/>
        <pt x="569" y="564" on="1"/>
        <pt x="523" y="564" on="0"/>
        <pt x="511" y="552" on="1"/>
        <pt x="664" y="133" on="1"/>
        <pt x="811" y="546" on="1"/>
        <pt x="801" y="564" on="0"/>
        <pt x="749" y="564" on="1"/>
        <pt x="749" y="585" on="1"/>
        <pt x="913" y="585" on="1"/>
        <pt x="913" y="564" on="1"/>
        <pt x="858" y="564" on="0"/>
        <pt x="850" y="543" on="1"/>
        <pt x="656" y="0" on="1"/>
        <pt x="573" y="0" on="1"/>
        <pt x="448" y="349" on="1"/>
        <pt x="324" y="0" on="1"/>
        <pt x="241" y="0" on="1"/>
        <pt x="47" y="543" on="1"/>
        <pt x="40" y="564" on="0"/>
        <pt x="-17" y="564" on="1"/>
        <pt x="-17" y="585" on="1"/>
        <pt x="237" y="585" on="1"/>
        <pt x="237" y="564" on="1"/>
        <pt x="191" y="564" on="0"/>
        <pt x="179" y="552" on="1"/>
        <pt x="332" y="134" on="1"/>
        <pt x="428" y="405" on="1"/>
        <pt x="379" y="543" on="1"/>
        <pt x="372" y="564" on="0"/>
        <pt x="315" y="564" on="1"/>
        <pt x="315" y="585" on="1"/>
      </contour>
    </TTGlyph>
    <TTGlyph name="X" xMin="-4" yMin="0" xMax="548" yMax="585">
      <contour>
        <pt x="250" y="585" on="1"/>
        <pt x="250" y="564" on="1"/>
        <pt x="203" y="564" on="0"/>
        <pt x="192" y="552" on="1"/>
        <pt x="294" y="373" on="1"/>
        <pt x="414" y="549" on="1"/>
        <pt x="404" y="564" on="0"/>
        <pt x="354" y="564" on="1"/>
        <pt x="354" y="585" on="1"/>
        <pt x="518" y="585" on="1"/>
        <pt x="518" y="564" on="1"/>
        <pt x="467" y="564" on="0"/>
        <pt x="454" y="544" on="1"/>
        <pt x="314" y="339" on="1"/>
        <pt x="484" y="42" on="1"/>
        <pt x="495" y="21" on="0"/>
        <pt x="548" y="21" on="1"/>
        <pt x="548" y="0" on="1"/>
        <pt x="294" y="0" on="1"/>
        <pt x="294" y="21" on="1"/>
        <pt x="341" y="21" on="0"/>
        <pt x="352" y="33" on="1"/>
        <pt x="240" y="230" on="1"/>
        <pt x="107" y="35" on="1"/>
        <pt x="118" y="21" on="0"/>
        <pt x="167" y="21" on="1"/>
        <pt x="167" y="0" on="1"/>
        <pt x="3" y="0" on="1"/>
        <pt x="3" y="21" on="1"/>
        <pt x="55" y="21" on="0"/>
        <pt x="67" y="40" on="1"/>
        <pt x="220" y="264" on="1"/>
        <pt x="60" y="544" on="1"/>
        <pt x="48" y="564" on="0"/>
        <pt x="-4" y="564" on="1"/>
        <pt x="-4" y="585" on="1"/>
      </contour>
    </TTGlyph>
    <TTGlyph name="Y" xMin="-16" yMin="0" xMax="597" yMax="585">
      <contour>
        <pt x="238" y="585" on="1"/>
        <pt x="238" y="564" on="1"/>
        <pt x="191" y="564" on="0"/>
        <pt x="180" y="552" on="1"/>
        <pt x="335" y="281" on="1"/>
        <pt x="495" y="546" on="1"/>
        <pt x="484" y="564" on="0"/>
        <pt x="433" y="564" on="1"/>
        <pt x="433" y="585" on="1"/>
        <pt x="597" y="585" on="1"/>
        <pt x="597" y="564" on="1"/>
        <pt x="548" y="564" on="0"/>
        <pt x="540" y="551" on="1"/>
        <pt x="360" y="252" on="1"/>
        <pt x="360" y="41" on="1"/>
        <pt x="369" y="21" on="0"/>
        <pt x="423" y="21" on="1"/>
        <pt x="423" y="0" on="1"/>
        <pt x="170" y="0" on="1"/>
        <pt x="170" y="21" on="1"/>
        <pt x="224" y="21" on="0"/>
        <pt x="233" y="41" on="1"/>
        <pt x="233" y="220" on="1"/>
        <pt x="48" y="544" on="1"/>
        <pt x="36" y="564" on="0"/>
        <pt x="-16" y="564" on="1"/>
        <pt x="-16" y="585" on="1"/>
      </contour>
    </TTGlyph>
    <TTGlyph name="Yacute" xMin="-16" yMin="0" xMax="597" yMax="782">
      <component glyphName="acutecomb" x="596" y="120" flags="0x1004"/>
      <component glyphName="Y" x="0" y="0" flags="0x1204"/>
    </TTGlyph>
    <TTGlyph name="Ycircumflex" xMin="-16" yMin="0" xMax="597" yMax="782">
      <contour>
        <pt x="367" y="782" on="1"/>
        <pt x="461" y="620" on="1"/>
        <pt x="425" y="620" on="1"/>
        <pt x="342" y="687" on="1"/>
        <pt x="259" y="620" on="1"/>
        <pt x="223" y="620" on="1"/>
        <pt x="317" y="782" on="1"/>
      </contour>
      <contour>
        <pt x="238" y="585" on="1"/>
        <pt x="238" y="564" on="1"/>
        <pt x="191" y="564" on="0"/>
        <pt x="180" y="552" on="1"/>
        <pt x="335" y="281" on="1"/>
        <pt x="495" y="546" on="1"/>
        <pt x="484" y="564" on="0"/>
        <pt x="433" y="564" on="1"/>
        <pt x="433" y="585" on="1"/>
        <pt x="597" y="585" on="1"/>
        <pt x="597" y="564" on="1"/>
        <pt x="548" y="564" on="0"/>
        <pt x="540" y="551" on="1"/>
        <pt x="360" y="252" on="1"/>
        <pt x="360" y="41" on="1"/>
        <pt x="369" y="21" on="0"/>
        <pt x="423" y="21" on="1"/>
        <pt x="423" y="0" on="1"/>
        <pt x="170" y="0" on="1"/>
        <pt x="170" y="21" on="1"/>
        <pt x="224" y="21" on="0"/>
        <pt x="233" y="41" on="1"/>
        <pt x="233" y="220" on="1"/>
        <pt x="48" y="544" on="1"/>
        <pt x="36" y="564" on="0"/>
        <pt x="-16" y="564" on="1"/>
        <pt x="-16" y="585" on="1"/>
      </contour>
    </TTGlyph>
    <TTGlyph name="Ydieresis" xMin="-16" yMin="0" xMax="597" yMax="738">
      <contour>
        <pt x="379" y="655" on="0"/>
        <pt x="379" y="703" on="0"/>
        <pt x="413" y="738" on="0"/>
        <pt x="461" y="738" on="0"/>
        <pt x="496" y="703" on="0"/>
        <pt x="496" y="655" on="0"/>
        <pt x="461" y="620" on="0"/>
        <pt x="413" y="620" on="0"/>
      </contour>
      <contour>
        <pt x="188" y="655" on="0"/>
        <pt x="188" y="703" on="0"/>
        <pt x="223" y="738" on="0"/>
        <pt x="271" y="738" on="0"/>
        <pt x="305" y="703" on="0"/>
        <pt x="305" y="655" on="0"/>
        <pt x="271" y="620" on="0"/>
        <pt x="223" y="620" on="0"/>
      </contour>
      <contour>
        <pt x="238" y="585" on="1"/>
        <pt x="238" y="564" on="1"/>
        <pt x="191" y="564" on="0"/>
        <pt x="180" y="552" on="1"/>
        <pt x="335" y="281" on="1"/>
        <pt x="495" y="546" on="1"/>
        <pt x="484" y="564" on="0"/>
        <pt x="433" y="564" on="1"/>
        <pt x="433" y="585" on="1"/>
        <pt x="597" y="585" on="1"/>
        <pt x="597" y="564" on="1"/>
        <pt x="548" y="564" on="0"/>
        <pt x="540" y="551" on="1"/>
        <pt x="360" y="252" on="1"/>
        <pt x="360" y="41" on="1"/>
        <pt x="369" y="21" on="0"/>
        <pt x="423" y="21" on="1"/>
        <pt x="423" y="0" on="1"/>
        <pt x="170" y="0" on="1"/>
        <pt x="170" y="21" on="1"/>
        <pt x="224" y="21" on="0"/>
        <pt x="233" y="41" on="1"/>
        <pt x="233" y="220" on="1"/>
        <pt x="48" y="544" on="1"/>
        <pt x="36" y="564" on="0"/>
        <pt x="-16" y="564" on="1"/>
        <pt x="-16" y="585" on="1"/>
      </contour>
    </TTGlyph>
    <TTGlyph name="Ygrave" xMin="-16" yMin="0" xMax="597" yMax="782">
      <contour>
        <pt x="314" y="782" on="1"/>
        <pt x="368" y="620" on="1"/>
        <pt x="322" y="620" on="1"/>
        <pt x="188" y="782" on="1"/>
      </contour>
      <contour>
        <pt x="238" y="585" on="1"/>
        <pt x="238" y="564" on="1"/>
        <pt x="191" y="564" on="0"/>
        <pt x="180" y="552" on="1"/>
        <pt x="335" y="281" on="1"/>
        <pt x="495" y="546" on="1"/>
        <pt x="484" y="564" on="0"/>
        <pt x="433" y="564" on="1"/>
        <pt x="433" y="585" on="1"/>
        <pt x="597" y="585" on="1"/>
        <pt x="597" y="564" on="1"/>
        <pt x="548" y="564" on="0"/>
        <pt x="540" y="551" on="1"/>
        <pt x="360" y="252" on="1"/>
        <pt x="360" y="41" on="1"/>
        <pt x="369" y="21" on="0"/>
        <pt x="423" y="21" on="1"/>
        <pt x="423" y="0" on="1"/>
        <pt x="170" y="0" on="1"/>
        <pt x="170" y="21" on="1"/>
        <pt x="224" y="21" on="0"/>
        <pt x="233" y="41" on="1"/>
        <pt x="233" y="220" on="1"/>
        <pt x="48" y="544" on="1"/>
        <pt x="36" y="564" on="0"/>
        <pt x="-16" y="564" on="1"/>
        <pt x="-16" y="585" on="1"/>
      </contour>
    </TTGlyph>
    <TTGlyph name="Z" xMin="14" yMin="0" xMax="471" yMax="585">
      <contour>
        <pt x="446" y="0" on="1"/>
        <pt x="14" y="0" on="1"/>
        <pt x="297" y="555" on="1"/>
        <pt x="104" y="555" on="1"/>
        <pt x="92" y="550" on="0"/>
        <pt x="69" y="501" on="0"/>
        <pt x="69" y="472" on="1"/>
        <pt x="48" y="472" on="1"/>
        <pt x="48" y="585" on="1"/>
        <pt x="451" y="585" on="1"/>
        <pt x="168" y="30" on="1"/>
        <pt x="390" y="30" on="1"/>
        <pt x="402" y="35" on="0"/>
        <pt x="442" y="93" on="0"/>
        <pt x="450" y="122" on="1"/>
        <pt x="471" y="122" on="1"/>
      </contour>
    </TTGlyph>
    <TTGlyph name="Zacute" xMin="14" yMin="0" xMax="471" yMax="782">
      <contour>
        <pt x="254" y="782" on="1"/>
        <pt x="380" y="782" on="1"/>
        <pt x="246" y="620" on="1"/>
        <pt x="200" y="620" on="1"/>
      </contour>
      <contour>
        <pt x="446" y="0" on="1"/>
        <pt x="14" y="0" on="1"/>
        <pt x="297" y="555" on="1"/>
        <pt x="104" y="555" on="1"/>
        <pt x="92" y="550" on="0"/>
        <pt x="69" y="501" on="0"/>
        <pt x="69" y="472" on="1"/>
        <pt x="48" y="472" on="1"/>
        <pt x="48" y="585" on="1"/>
        <pt x="451" y="585" on="1"/>
        <pt x="168" y="30" on="1"/>
        <pt x="390" y="30" on="1"/>
        <pt x="402" y="35" on="0"/>
        <pt x="442" y="93" on="0"/>
        <pt x="450" y="122" on="1"/>
        <pt x="471" y="122" on="1"/>
      </contour>
    </TTGlyph>
    <TTGlyph name="Zcaron" xMin="14" yMin="0" xMax="471" yMax="782">
      <contour>
        <pt x="220" y="620" on="1"/>
        <pt x="126" y="782" on="1"/>
        <pt x="162" y="782" on="1"/>
        <pt x="245" y="705" on="1"/>
        <pt x="328" y="782" on="1"/>
        <pt x="364" y="782" on="1"/>
        <pt x="270" y="620" on="1"/>
      </contour>
      <contour>
        <pt x="446" y="0" on="1"/>
        <pt x="14" y="0" on="1"/>
        <pt x="297" y="555" on="1"/>
        <pt x="104" y="555" on="1"/>
        <pt x="92" y="550" on="0"/>
        <pt x="69" y="501" on="0"/>
        <pt x="69" y="472" on="1"/>
        <pt x="48" y="472" on="1"/>
        <pt x="48" y="585" on="1"/>
        <pt x="451" y="585" on="1"/>
        <pt x="168" y="30" on="1"/>
        <pt x="390" y="30" on="1"/>
        <pt x="402" y="35" on="0"/>
        <pt x="442" y="93" on="0"/>
        <pt x="450" y="122" on="1"/>
        <pt x="471" y="122" on="1"/>
      </contour>
    </TTGlyph>
    <TTGlyph name="Zdotaccent" xMin="14" yMin="0" xMax="471" yMax="743">
      <contour>
        <pt x="183" y="656" on="0"/>
        <pt x="183" y="708" on="0"/>
        <pt x="218" y="743" on="0"/>
        <pt x="270" y="743" on="0"/>
        <pt x="305" y="708" on="0"/>
        <pt x="305" y="656" on="0"/>
        <pt x="270" y="621" on="0"/>
        <pt x="218" y="621" on="0"/>
      </contour>
      <contour>
        <pt x="446" y="0" on="1"/>
        <pt x="14" y="0" on="1"/>
        <pt x="297" y="555" on="1"/>
        <pt x="104" y="555" on="1"/>
        <pt x="92" y="550" on="0"/>
        <pt x="69" y="501" on="0"/>
        <pt x="69" y="472" on="1"/>
        <pt x="48" y="472" on="1"/>
        <pt x="48" y="585" on="1"/>
        <pt x="451" y="585" on="1"/>
        <pt x="168" y="30" on="1"/>
        <pt x="390" y="30" on="1"/>
        <pt x="402" y="35" on="0"/>
        <pt x="442" y="93" on="0"/>
        <pt x="450" y="122" on="1"/>
        <pt x="471" y="122" on="1"/>
      </contour>
    </TTGlyph>
    <TTGlyph name="a" xMin="25" yMin="-10" xMax="520" yMax="450">
      <contour>
        <pt x="130" y="366" on="1"/>
        <pt x="153" y="366" on="0"/>
        <pt x="153" y="325" on="1"/>
        <pt x="153" y="308" on="0"/>
        <pt x="119" y="290" on="0"/>
        <pt x="100" y="290" on="1"/>
        <pt x="80" y="290" on="0"/>
        <pt x="49" y="318" on="0"/>
        <pt x="49" y="340" on="1"/>
        <pt x="49" y="391" on="0"/>
        <pt x="150" y="450" on="0"/>
        <pt x="231" y="450" on="1"/>
        <pt x="326" y="450" on="0"/>
        <pt x="432" y="355" on="0"/>
        <pt x="432" y="282" on="1"/>
        <pt x="432" y="84" on="1"/>
        <pt x="432" y="52" on="0"/>
        <pt x="453" y="22" on="0"/>
        <pt x="468" y="22" on="1"/>
        <pt x="481" y="22" on="0"/>
        <pt x="502" y="36" on="0"/>
        <pt x="502" y="46" on="1"/>
        <pt x="520" y="46" on="1"/>
        <pt x="520" y="-8" on="0"/>
        <pt x="410" y="-8" on="1"/>
        <pt x="359" y="-8" on="0"/>
        <pt x="331" y="28" on="1"/>
        <pt x="271" y="-10" on="0"/>
        <pt x="192" y="-10" on="1"/>
        <pt x="25" y="-10" on="0"/>
        <pt x="25" y="112" on="1"/>
        <pt x="25" y="137" on="0"/>
        <pt x="60" y="177" on="0"/>
        <pt x="132" y="205" on="0"/>
        <pt x="189" y="221" on="0"/>
        <pt x="289" y="242" on="0"/>
        <pt x="307" y="247" on="1"/>
        <pt x="307" y="341" on="0"/>
        <pt x="276" y="414" on="0"/>
        <pt x="221" y="414" on="1"/>
        <pt x="188" y="414" on="0"/>
        <pt x="135" y="387" on="0"/>
      </contour>
      <contour>
        <pt x="317" y="52" on="1"/>
        <pt x="307" y="79" on="0"/>
        <pt x="307" y="112" on="1"/>
        <pt x="307" y="225" on="1"/>
        <pt x="222" y="199" on="0"/>
        <pt x="195" y="182" on="1"/>
        <pt x="153" y="154" on="0"/>
        <pt x="153" y="110" on="1"/>
        <pt x="153" y="64" on="0"/>
        <pt x="192" y="24" on="0"/>
        <pt x="217" y="24" on="1"/>
        <pt x="261" y="24" on="0"/>
      </contour>
    </TTGlyph>
    <TTGlyph name="aacute" xMin="25" yMin="-10" xMax="520" yMax="677">
      <component glyphName="acutecomb" x="486" y="15" flags="0x1004"/>
      <component glyphName="a" x="0" y="0" flags="0x1204"/>
    </TTGlyph>
    <TTGlyph name="abreve" xMin="25" yMin="-10" xMax="520" yMax="649">
      <contour>
        <pt x="232" y="525" on="1"/>
        <pt x="171" y="525" on="0"/>
        <pt x="106" y="606" on="0"/>
        <pt x="106" y="649" on="1"/>
        <pt x="134" y="649" on="1"/>
        <pt x="155" y="605" on="0"/>
        <pt x="309" y="605" on="0"/>
        <pt x="330" y="649" on="1"/>
        <pt x="358" y="649" on="1"/>
        <pt x="358" y="605" on="0"/>
        <pt x="294" y="525" on="0"/>
      </contour>
      <contour>
        <pt x="130" y="366" on="1"/>
        <pt x="153" y="366" on="0"/>
        <pt x="153" y="325" on="1"/>
        <pt x="153" y="308" on="0"/>
        <pt x="119" y="290" on="0"/>
        <pt x="100" y="290" on="1"/>
        <pt x="80" y="290" on="0"/>
        <pt x="49" y="318" on="0"/>
        <pt x="49" y="340" on="1"/>
        <pt x="49" y="391" on="0"/>
        <pt x="150" y="450" on="0"/>
        <pt x="231" y="450" on="1"/>
        <pt x="326" y="450" on="0"/>
        <pt x="432" y="355" on="0"/>
        <pt x="432" y="282" on="1"/>
        <pt x="432" y="84" on="1"/>
        <pt x="432" y="52" on="0"/>
        <pt x="453" y="22" on="0"/>
        <pt x="468" y="22" on="1"/>
        <pt x="481" y="22" on="0"/>
        <pt x="502" y="36" on="0"/>
        <pt x="502" y="46" on="1"/>
        <pt x="520" y="46" on="1"/>
        <pt x="520" y="-8" on="0"/>
        <pt x="410" y="-8" on="1"/>
        <pt x="359" y="-8" on="0"/>
        <pt x="331" y="28" on="1"/>
        <pt x="271" y="-10" on="0"/>
        <pt x="192" y="-10" on="1"/>
        <pt x="25" y="-10" on="0"/>
        <pt x="25" y="112" on="1"/>
        <pt x="25" y="137" on="0"/>
        <pt x="60" y="177" on="0"/>
        <pt x="132" y="205" on="0"/>
        <pt x="189" y="221" on="0"/>
        <pt x="289" y="242" on="0"/>
        <pt x="307" y="247" on="1"/>
        <pt x="307" y="341" on="0"/>
        <pt x="276" y="414" on="0"/>
        <pt x="221" y="414" on="1"/>
        <pt x="188" y="414" on="0"/>
        <pt x="135" y="387" on="0"/>
      </contour>
      <contour>
        <pt x="317" y="52" on="1"/>
        <pt x="307" y="79" on="0"/>
        <pt x="307" y="112" on="1"/>
        <pt x="307" y="225" on="1"/>
        <pt x="222" y="199" on="0"/>
        <pt x="195" y="182" on="1"/>
        <pt x="153" y="154" on="0"/>
        <pt x="153" y="110" on="1"/>
        <pt x="153" y="64" on="0"/>
        <pt x="192" y="24" on="0"/>
        <pt x="217" y="24" on="1"/>
        <pt x="261" y="24" on="0"/>
      </contour>
    </TTGlyph>
    <TTGlyph name="acircumflex" xMin="25" yMin="-10" xMax="520" yMax="677">
      <component glyphName="uni0302" x="486" y="15" flags="0x1004"/>
      <component glyphName="a" x="0" y="0" flags="0x1204"/>
    </TTGlyph>
    <TTGlyph name="acute" xMin="29" yMin="500" xMax="209" yMax="662">
      <contour>
        <pt x="83" y="662" on="1"/>
        <pt x="209" y="662" on="1"/>
        <pt x="75" y="500" on="1"/>
        <pt x="29" y="500" on="1"/>
      </contour>
    </TTGlyph>
    <TTGlyph name="acutecomb" xMin="-298" yMin="500" xMax="-118" yMax="662">
      <contour>
        <pt x="-244" y="662" on="1"/>
        <pt x="-118" y="662" on="1"/>
        <pt x="-252" y="500" on="1"/>
        <pt x="-298" y="500" on="1"/>
      </contour>
    </TTGlyph>
    <TTGlyph name="adieresis" xMin="25" yMin="-10" xMax="520" yMax="633">
      <component glyphName="uni0308" x="486" y="15" flags="0x1004"/>
      <component glyphName="a" x="0" y="0" flags="0x1204"/>
    </TTGlyph>
    <TTGlyph name="ae" xMin="25" yMin="-10" xMax="752" yMax="450">
      <contour>
        <pt x="437" y="272" on="1"/>
        <pt x="619" y="272" on="1"/>
        <pt x="613" y="343" on="0"/>
        <pt x="576" y="420" on="0"/>
        <pt x="535" y="420" on="1"/>
        <pt x="499" y="420" on="0"/>
        <pt x="442" y="347" on="0"/>
      </contour>
      <contour>
        <pt x="436" y="241" on="1"/>
        <pt x="438" y="154" on="0"/>
        <pt x="513" y="28" on="0"/>
        <pt x="571" y="28" on="1"/>
        <pt x="658" y="28" on="0"/>
        <pt x="711" y="94" on="1"/>
        <pt x="735" y="82" on="1"/>
        <pt x="706" y="34" on="0"/>
        <pt x="613" y="-10" on="0"/>
        <pt x="537" y="-10" on="1"/>
        <pt x="431" y="-10" on="0"/>
        <pt x="367" y="59" on="1"/>
        <pt x="346" y="33" on="0"/>
        <pt x="258" y="-10" on="0"/>
        <pt x="192" y="-10" on="1"/>
        <pt x="25" y="-10" on="0"/>
        <pt x="25" y="112" on="1"/>
        <pt x="25" y="133" on="0"/>
        <pt x="54" y="169" on="0"/>
        <pt x="93" y="191" on="0"/>
        <pt x="160" y="214" on="0"/>
        <pt x="211" y="225" on="0"/>
        <pt x="288" y="242" on="0"/>
        <pt x="306" y="247" on="1"/>
        <pt x="306" y="342" on="0"/>
        <pt x="276" y="414" on="0"/>
        <pt x="221" y="414" on="1"/>
        <pt x="188" y="414" on="0"/>
        <pt x="135" y="387" on="0"/>
        <pt x="130" y="366" on="1"/>
        <pt x="153" y="366" on="0"/>
        <pt x="153" y="325" on="1"/>
        <pt x="153" y="308" on="0"/>
        <pt x="119" y="290" on="0"/>
        <pt x="100" y="290" on="1"/>
        <pt x="80" y="290" on="0"/>
        <pt x="49" y="318" on="0"/>
        <pt x="49" y="340" on="1"/>
        <pt x="49" y="391" on="0"/>
        <pt x="150" y="450" on="0"/>
        <pt x="231" y="450" on="1"/>
        <pt x="325" y="450" on="0"/>
        <pt x="381" y="401" on="1"/>
        <pt x="441" y="450" on="0"/>
        <pt x="527" y="450" on="1"/>
        <pt x="634" y="450" on="0"/>
        <pt x="752" y="329" on="0"/>
        <pt x="752" y="241" on="1"/>
      </contour>
      <contour>
        <pt x="352" y="77" on="1"/>
        <pt x="310" y="133" on="0"/>
        <pt x="306" y="224" on="1"/>
        <pt x="222" y="199" on="0"/>
        <pt x="197" y="183" on="1"/>
        <pt x="153" y="155" on="0"/>
        <pt x="153" y="110" on="1"/>
        <pt x="153" y="64" on="0"/>
        <pt x="192" y="24" on="0"/>
        <pt x="217" y="24" on="1"/>
        <pt x="247" y="24" on="0"/>
        <pt x="336" y="57" on="0"/>
      </contour>
    </TTGlyph>
    <TTGlyph name="afii00208" xMin="54" yMin="296" xMax="778" yMax="340">
      <contour>
        <pt x="54" y="340" on="1"/>
        <pt x="778" y="340" on="1"/>
        <pt x="778" y="296" on="1"/>
        <pt x="54" y="296" on="1"/>
      </contour>
    </TTGlyph>
    <TTGlyph name="afii57929" xMin="35" yMin="448" xMax="183" yMax="670">
      <contour>
        <pt x="91" y="573" on="1"/>
        <pt x="66" y="573" on="0"/>
        <pt x="35" y="599" on="0"/>
        <pt x="35" y="622" on="1"/>
        <pt x="35" y="643" on="0"/>
        <pt x="60" y="667" on="0"/>
        <pt x="78" y="670" on="0"/>
        <pt x="86" y="670" on="1"/>
        <pt x="127" y="670" on="0"/>
        <pt x="183" y="619" on="0"/>
        <pt x="183" y="578" on="1"/>
        <pt x="183" y="489" on="0"/>
        <pt x="49" y="448" on="1"/>
        <pt x="49" y="487" on="1"/>
        <pt x="76" y="490" on="0"/>
        <pt x="127" y="537" on="0"/>
        <pt x="127" y="566" on="1"/>
        <pt x="127" y="586" on="0"/>
        <pt x="122" y="586" on="1"/>
        <pt x="118" y="583" on="1"/>
        <pt x="113" y="580" on="0"/>
        <pt x="99" y="573" on="0"/>
      </contour>
    </TTGlyph>
    <TTGlyph name="afii61352" xMin="41" yMin="0" xMax="795" yMax="585">
      <contour>
        <pt x="41" y="0" on="1"/>
        <pt x="41" y="21" on="1"/>
        <pt x="95" y="21" on="0"/>
        <pt x="104" y="41" on="1"/>
        <pt x="104" y="544" on="1"/>
        <pt x="95" y="564" on="0"/>
        <pt x="41" y="564" on="1"/>
        <pt x="41" y="585" on="1"/>
        <pt x="175" y="585" on="1"/>
        <pt x="426" y="188" on="1"/>
        <pt x="426" y="544" on="1"/>
        <pt x="417" y="564" on="0"/>
        <pt x="363" y="564" on="1"/>
        <pt x="363" y="585" on="1"/>
        <pt x="523" y="585" on="1"/>
        <pt x="523" y="564" on="1"/>
        <pt x="469" y="564" on="0"/>
        <pt x="460" y="544" on="1"/>
        <pt x="460" y="0" on="1"/>
        <pt x="416" y="0" on="1"/>
        <pt x="138" y="436" on="1"/>
        <pt x="138" y="41" on="1"/>
        <pt x="147" y="21" on="0"/>
        <pt x="201" y="21" on="1"/>
        <pt x="201" y="0" on="1"/>
      </contour>
      <contour>
        <pt x="653" y="210" on="1"/>
        <pt x="585" y="210" on="0"/>
        <pt x="505" y="282" on="0"/>
        <pt x="505" y="341" on="1"/>
        <pt x="505" y="394" on="0"/>
        <pt x="578" y="463" on="0"/>
        <pt x="720" y="463" on="0"/>
        <pt x="795" y="393" on="0"/>
        <pt x="795" y="334" on="1"/>
        <pt x="795" y="281" on="0"/>
        <pt x="723" y="210" on="0"/>
      </contour>
      <contour>
        <pt x="584" y="352" on="1"/>
        <pt x="584" y="226" on="0"/>
        <pt x="661" y="226" on="1"/>
        <pt x="688" y="226" on="0"/>
        <pt x="717" y="279" on="0"/>
        <pt x="717" y="322" on="1"/>
        <pt x="717" y="389" on="0"/>
        <pt x="683" y="446" on="0"/>
        <pt x="639" y="446" on="1"/>
        <pt x="613" y="446" on="0"/>
        <pt x="584" y="391" on="0"/>
      </contour>
      <contour>
        <pt x="505" y="155" on="1"/>
        <pt x="795" y="155" on="1"/>
        <pt x="795" y="129" on="1"/>
        <pt x="505" y="129" on="1"/>
      </contour>
    </TTGlyph>
    <TTGlyph name="agrave" xMin="25" yMin="-10" xMax="520" yMax="677">
      <component glyphName="gravecomb" x="486" y="15" flags="0x1004"/>
      <component glyphName="a" x="0" y="0" flags="0x1204"/>
    </TTGlyph>
    <TTGlyph name="amacron" xMin="25" yMin="-10" xMax="520" yMax="583">
      <contour>
        <pt x="94" y="583" on="1"/>
        <pt x="358" y="583" on="1"/>
        <pt x="358" y="529" on="1"/>
        <pt x="94" y="529" on="1"/>
      </contour>
      <contour>
        <pt x="130" y="366" on="1"/>
        <pt x="153" y="366" on="0"/>
        <pt x="153" y="325" on="1"/>
        <pt x="153" y="308" on="0"/>
        <pt x="119" y="290" on="0"/>
        <pt x="100" y="290" on="1"/>
        <pt x="80" y="290" on="0"/>
        <pt x="49" y="318" on="0"/>
        <pt x="49" y="340" on="1"/>
        <pt x="49" y="391" on="0"/>
        <pt x="150" y="450" on="0"/>
        <pt x="231" y="450" on="1"/>
        <pt x="326" y="450" on="0"/>
        <pt x="432" y="355" on="0"/>
        <pt x="432" y="282" on="1"/>
        <pt x="432" y="84" on="1"/>
        <pt x="432" y="52" on="0"/>
        <pt x="453" y="22" on="0"/>
        <pt x="468" y="22" on="1"/>
        <pt x="481" y="22" on="0"/>
        <pt x="502" y="36" on="0"/>
        <pt x="502" y="46" on="1"/>
        <pt x="520" y="46" on="1"/>
        <pt x="520" y="-8" on="0"/>
        <pt x="410" y="-8" on="1"/>
        <pt x="359" y="-8" on="0"/>
        <pt x="331" y="28" on="1"/>
        <pt x="271" y="-10" on="0"/>
        <pt x="192" y="-10" on="1"/>
        <pt x="25" y="-10" on="0"/>
        <pt x="25" y="112" on="1"/>
        <pt x="25" y="137" on="0"/>
        <pt x="60" y="177" on="0"/>
        <pt x="132" y="205" on="0"/>
        <pt x="189" y="221" on="0"/>
        <pt x="289" y="242" on="0"/>
        <pt x="307" y="247" on="1"/>
        <pt x="307" y="341" on="0"/>
        <pt x="276" y="414" on="0"/>
        <pt x="221" y="414" on="1"/>
        <pt x="188" y="414" on="0"/>
        <pt x="135" y="387" on="0"/>
      </contour>
      <contour>
        <pt x="317" y="52" on="1"/>
        <pt x="307" y="79" on="0"/>
        <pt x="307" y="112" on="1"/>
        <pt x="307" y="225" on="1"/>
        <pt x="222" y="199" on="0"/>
        <pt x="195" y="182" on="1"/>
        <pt x="153" y="154" on="0"/>
        <pt x="153" y="110" on="1"/>
        <pt x="153" y="64" on="0"/>
        <pt x="192" y="24" on="0"/>
        <pt x="217" y="24" on="1"/>
        <pt x="261" y="24" on="0"/>
      </contour>
    </TTGlyph>
    <TTGlyph name="ampersand" xMin="19" yMin="-10" xMax="580" yMax="595">
      <contour>
        <pt x="289" y="560" on="1"/>
        <pt x="271" y="560" on="0"/>
        <pt x="236" y="506" on="0"/>
        <pt x="236" y="466" on="1"/>
        <pt x="236" y="424" on="0"/>
        <pt x="260" y="357" on="1"/>
        <pt x="337" y="411" on="0"/>
        <pt x="337" y="469" on="1"/>
        <pt x="337" y="506" on="0"/>
        <pt x="312" y="560" on="0"/>
      </contour>
      <contour>
        <pt x="580" y="345" on="1"/>
        <pt x="580" y="324" on="1"/>
        <pt x="523" y="324" on="0"/>
        <pt x="517" y="304" on="1"/>
        <pt x="471" y="161" on="0"/>
        <pt x="413" y="87" on="1"/>
        <pt x="453" y="44" on="0"/>
        <pt x="482" y="44" on="1"/>
        <pt x="520" y="44" on="0"/>
        <pt x="549" y="58" on="0"/>
        <pt x="565" y="81" on="1"/>
        <pt x="577" y="71" on="1"/>
        <pt x="563" y="33" on="0"/>
        <pt x="517" y="-10" on="0"/>
        <pt x="474" y="-10" on="1"/>
        <pt x="419" y="-10" on="0"/>
        <pt x="360" y="34" on="1"/>
        <pt x="301" y="-10" on="0"/>
        <pt x="229" y="-10" on="1"/>
        <pt x="19" y="-10" on="0"/>
        <pt x="19" y="127" on="1"/>
        <pt x="19" y="182" on="0"/>
        <pt x="99" y="260" on="0"/>
        <pt x="174" y="304" on="1"/>
        <pt x="130" y="409" on="0"/>
        <pt x="130" y="474" on="1"/>
        <pt x="130" y="506" on="0"/>
        <pt x="152" y="553" on="0"/>
        <pt x="182" y="577" on="0"/>
        <pt x="224" y="591" on="0"/>
        <pt x="253" y="595" on="0"/>
        <pt x="269" y="595" on="1"/>
        <pt x="318" y="595" on="0"/>
        <pt x="379" y="526" on="0"/>
        <pt x="379" y="481" on="1"/>
        <pt x="379" y="428" on="0"/>
        <pt x="325" y="353" on="0"/>
        <pt x="276" y="317" on="1"/>
        <pt x="322" y="203" on="0"/>
        <pt x="388" y="117" on="1"/>
        <pt x="442" y="197" on="0"/>
        <pt x="471" y="305" on="1"/>
        <pt x="462" y="324" on="0"/>
        <pt x="408" y="324" on="1"/>
        <pt x="408" y="345" on="1"/>
      </contour>
      <contour>
        <pt x="333" y="57" on="1"/>
        <pt x="257" y="129" on="0"/>
        <pt x="194" y="258" on="1"/>
        <pt x="164" y="233" on="0"/>
        <pt x="136" y="188" on="0"/>
        <pt x="136" y="154" on="1"/>
        <pt x="136" y="95" on="0"/>
        <pt x="214" y="32" on="0"/>
        <pt x="266" y="32" on="1"/>
        <pt x="300" y="32" on="0"/>
      </contour>
    </TTGlyph>
    <TTGlyph name="aogonek" xMin="25" yMin="-199" xMax="537" yMax="450">
      <contour>
        <pt x="317" y="52" on="1"/>
        <pt x="307" y="79" on="0"/>
        <pt x="307" y="112" on="1"/>
        <pt x="307" y="225" on="1"/>
        <pt x="222" y="199" on="0"/>
        <pt x="195" y="182" on="1"/>
        <pt x="153" y="154" on="0"/>
        <pt x="153" y="110" on="1"/>
        <pt x="153" y="64" on="0"/>
        <pt x="192" y="24" on="0"/>
        <pt x="217" y="24" on="1"/>
        <pt x="261" y="24" on="0"/>
      </contour>
      <contour>
        <pt x="130" y="366" on="1"/>
        <pt x="153" y="366" on="0"/>
        <pt x="153" y="325" on="1"/>
        <pt x="153" y="308" on="0"/>
        <pt x="119" y="290" on="0"/>
        <pt x="100" y="290" on="1"/>
        <pt x="80" y="290" on="0"/>
        <pt x="49" y="318" on="0"/>
        <pt x="49" y="340" on="1"/>
        <pt x="49" y="391" on="0"/>
        <pt x="150" y="450" on="0"/>
        <pt x="231" y="450" on="1"/>
        <pt x="326" y="450" on="0"/>
        <pt x="432" y="355" on="0"/>
        <pt x="432" y="282" on="1"/>
        <pt x="432" y="84" on="1"/>
        <pt x="432" y="52" on="0"/>
        <pt x="453" y="22" on="0"/>
        <pt x="468" y="22" on="1"/>
        <pt x="481" y="22" on="0"/>
        <pt x="502" y="36" on="0"/>
        <pt x="502" y="46" on="1"/>
        <pt x="520" y="46" on="1"/>
        <pt x="520" y="-2" on="0"/>
        <pt x="433" y="-7" on="1"/>
        <pt x="412" y="-36" on="0"/>
        <pt x="412" y="-67" on="1"/>
        <pt x="412" y="-113" on="0"/>
        <pt x="458" y="-165" on="0"/>
        <pt x="495" y="-165" on="1"/>
        <pt x="503" y="-165" on="0"/>
        <pt x="518" y="-157" on="0"/>
        <pt x="522" y="-153" on="1"/>
        <pt x="526" y="-149" on="1"/>
        <pt x="537" y="-167" on="1"/>
        <pt x="535" y="-171" on="0"/>
        <pt x="525" y="-181" on="0"/>
        <pt x="484" y="-199" on="0"/>
        <pt x="458" y="-199" on="1"/>
        <pt x="408" y="-199" on="0"/>
        <pt x="353" y="-147" on="0"/>
        <pt x="353" y="-102" on="1"/>
        <pt x="353" y="-48" on="0"/>
        <pt x="394" y="-7" on="1"/>
        <pt x="354" y="-2" on="0"/>
        <pt x="331" y="28" on="1"/>
        <pt x="271" y="-10" on="0"/>
        <pt x="192" y="-10" on="1"/>
        <pt x="25" y="-10" on="0"/>
        <pt x="25" y="112" on="1"/>
        <pt x="25" y="137" on="0"/>
        <pt x="60" y="177" on="0"/>
        <pt x="132" y="205" on="0"/>
        <pt x="189" y="221" on="0"/>
        <pt x="289" y="242" on="0"/>
        <pt x="307" y="247" on="1"/>
        <pt x="307" y="341" on="0"/>
        <pt x="276" y="414" on="0"/>
        <pt x="221" y="414" on="1"/>
        <pt x="188" y="414" on="0"/>
        <pt x="135" y="387" on="0"/>
      </contour>
    </TTGlyph>
    <TTGlyph name="aring" xMin="25" yMin="-10" xMax="520" yMax="658">
      <component glyphName="uni030A" x="486" y="15" flags="0x1004"/>
      <component glyphName="a" x="0" y="0" flags="0x1204"/>
    </TTGlyph>
    <TTGlyph name="asciicircum" xMin="50" yMin="308" xMax="406" yMax="548">
      <contour>
        <pt x="241" y="548" on="1"/>
        <pt x="406" y="352" on="1"/>
        <pt x="372" y="308" on="1"/>
        <pt x="228" y="480" on="1"/>
        <pt x="84" y="308" on="1"/>
        <pt x="50" y="352" on="1"/>
        <pt x="214" y="548" on="1"/>
      </contour>
    </TTGlyph>
    <TTGlyph name="asciitilde" xMin="52" yMin="208" xMax="481" yMax="340">
      <contour>
        <pt x="378" y="208" on="1"/>
        <pt x="349" y="208" on="0"/>
        <pt x="162" y="267" on="0"/>
        <pt x="144" y="267" on="1"/>
        <pt x="105" y="267" on="0"/>
        <pt x="78" y="242" on="0"/>
        <pt x="78" y="208" on="1"/>
        <pt x="52" y="208" on="1"/>
        <pt x="52" y="340" on="0"/>
        <pt x="154" y="340" on="1"/>
        <pt x="183" y="340" on="0"/>
        <pt x="371" y="281" on="0"/>
        <pt x="389" y="281" on="1"/>
        <pt x="428" y="281" on="0"/>
        <pt x="455" y="306" on="0"/>
        <pt x="455" y="340" on="1"/>
        <pt x="481" y="340" on="1"/>
        <pt x="481" y="208" on="0"/>
      </contour>
    </TTGlyph>
    <TTGlyph name="asterisk" xMin="40" yMin="358" xMax="311" yMax="620">
      <contour>
        <pt x="124" y="358" on="1"/>
        <pt x="106" y="358" on="0"/>
        <pt x="73" y="388" on="0"/>
        <pt x="73" y="404" on="1"/>
        <pt x="73" y="414" on="0"/>
        <pt x="79" y="423" on="1"/>
        <pt x="85" y="431" on="0"/>
        <pt x="147" y="461" on="0"/>
        <pt x="158" y="462" on="1"/>
        <pt x="149" y="470" on="0"/>
        <pt x="149" y="481" on="1"/>
        <pt x="149" y="482" on="0"/>
        <pt x="150" y="486" on="0"/>
        <pt x="150" y="487" on="1"/>
        <pt x="142" y="482" on="0"/>
        <pt x="87" y="470" on="0"/>
        <pt x="71" y="470" on="1"/>
        <pt x="56" y="470" on="0"/>
        <pt x="40" y="491" on="0"/>
        <pt x="40" y="505" on="1"/>
        <pt x="40" y="525" on="0"/>
        <pt x="64" y="557" on="0"/>
        <pt x="80" y="557" on="1"/>
        <pt x="82" y="557" on="0"/>
        <pt x="90" y="555" on="1"/>
        <pt x="100" y="552" on="0"/>
        <pt x="147" y="503" on="0"/>
        <pt x="151" y="492" on="1"/>
        <pt x="158" y="505" on="0"/>
        <pt x="173" y="507" on="1"/>
        <pt x="165" y="513" on="0"/>
        <pt x="131" y="575" on="0"/>
        <pt x="131" y="585" on="1"/>
        <pt x="131" y="601" on="0"/>
        <pt x="156" y="620" on="0"/>
        <pt x="194" y="620" on="0"/>
        <pt x="219" y="601" on="0"/>
        <pt x="219" y="585" on="1"/>
        <pt x="219" y="575" on="0"/>
        <pt x="185" y="513" on="0"/>
        <pt x="177" y="507" on="1"/>
        <pt x="193" y="505" on="0"/>
        <pt x="199" y="491" on="1"/>
        <pt x="201" y="500" on="0"/>
        <pt x="251" y="552" on="0"/>
        <pt x="261" y="555" on="1"/>
        <pt x="269" y="557" on="0"/>
        <pt x="272" y="557" on="1"/>
        <pt x="287" y="557" on="0"/>
        <pt x="311" y="526" on="0"/>
        <pt x="311" y="506" on="1"/>
        <pt x="311" y="492" on="0"/>
        <pt x="295" y="470" on="0"/>
        <pt x="280" y="470" on="1"/>
        <pt x="263" y="470" on="0"/>
        <pt x="207" y="482" on="0"/>
        <pt x="200" y="487" on="1"/>
        <pt x="201" y="485" on="0"/>
        <pt x="201" y="481" on="1"/>
        <pt x="201" y="471" on="0"/>
        <pt x="192" y="462" on="1"/>
        <pt x="203" y="462" on="0"/>
        <pt x="267" y="431" on="0"/>
        <pt x="273" y="423" on="1"/>
        <pt x="279" y="414" on="0"/>
        <pt x="279" y="405" on="1"/>
        <pt x="279" y="388" on="0"/>
        <pt x="245" y="358" on="0"/>
        <pt x="226" y="358" on="1"/>
        <pt x="210" y="358" on="0"/>
        <pt x="201" y="371" on="1"/>
        <pt x="196" y="377" on="0"/>
        <pt x="188" y="429" on="0"/>
        <pt x="188" y="448" on="1"/>
        <pt x="188" y="457" on="0"/>
        <pt x="189" y="459" on="1"/>
        <pt x="184" y="455" on="0"/>
        <pt x="175" y="455" on="1"/>
        <pt x="168" y="455" on="0"/>
        <pt x="162" y="458" on="1"/>
        <pt x="163" y="455" on="0"/>
        <pt x="163" y="446" on="1"/>
        <pt x="163" y="388" on="0"/>
        <pt x="150" y="371" on="1"/>
        <pt x="140" y="358" on="0"/>
      </contour>
    </TTGlyph>
    <TTGlyph name="at" xMin="41" yMin="-10" xMax="589" yMax="595">
      <contour>
        <pt x="245" y="159" on="1"/>
        <pt x="207" y="159" on="0"/>
        <pt x="166" y="217" on="0"/>
        <pt x="166" y="259" on="1"/>
        <pt x="166" y="325" on="0"/>
        <pt x="257" y="437" on="0"/>
        <pt x="307" y="437" on="1"/>
        <pt x="351" y="437" on="0"/>
        <pt x="373" y="396" on="1"/>
        <pt x="381" y="426" on="1"/>
        <pt x="449" y="426" on="1"/>
        <pt x="390" y="203" on="1"/>
        <pt x="387" y="193" on="0"/>
        <pt x="399" y="182" on="0"/>
        <pt x="412" y="182" on="1"/>
        <pt x="445" y="182" on="0"/>
        <pt x="497" y="249" on="0"/>
        <pt x="517" y="317" on="0"/>
        <pt x="517" y="338" on="1"/>
        <pt x="517" y="404" on="0"/>
        <pt x="486" y="495" on="0"/>
        <pt x="429" y="537" on="0"/>
        <pt x="372" y="553" on="0"/>
        <pt x="335" y="553" on="1"/>
        <pt x="234" y="553" on="0"/>
        <pt x="83" y="411" on="0"/>
        <pt x="83" y="288" on="1"/>
        <pt x="83" y="209" on="0"/>
        <pt x="167" y="86" on="0"/>
        <pt x="279" y="29" on="0"/>
        <pt x="335" y="29" on="1"/>
        <pt x="380" y="29" on="0"/>
        <pt x="459" y="57" on="0"/>
        <pt x="505" y="88" on="0"/>
        <pt x="550" y="142" on="0"/>
        <pt x="562" y="163" on="0"/>
        <pt x="573" y="182" on="1"/>
        <pt x="589" y="174" on="1"/>
        <pt x="570" y="131" on="0"/>
        <pt x="537" y="76" on="0"/>
        <pt x="478" y="18" on="0"/>
        <pt x="389" y="-10" on="0"/>
        <pt x="329" y="-10" on="1"/>
        <pt x="220" y="-10" on="0"/>
        <pt x="41" y="157" on="0"/>
        <pt x="41" y="284" on="1"/>
        <pt x="41" y="426" on="0"/>
        <pt x="213" y="595" on="0"/>
        <pt x="331" y="595" on="1"/>
        <pt x="429" y="595" on="0"/>
        <pt x="559" y="466" on="0"/>
        <pt x="559" y="346" on="1"/>
        <pt x="559" y="319" on="0"/>
        <pt x="538" y="254" on="0"/>
        <pt x="499" y="189" on="0"/>
        <pt x="430" y="146" on="0"/>
        <pt x="388" y="146" on="1"/>
        <pt x="368" y="146" on="0"/>
        <pt x="327" y="170" on="0"/>
        <pt x="324" y="196" on="1"/>
        <pt x="285" y="159" on="0"/>
      </contour>
      <contour>
        <pt x="347" y="338" on="1"/>
        <pt x="347" y="398" on="0"/>
        <pt x="311" y="398" on="1"/>
        <pt x="290" y="398" on="0"/>
        <pt x="235" y="313" on="0"/>
        <pt x="235" y="270" on="1"/>
        <pt x="235" y="202" on="0"/>
        <pt x="261" y="202" on="1"/>
        <pt x="297" y="202" on="0"/>
        <pt x="347" y="284" on="0"/>
      </contour>
    </TTGlyph>
    <TTGlyph name="atilde" xMin="25" yMin="-10" xMax="520" yMax="637">
      <component glyphName="tildecomb" x="486" y="15" flags="0x1004"/>
      <component glyphName="a" x="0" y="0" flags="0x1204"/>
    </TTGlyph>
    <TTGlyph name="b" xMin="-6" yMin="-10" xMax="523" yMax="630">
      <contour>
        <pt x="57" y="560" on="1"/>
        <pt x="3" y="564" on="0"/>
        <pt x="-6" y="564" on="1"/>
        <pt x="-6" y="587" on="1"/>
        <pt x="13" y="587" on="0"/>
        <pt x="159" y="630" on="0"/>
        <pt x="182" y="630" on="1"/>
        <pt x="182" y="426" on="1"/>
        <pt x="228" y="454" on="0"/>
        <pt x="294" y="454" on="1"/>
        <pt x="320" y="454" on="0"/>
        <pt x="376" y="441" on="0"/>
        <pt x="440" y="408" on="0"/>
        <pt x="490" y="357" on="0"/>
        <pt x="523" y="274" on="0"/>
        <pt x="523" y="222" on="1"/>
        <pt x="523" y="112" on="0"/>
        <pt x="376" y="-10" on="0"/>
        <pt x="272" y="-10" on="1"/>
        <pt x="205" y="-10" on="0"/>
        <pt x="161" y="22" on="1"/>
        <pt x="81" y="-10" on="0"/>
        <pt x="57" y="-10" on="1"/>
      </contour>
      <contour>
        <pt x="182" y="394" on="1"/>
        <pt x="182" y="42" on="1"/>
        <pt x="216" y="24" on="0"/>
        <pt x="266" y="24" on="1"/>
        <pt x="320" y="24" on="0"/>
        <pt x="393" y="127" on="0"/>
        <pt x="393" y="222" on="1"/>
        <pt x="393" y="312" on="0"/>
        <pt x="336" y="420" on="0"/>
        <pt x="284" y="420" on="1"/>
        <pt x="223" y="420" on="0"/>
      </contour>
    </TTGlyph>
    <TTGlyph name="backslash" xMin="18" yMin="-28" xMax="456" yMax="612">
      <contour>
        <pt x="456" y="-10" on="1"/>
        <pt x="407" y="-28" on="1"/>
        <pt x="18" y="594" on="1"/>
        <pt x="67" y="612" on="1"/>
      </contour>
    </TTGlyph>
    <TTGlyph name="bar" xMin="63" yMin="-30" xMax="114" yMax="650">
      <contour>
        <pt x="63" y="650" on="1"/>
        <pt x="114" y="650" on="1"/>
        <pt x="114" y="-30" on="1"/>
        <pt x="63" y="-30" on="1"/>
      </contour>
    </TTGlyph>
    <TTGlyph name="braceleft" xMin="14" yMin="-153" xMax="251" yMax="594">
      <contour>
        <pt x="80" y="-61" on="1"/>
        <pt x="80" y="-35" on="0"/>
        <pt x="89" y="134" on="0"/>
        <pt x="89" y="150" on="1"/>
        <pt x="89" y="184" on="0"/>
        <pt x="53" y="209" on="0"/>
        <pt x="14" y="209" on="1"/>
        <pt x="14" y="232" on="1"/>
        <pt x="52" y="232" on="0"/>
        <pt x="89" y="258" on="0"/>
        <pt x="89" y="292" on="1"/>
        <pt x="89" y="308" on="0"/>
        <pt x="80" y="476" on="0"/>
        <pt x="80" y="502" on="1"/>
        <pt x="80" y="540" on="0"/>
        <pt x="166" y="594" on="0"/>
        <pt x="251" y="594" on="1"/>
        <pt x="251" y="571" on="1"/>
        <pt x="214" y="571" on="0"/>
        <pt x="184" y="546" on="0"/>
        <pt x="184" y="511" on="1"/>
        <pt x="184" y="495" on="0"/>
        <pt x="195" y="327" on="0"/>
        <pt x="195" y="301" on="1"/>
        <pt x="195" y="279" on="0"/>
        <pt x="139" y="235" on="0"/>
        <pt x="100" y="221" on="1"/>
        <pt x="139" y="207" on="0"/>
        <pt x="195" y="163" on="0"/>
        <pt x="195" y="141" on="1"/>
        <pt x="195" y="115" on="0"/>
        <pt x="184" y="-54" on="0"/>
        <pt x="184" y="-70" on="1"/>
        <pt x="184" y="-105" on="0"/>
        <pt x="214" y="-129" on="0"/>
        <pt x="251" y="-129" on="1"/>
        <pt x="251" y="-153" on="1"/>
        <pt x="166" y="-153" on="0"/>
        <pt x="80" y="-99" on="0"/>
      </contour>
    </TTGlyph>
    <TTGlyph name="braceright" xMin="24" yMin="-153" xMax="261" yMax="594">
      <contour>
        <pt x="195" y="-61" on="1"/>
        <pt x="195" y="-99" on="0"/>
        <pt x="109" y="-153" on="0"/>
        <pt x="24" y="-153" on="1"/>
        <pt x="24" y="-129" on="1"/>
        <pt x="61" y="-129" on="0"/>
        <pt x="91" y="-105" on="0"/>
        <pt x="91" y="-70" on="1"/>
        <pt x="91" y="-54" on="0"/>
        <pt x="80" y="115" on="0"/>
        <pt x="80" y="141" on="1"/>
        <pt x="80" y="163" on="0"/>
        <pt x="136" y="207" on="0"/>
        <pt x="175" y="221" on="1"/>
        <pt x="136" y="235" on="0"/>
        <pt x="80" y="279" on="0"/>
        <pt x="80" y="301" on="1"/>
        <pt x="80" y="327" on="0"/>
        <pt x="91" y="495" on="0"/>
        <pt x="91" y="511" on="1"/>
        <pt x="91" y="546" on="0"/>
        <pt x="61" y="571" on="0"/>
        <pt x="24" y="571" on="1"/>
        <pt x="24" y="594" on="1"/>
        <pt x="109" y="594" on="0"/>
        <pt x="195" y="540" on="0"/>
        <pt x="195" y="502" on="1"/>
        <pt x="195" y="476" on="0"/>
        <pt x="186" y="308" on="0"/>
        <pt x="186" y="292" on="1"/>
        <pt x="186" y="258" on="0"/>
        <pt x="222" y="232" on="0"/>
        <pt x="261" y="232" on="1"/>
        <pt x="261" y="209" on="1"/>
        <pt x="222" y="209" on="0"/>
        <pt x="186" y="184" on="0"/>
        <pt x="186" y="150" on="1"/>
        <pt x="186" y="134" on="0"/>
        <pt x="195" y="-35" on="0"/>
      </contour>
    </TTGlyph>
    <TTGlyph name="bracketleft" xMin="61" yMin="-156" xMax="257" yMax="615">
      <contour>
        <pt x="176" y="579" on="1"/>
        <pt x="176" y="-120" on="1"/>
        <pt x="257" y="-120" on="1"/>
        <pt x="257" y="-156" on="1"/>
        <pt x="61" y="-156" on="1"/>
        <pt x="61" y="615" on="1"/>
        <pt x="257" y="615" on="1"/>
        <pt x="257" y="579" on="1"/>
      </contour>
    </TTGlyph>
    <TTGlyph name="bracketright" xMin="20" yMin="-156" xMax="216" yMax="615">
      <contour>
        <pt x="101" y="-120" on="1"/>
        <pt x="101" y="579" on="1"/>
        <pt x="20" y="579" on="1"/>
        <pt x="20" y="615" on="1"/>
        <pt x="216" y="615" on="1"/>
        <pt x="216" y="-156" on="1"/>
        <pt x="20" y="-156" on="1"/>
        <pt x="20" y="-120" on="1"/>
      </contour>
    </TTGlyph>
    <TTGlyph name="breve" xMin="60" yMin="510" xMax="312" yMax="634">
      <contour>
        <pt x="186" y="510" on="1"/>
        <pt x="125" y="510" on="0"/>
        <pt x="60" y="591" on="0"/>
        <pt x="60" y="634" on="1"/>
        <pt x="88" y="634" on="1"/>
        <pt x="109" y="590" on="0"/>
        <pt x="263" y="590" on="0"/>
        <pt x="284" y="634" on="1"/>
        <pt x="312" y="634" on="1"/>
        <pt x="312" y="590" on="0"/>
        <pt x="248" y="510" on="0"/>
      </contour>
    </TTGlyph>
</ttFont>
